<svg width="24" height="24" viewBox="0 0 24 24" fill="none" xmlns="http://www.w3.org/2000/svg">
<path opacity="0.15" fill-rule="evenodd" clip-rule="evenodd" d="M8 10.0002V20.0002H17.3604C18.3138 20.0002 19.1346 19.3273 19.3216 18.3925L20.5216 12.3925C20.7691 11.1549 19.8225 10.0002 18.5604 10.0002H14L16.4258 6.36159C17.1929 5.21081 16.5885 3.64735 15.2467 3.31191L15.1992 3.30002C14.4642 3.11628 13.6886 3.36355 13.1956 3.93872L8 10.0002Z" fill="currentColor"/>
<path d="M8 10.0002V20.0002M8 10.0002L4 10.0002V20.0002L8 20.0002M8 10.0002L13.1956 3.93872C13.6886 3.36355 14.4642 3.11628 15.1992 3.30002L15.2467 3.31191C16.5885 3.64735 17.1929 5.21081 16.4258 6.36159L14 10.0002H18.5604C19.8225 10.0002 20.7691 11.1549 20.5216 12.3925L19.3216 18.3925C19.1346 19.3273 18.3138 20.0002 17.3604 20.0002L8 20.0002" stroke="currentColor" stroke-width="1.5" stroke-linecap="round" stroke-linejoin="round"/>
</svg>
