<svg width="25" height="24" viewBox="0 0 25 24" fill="none" xmlns="http://www.w3.org/2000/svg">
<path opacity="0.15" d="M21.5 18.0001V6.00008C21.5 5.72393 21.3881 5.47393 21.2071 5.29297L21 5.50008L13.9142 12.5859C13.1332 13.3669 11.8668 13.3669 11.0858 12.5859L4 5.50008L3.79289 5.29297C3.61193 5.47393 3.5 5.72393 3.5 6.00008V18.0001C3.5 18.5524 3.94772 19.0001 4.5 19.0001H20.5C21.0523 19.0001 21.5 18.5524 21.5 18.0001Z" fill="currentColor"/>
<path d="M3.79289 5.29289C3.97386 5.11193 4.22386 5 4.5 5H20.5C20.7761 5 21.0261 5.11193 21.2071 5.29289M3.79289 5.29289C3.61193 5.47386 3.5 5.72386 3.5 6V18C3.5 18.5523 3.94772 19 4.5 19H20.5C21.0523 19 21.5 18.5523 21.5 18V6C21.5 5.72386 21.3881 5.47386 21.2071 5.29289M3.79289 5.29289L11.0858 12.5858C11.8668 13.3668 13.1332 13.3668 13.9142 12.5858L21.2071 5.29289" stroke="currentColor" stroke-width="1.5" stroke-linecap="round" stroke-linejoin="round"/>
</svg>
