<svg width="24" height="25" viewBox="0 0 24 25" fill="none" xmlns="http://www.w3.org/2000/svg">
<path opacity="0.15" d="M21 18.2598V6.25984C21 5.9837 20.8881 5.7337 20.7071 5.55273L20.5 5.75984L13.4142 12.8456C12.6332 13.6267 11.3668 13.6267 10.5858 12.8456L3.5 5.75984L3.29289 5.55273C3.11193 5.7337 3 5.9837 3 6.25984V18.2598C3 18.8121 3.44772 19.2598 4 19.2598H20C20.5523 19.2598 21 18.8121 21 18.2598Z" fill="currentColor"/>
<path d="M3.29289 5.55266C3.47386 5.37169 3.72386 5.25977 4 5.25977H20C20.2761 5.25977 20.5261 5.37169 20.7071 5.55266M3.29289 5.55266C3.11193 5.73362 3 5.98362 3 6.25977V18.2598C3 18.812 3.44772 19.2598 4 19.2598H20C20.5523 19.2598 21 18.812 21 18.2598V6.25977C21 5.98362 20.8881 5.73362 20.7071 5.55266M3.29289 5.55266L10.5858 12.8456C11.3668 13.6266 12.6332 13.6266 13.4142 12.8456L20.7071 5.55266" stroke="currentColor" stroke-width="1.5" stroke-linecap="round" stroke-linejoin="round"/>
</svg>
