<svg width="21" height="20" viewBox="0 0 21 20" fill="none" xmlns="http://www.w3.org/2000/svg">
<path d="M14.2188 1.7998C15.4006 2.46027 16.4133 3.38571 17.1772 4.50346C17.9412 5.62121 18.4356 6.90083 18.6217 8.24185C18.8078 9.58287 18.6805 10.9488 18.2498 12.2323C17.8191 13.5158 17.0967 14.6821 16.1394 15.6394C15.1821 16.5967 14.0158 17.3191 12.7323 17.7498C11.4488 18.1805 10.0829 18.3078 8.74185 18.1217C7.40083 17.9356 6.12121 17.4412 5.00346 16.6772C3.88571 15.9133 2.96027 14.9006 2.2998 13.7188C5.6348 15.5858 9.9328 15.1058 12.7688 12.2698C15.6058 9.43281 16.0868 5.1358 14.2188 1.7998Z" fill="currentColor"/>
</svg>
