<svg width="24" height="25" viewBox="0 0 24 25" fill="none" xmlns="http://www.w3.org/2000/svg">
<path opacity="0.15" d="M20.9994 16.7364V19.4462C21.0036 20.4821 20.0722 21.347 19.0264 21.2527C10 21.2598 3 14.1948 3.00706 5.22895C2.91287 4.18871 3.77358 3.26083 4.80811 3.25985H7.52325C7.96247 3.25554 8.38828 3.41077 8.72131 3.69661C9.66813 4.50926 10.2771 7.26754 10.0428 8.36404C9.85987 9.22013 8.9969 9.81906 8.41019 10.4046C9.69858 12.6659 11.5746 14.5383 13.8405 15.8241C14.4272 15.2386 15.0273 14.3773 15.8851 14.1948C16.9855 13.9605 19.7615 14.5704 20.5709 15.5238C20.8579 15.8619 21.0104 16.2935 20.9994 16.7364Z" fill="currentColor"/>
<path d="M14.5 6.75977C15.2372 6.90359 15.9689 7.22869 16.5 7.75977C17.0311 8.29084 17.3562 9.02261 17.5 9.75977M15 3.25977C16.5315 3.42991 17.9097 4.17084 19 5.25977C20.0903 6.3487 20.8279 7.72845 21 9.25977M20.9994 16.7364V19.4462C21.0036 20.4821 20.0722 21.347 19.0264 21.2527C10 21.2598 3 14.1948 3.00706 5.22895C2.91287 4.18871 3.77358 3.26083 4.80811 3.25985H7.52325C7.96247 3.25554 8.38828 3.41077 8.72131 3.69661C9.66813 4.50926 10.2771 7.26754 10.0428 8.36404C9.85987 9.22013 8.9969 9.81906 8.41019 10.4046C9.69858 12.6659 11.5746 14.5383 13.8405 15.8241C14.4272 15.2386 15.0273 14.3773 15.8851 14.1948C16.9855 13.9605 19.7615 14.5704 20.5709 15.5238C20.8579 15.8619 21.0104 16.2935 20.9994 16.7364Z" stroke="currentColor" stroke-width="1.5" stroke-linecap="round" stroke-linejoin="round"/>
</svg>
