<svg width="25" height="24" viewBox="0 0 25 24" fill="none" xmlns="http://www.w3.org/2000/svg">
<path opacity="0.15" d="M21.4994 16.4767V19.1864C21.5036 20.2223 20.5722 21.0873 19.5264 20.9929C10.5 21 3.5 13.935 3.50706 4.96919C3.41287 3.92895 4.27358 3.00106 5.30811 3.00009H8.02325C8.46247 2.99577 8.88828 3.151 9.22131 3.43684C10.1681 4.24949 10.7771 7.00777 10.5428 8.10428C10.3599 8.96036 9.4969 9.55929 8.91019 10.1448C10.1986 12.4062 12.0746 14.2785 14.3405 15.5644C14.9272 14.9788 15.5273 14.1176 16.3851 13.935C17.4855 13.7008 20.2615 14.3106 21.0709 15.264C21.3579 15.6021 21.5104 16.0337 21.4994 16.4767Z" fill="currentColor"/>
<path d="M15 6.5C15.7372 6.64382 16.4689 6.96892 17 7.5C17.5311 8.03108 17.8562 8.76284 18 9.5M15.5 3C17.0315 3.17014 18.4097 3.91107 19.5 5C20.5903 6.08893 21.3279 7.46869 21.5 9M21.4994 16.4767V19.1864C21.5036 20.2223 20.5722 21.0873 19.5264 20.9929C10.5 21 3.5 13.935 3.50706 4.96919C3.41287 3.92895 4.27358 3.00106 5.30811 3.00009H8.02325C8.46247 2.99577 8.88828 3.151 9.22131 3.43684C10.1681 4.24949 10.7771 7.00777 10.5428 8.10428C10.3599 8.96036 9.4969 9.55929 8.91019 10.1448C10.1986 12.4062 12.0746 14.2785 14.3405 15.5644C14.9272 14.9788 15.5273 14.1176 16.3851 13.935C17.4855 13.7008 20.2615 14.3106 21.0709 15.264C21.3579 15.6021 21.5104 16.0337 21.4994 16.4767Z" stroke="currentColor" stroke-width="1.5" stroke-linecap="round" stroke-linejoin="round"/>
</svg>
