<svg width="136" height="136" viewBox="0 0 136 136" fill="none" xmlns="http://www.w3.org/2000/svg">
<path opacity="0.15" d="M68 119C96.1665 119 119 96.1665 119 68C119 39.8335 96.1665 17 68 17C39.8335 17 17 39.8335 17 68C17 96.1665 39.8335 119 68 119Z" fill="currentColor"/>
<path d="M45.3333 79.3333C45.3333 79.3333 53.8333 90.6667 68 90.6667C82.1667 90.6667 90.6667 79.3333 90.6667 79.3333M85 51H85.0567M51 51H51.0567M119 68C119 96.1665 96.1665 119 68 119C39.8335 119 17 96.1665 17 68C17 39.8335 39.8335 17 68 17C96.1665 17 119 39.8335 119 68Z" stroke="currentColor" stroke-width="8.5" stroke-linecap="round" stroke-linejoin="round"/>
</svg>
