<svg width="50" height="49" viewBox="0 0 50 49" fill="none" xmlns="http://www.w3.org/2000/svg">
<path d="M15.7749 19.5862V17.681C15.7749 12.4201 20.0397 8.15527 25.3006 8.15527C30.5616 8.15527 34.8264 12.4201 34.8264 17.681V19.5862C39.0351 19.5862 42.447 22.998 42.447 27.2068C42.447 30.0275 40.9145 32.5571 38.6367 33.8748M15.7749 19.5862C11.5662 19.5862 8.1543 22.998 8.1543 27.2068C8.1543 30.0275 9.68679 32.5571 11.9646 33.8748M15.7749 19.5862C16.5995 19.5862 17.3936 19.7172 18.1374 19.9595M25.3006 23.3965V40.5428M25.3006 23.3965L31.0161 29.1119M25.3006 23.3965L19.5852 29.1119" stroke="currentColor" stroke-width="2.4065" stroke-linecap="round" stroke-linejoin="round"/>
</svg>
