<svg width="33" height="30" viewBox="0 0 33 30" fill="none" xmlns="http://www.w3.org/2000/svg">
<g clip-path="url(#clip0_239_5804)">
<path d="M21.467 14.878L8.50098 12.5898V29.4967C8.50098 30.2688 9.1269 30.8947 9.89901 30.8947H32.2722C33.0443 30.8947 33.6702 30.2688 33.6702 29.4967V23.2677L21.467 14.878Z" fill="white" fill-opacity="0.15"/>
<path d="M21.467 0.385742H9.89901C9.1269 0.385742 8.50098 1.01166 8.50098 1.78378V8.01279L21.467 15.6398L28.3313 17.9279L33.6702 15.6398V8.01279L21.467 0.385742Z" fill="#444544"/>
<path d="M8.50098 8.01367H21.467V15.6407H8.50098V8.01367Z" fill="#2D2E2D"/>
<path opacity="0.2" d="M17.0181 7.25098H8.50098V26.3186H17.0181C17.7892 26.3161 18.4136 25.6916 18.4161 24.9206V8.64901C18.4136 7.87794 17.7892 7.25348 17.0181 7.25098Z" fill="#6C6D6C"/>
<path opacity="0.2" d="M16.2554 7.25098H8.50098V24.7932H16.2554C17.0265 24.7907 17.6509 24.1662 17.6534 23.3951V8.64901C17.6509 7.87794 17.0265 7.25348 16.2554 7.25098Z" fill="#6C6D6C"/>
<path d="M2.27206 7.25098H16.2555C17.0276 7.25098 17.6535 7.8769 17.6535 8.64901V22.6324C17.6535 23.4045 17.0276 24.0305 16.2555 24.0305H2.27206C1.49994 24.0305 0.874023 23.4046 0.874023 22.6324V8.64901C0.874023 7.8769 1.49994 7.25098 2.27206 7.25098Z" fill="#6C6D6C"/>
<path d="M5.20312 20.1849L8.14411 15.6277L5.44948 11.0957H7.61708L9.08758 13.994C9.22334 14.2693 9.31639 14.4737 9.36673 14.6087H9.3858C9.48241 14.3891 9.5841 14.1758 9.69088 13.9688L11.2628 11.0972H13.2527L10.4894 15.6025L13.3229 20.1848H11.2056L9.50707 17.0036C9.42706 16.8683 9.35917 16.7261 9.3042 16.5788H9.27903C9.22927 16.7231 9.16326 16.8613 9.08225 16.9907L7.33337 20.1849H5.20312Z" fill="white"/>
<path d="M32.272 0.385742H21.4668V8.01279H33.6701V1.78378C33.6701 1.01166 33.0442 0.385742 32.272 0.385742Z" fill="#515151"/>
<path d="M21.4668 15.6396H33.6701V23.2667H21.4668V15.6396Z" fill="#2D2E2D"/>
</g>
<defs>
<clipPath id="clip0_239_5804">
<rect width="31.4199" height="29.2278" fill="white" transform="translate(0.874512 0.385742)"/>
</clipPath>
</defs>
</svg>
