<svg width="27" height="30" viewBox="0 0 27 30" fill="none" xmlns="http://www.w3.org/2000/svg">
<path d="M24.6226 10.9528H23.9133V7.52973C23.9133 7.50823 23.9099 7.48689 23.9071 7.46507C23.906 7.32929 23.8627 7.19567 23.7696 7.09006L18.0738 0.58386C18.0721 0.582028 18.0703 0.581489 18.0692 0.579819C18.0353 0.541726 17.9957 0.510206 17.9539 0.48305C17.9414 0.474591 17.929 0.46764 17.9159 0.460474C17.8797 0.440808 17.8412 0.424267 17.8016 0.412359C17.7909 0.409557 17.7813 0.405139 17.7706 0.40223C17.7275 0.3921 17.6828 0.385742 17.6377 0.385742H3.63933C3.00009 0.385742 2.48085 0.905633 2.48085 1.54428V10.9525H1.77162C0.857169 10.9525 0.115723 11.6936 0.115723 12.6082V21.2188C0.115723 22.1329 0.857169 22.8749 1.77162 22.8749H2.48085V28.7693C2.48085 29.408 3.00009 29.9278 3.63933 29.9278H22.7548C23.3934 29.9278 23.9133 29.408 23.9133 28.7693V22.8749H24.6226C25.5368 22.8749 26.2783 22.1333 26.2783 21.2191V12.6085C26.2784 11.6937 25.5368 10.9528 24.6226 10.9528ZM3.63933 1.54428H17.0584V7.47143C17.0584 7.79148 17.318 8.05069 17.6376 8.05069H22.7548V10.9527H3.63933V1.54428ZM12.3604 17.26C10.9229 16.7594 9.98631 15.964 9.98631 14.7066C9.98631 13.2301 11.2181 12.1005 13.2586 12.1005C14.2342 12.1005 14.953 12.3059 15.466 12.5374L15.0301 14.116C14.6836 13.9486 14.0677 13.7048 13.2203 13.7048C12.3734 13.7048 11.9628 14.09 11.9628 14.5392C11.9628 15.0913 12.4502 15.3349 13.5673 15.7586C15.0943 16.3232 15.8131 17.1185 15.8131 18.3381C15.8131 19.7879 14.6966 21.0205 12.3221 21.0205C11.334 21.0205 10.3582 20.7632 9.87069 20.4941L10.2683 18.8769C10.7948 19.147 11.6032 19.416 12.4378 19.416C13.336 19.416 13.8111 19.0438 13.8111 18.4787C13.8108 17.9393 13.3998 17.6316 12.3604 17.26ZM2.16931 16.6949C2.16931 13.7433 4.27463 12.1005 6.89213 12.1005C7.90627 12.1005 8.67627 12.3059 9.02304 12.4857L8.62476 14.0384C8.22713 13.8722 7.67475 13.7184 6.9819 13.7184C5.42896 13.7184 4.22291 14.6545 4.22291 16.5793C4.22291 18.312 5.24938 19.4027 6.99537 19.4027C7.5852 19.4027 8.23984 19.2745 8.62476 19.1204L8.92019 20.6477C8.5607 20.8277 7.75239 21.0205 6.69989 21.0205C3.70954 21.0206 2.16931 19.1589 2.16931 16.6949ZM22.7548 28.4553H3.63933V22.8749H22.7548V28.4553ZM21.4608 20.8917H19.1763L16.4042 12.2419H18.5479L19.6 15.9001C19.8952 16.9263 20.1646 17.9144 20.3704 18.9926H20.4086C20.6267 17.9529 20.896 16.9262 21.1913 15.938L22.2952 12.2419H24.3749L21.4608 20.8917Z" fill="#6C6D6C"/>
</svg>
