<svg width="99" height="32" viewBox="0 0 99 32" fill="none" xmlns="http://www.w3.org/2000/svg">
<path d="M7.99158 24.7398V24.7273M7.99153 20.9939C7.99153 15.375 12.9861 16.6236 12.9861 12.2534C12.9861 9.49494 10.75 7.25879 7.99153 7.25879C5.66425 7.25879 3.70875 8.85053 3.1543 11.0047" stroke="#B0EF53" stroke-width="1.57724" stroke-linecap="round" stroke-linejoin="round"/>
<path d="M23.3959 24.7398V24.7273M23.3958 20.9939C23.3958 15.375 28.3904 16.6236 28.3904 12.2534C28.3904 9.49494 26.1543 7.25879 23.3958 7.25879C21.0685 7.25879 19.113 8.85053 18.5586 11.0047" stroke="#B0EF53" stroke-width="1.57724" stroke-linecap="round" stroke-linejoin="round"/>
<path d="M40.9951 15.2114C40.5596 15.2114 40.2065 15.5645 40.2065 16C40.2065 16.4355 40.5596 16.7886 40.9951 16.7886L40.9951 15.2114ZM54.9593 16.5576C55.2672 16.2497 55.2672 15.7503 54.9593 15.4424L49.9405 10.4236C49.6326 10.1157 49.1332 10.1157 48.8253 10.4236C48.5173 10.7316 48.5173 11.2309 48.8253 11.5389L53.2863 16L48.8253 20.4611C48.5173 20.7691 48.5173 21.2684 48.8253 21.5764C49.1332 21.8843 49.6325 21.8843 49.9405 21.5764L54.9593 16.5576ZM40.9951 16.7886L54.4016 16.7886L54.4016 15.2114L40.9951 15.2114L40.9951 16.7886Z" fill="#B0EF53"/>
<path opacity="0.15" d="M67.795 15.343C67.7904 17.0778 68.1957 18.7891 68.9779 20.3376C69.9053 22.1931 71.3309 23.7539 73.0952 24.8449C74.8595 25.936 76.8927 26.5143 78.967 26.5151C80.7018 26.5196 82.4132 26.1143 83.9616 25.3322L91.4535 27.8295L88.9562 20.3376C89.7383 18.7891 90.1437 17.0778 90.1391 15.343C90.1383 13.2686 89.56 11.2354 88.4689 9.47117C87.3779 7.7069 85.8172 6.28123 83.9616 5.35386C82.4132 4.57173 80.7018 4.16641 78.967 4.17094H78.3099C75.5703 4.32208 72.9827 5.47841 71.0426 7.41854C69.1024 9.35867 67.9461 11.9463 67.795 14.6858V15.343Z" fill="#B0EF53"/>
<path d="M74.3667 12.7143H83.5673M74.3667 17.9717H80.9386M83.9616 25.3322L91.4535 27.8295L88.9562 20.3376C88.9562 20.3376 90.1391 18.6289 90.1391 15.343C90.1391 9.17281 85.1372 4.1709 78.967 4.1709C72.7968 4.1709 67.7949 9.17281 67.7949 15.343C67.7949 21.5132 72.7968 26.5151 78.967 26.5151C82.3642 26.5151 83.9616 25.3322 83.9616 25.3322Z" stroke="#B0EF53" stroke-width="1.57724" stroke-linecap="round" stroke-linejoin="round"/>
</svg>
