<svg width="99" height="32" viewBox="0 0 99 32" fill="none" xmlns="http://www.w3.org/2000/svg">
<path d="M7.99158 24.7398V24.7273M7.99153 20.9939C7.99153 15.375 12.9861 16.6236 12.9861 12.2534C12.9861 9.49494 10.75 7.25879 7.99153 7.25879C5.66425 7.25879 3.70875 8.85053 3.1543 11.0047" stroke="#FF724E" stroke-width="1.57724" stroke-linecap="round" stroke-linejoin="round"/>
<path d="M23.3954 24.7398V24.7273M23.3953 20.9939C23.3953 15.375 28.3899 16.6236 28.3899 12.2534C28.3899 9.49494 26.1538 7.25879 23.3953 7.25879C21.0681 7.25879 19.1126 8.85053 18.5581 11.0047" stroke="#FF724E" stroke-width="1.57724" stroke-linecap="round" stroke-linejoin="round"/>
<path d="M40.9946 15.2114C40.5591 15.2114 40.206 15.5645 40.206 16C40.206 16.4355 40.5591 16.7886 40.9946 16.7886L40.9946 15.2114ZM54.9588 16.5576C55.2667 16.2497 55.2667 15.7503 54.9588 15.4424L49.94 10.4236C49.6321 10.1157 49.1327 10.1157 48.8248 10.4236C48.5168 10.7316 48.5168 11.2309 48.8248 11.5389L53.2859 16L48.8248 20.4611C48.5168 20.7691 48.5168 21.2684 48.8248 21.5764C49.1327 21.8843 49.6321 21.8843 49.94 21.5764L54.9588 16.5576ZM40.9946 16.7886L54.4011 16.7886L54.4011 15.2114L40.9946 15.2114L40.9946 16.7886Z" fill="#FF724E"/>
<path opacity="0.15" d="M67.7945 15.343C67.7899 17.0778 68.1953 18.7891 68.9774 20.3376C69.9048 22.1931 71.3304 23.7539 73.0947 24.8449C74.859 25.936 76.8922 26.5143 78.9666 26.5151C80.7013 26.5196 82.4127 26.1143 83.9611 25.3322L91.453 27.8295L88.9557 20.3376C89.7379 18.7891 90.1432 17.0778 90.1386 15.343C90.1378 13.2686 89.5595 11.2354 88.4685 9.47117C87.3774 7.7069 85.8167 6.28123 83.9611 5.35386C82.4127 4.57173 80.7013 4.16641 78.9666 4.17094H78.3094C75.5698 4.32208 72.9822 5.47841 71.0421 7.41854C69.1019 9.35867 67.9456 11.9463 67.7945 14.6858V15.343Z" fill="#FF724E"/>
<path d="M74.3662 12.7143H83.5668M74.3662 17.9717H80.9381M83.9611 25.3322L91.453 27.8295L88.9557 20.3376C88.9557 20.3376 90.1386 18.6289 90.1386 15.343C90.1386 9.17281 85.1367 4.1709 78.9665 4.1709C72.7963 4.1709 67.7944 9.17281 67.7944 15.343C67.7944 21.5132 72.7963 26.5151 78.9665 26.5151C82.3638 26.5151 83.9611 25.3322 83.9611 25.3322Z" stroke="#FF724E" stroke-width="1.57724" stroke-linecap="round" stroke-linejoin="round"/>
</svg>
