<svg width="100" height="34" viewBox="0 0 100 34" fill="none" xmlns="http://www.w3.org/2000/svg">
<path opacity="0.15" d="M5.47437 8.78888C5.47437 7.27721 6.69982 6.05176 8.21149 6.05176H19.3948C20.1207 6.05176 20.8169 6.34013 21.3303 6.85344L26.5697 12.0929C27.083 12.6062 27.3714 13.3024 27.3714 14.0283V25.2116C27.3714 26.7233 26.1459 27.9488 24.6343 27.9488H8.21149C6.69982 27.9488 5.47437 26.7233 5.47437 25.2116V8.78888Z" fill="#FF724E"/>
<path d="M20.5286 27.9488V21.106H12.3172V27.9488M24.6343 27.9488H8.21149C6.69982 27.9488 5.47437 26.7233 5.47437 25.2116V8.78888C5.47437 7.27721 6.69982 6.05176 8.21149 6.05176H19.3948C20.1207 6.05176 20.8169 6.34013 21.3303 6.85344L26.5697 12.0929C27.083 12.6062 27.3714 13.3024 27.3714 14.0283V25.2116C27.3714 26.7233 26.1459 27.9488 24.6343 27.9488Z" stroke="#FF724E" stroke-width="1.64228" stroke-linecap="round" stroke-linejoin="round"/>
<path d="M42.6853 16.1789C42.2318 16.1789 41.8642 16.5465 41.8642 17C41.8642 17.4535 42.2318 17.8211 42.6853 17.8211L42.6853 16.1789ZM57.2253 17.5806C57.546 17.26 57.546 16.74 57.2253 16.4194L51.9996 11.1937C51.6789 10.873 51.159 10.873 50.8383 11.1937C50.5177 11.5144 50.5177 12.0343 50.8383 12.3549L55.4834 17L50.8383 21.6451C50.5177 21.9657 50.5177 22.4857 50.8383 22.8063C51.159 23.127 51.6789 23.127 51.9996 22.8063L57.2253 17.5806ZM42.6853 17.8211L56.6447 17.8211L56.6447 16.1789L42.6853 16.1789L42.6853 17.8211Z" fill="#FF724E"/>
<path opacity="0.15" d="M71.959 8.78946C71.959 8.03362 72.5717 7.4209 73.3275 7.4209H92.4874C93.2433 7.4209 93.856 8.03363 93.856 8.78946V21.1065C93.856 21.8624 93.2433 22.4751 92.4874 22.4751H73.3275C72.5717 22.4751 71.959 21.8624 71.959 21.1065V8.78946Z" fill="#FF724E"/>
<path d="M82.9075 27.9494H88.3817M82.9075 27.9494H77.4332M82.9075 27.9494V22.4751M82.9075 22.4751H73.3275C72.5717 22.4751 71.959 21.8624 71.959 21.1065V8.78946C71.959 8.03362 72.5717 7.4209 73.3275 7.4209H92.4874C93.2433 7.4209 93.856 8.03363 93.856 8.78946V21.1065C93.856 21.8624 93.2433 22.4751 92.4874 22.4751H82.9075Z" stroke="#FF724E" stroke-width="1.64228" stroke-linecap="round" stroke-linejoin="round"/>
</svg>
