<svg width="84" height="16" viewBox="0 0 84 16" fill="none" xmlns="http://www.w3.org/2000/svg">
<path d="M13.6139 10.3904C13.8622 10.3904 13.9864 10.7082 13.9864 11.3437C13.9591 11.7955 13.8139 12.2325 13.5657 12.6112C13.2632 13.1169 12.8827 13.5717 12.4381 13.9579C11.9755 14.3659 11.4563 14.7043 10.8966 14.963C10.3803 15.2141 9.81523 15.3485 9.24141 15.3569C8.51036 15.3569 8.02071 14.7145 7.77247 13.4296C7.41485 14.0148 6.92905 14.5108 6.3517 14.8801C5.64768 15.2927 4.83876 15.4909 4.02407 15.45C3.59071 15.4688 3.15811 15.397 2.75391 15.2395C2.34961 15.0818 1.98248 14.842 1.6757 14.5347C1.38815 14.2467 1.16267 13.9021 1.01323 13.5232C0.863793 13.1442 0.793508 12.7387 0.806753 12.3314C0.806753 9.98284 1.58609 8.1317 3.14475 6.7777C3.68193 6.28559 4.3113 5.90522 4.99653 5.6588C5.58273 5.47689 6.19319 5.38631 6.80696 5.38919C7.34488 5.37189 7.87865 5.49067 8.35868 5.73453C8.55181 5.33418 8.77238 5.13379 9.02073 5.13379C9.28093 5.14244 9.53697 5.20269 9.77368 5.311C10.0105 5.41964 10.2234 5.57398 10.4001 5.76572C10.7623 6.05487 10.9953 6.47583 11.0484 6.93675C10.8001 7.49946 10.5167 8.04615 10.2001 8.57371C10.0727 9.4589 10.0173 10.3527 10.0345 11.247C10.0345 12.3981 10.1794 12.9738 10.4691 12.9738C10.8276 12.9738 11.6967 12.2554 13.076 10.8187C13.3243 10.5332 13.5036 10.3904 13.6139 10.3904ZM3.84825 11.6474C3.84825 12.7111 4.24133 13.2431 5.0275 13.2431C5.86889 13.2293 6.56544 12.7804 7.11726 11.8962C7.3294 11.5484 7.48962 11.1713 7.59313 10.777C7.57038 9.43893 7.70934 8.10308 8.00693 6.79831C6.88995 7.01931 5.86996 7.58459 5.08967 8.41466C4.678 8.84364 4.35616 9.35059 4.14295 9.90561C3.92975 10.4607 3.82955 11.0531 3.84825 11.6474Z" fill="#6C6D6C"/>
<path d="M22.739 9.00815C22.739 8.54767 22.477 8.31759 21.9528 8.31759C21.5941 8.31759 21.1941 8.66282 20.7527 9.3535C20.3136 10.0451 19.9921 10.8049 19.801 11.6021V11.6434C19.8043 12.1347 19.8775 12.6231 20.0183 13.0941C20.1314 13.4293 20.2043 13.7775 20.2354 14.13C20.2354 14.5905 19.6492 15.0511 18.4768 15.5116C18.3256 15.5746 18.1645 15.6097 18.0009 15.6152C17.8387 15.6196 17.6796 15.5685 17.5499 15.4707C17.4203 15.3728 17.3277 15.2341 17.2871 15.0764C17.1395 14.6039 17.073 14.1101 17.0906 13.6155C17.0906 13.0006 17.1078 12.4249 17.1422 11.8887C17.1767 11.352 17.2112 10.8481 17.2457 10.3759C17.2802 9.91546 17.3147 9.50784 17.3492 9.1531C17.3836 8.79879 17.4009 8.5121 17.4009 8.29334C17.4009 7.83275 17.1872 7.60267 16.7595 7.60267C16.3319 7.60267 15.8353 8.10342 15.2698 9.10493C14.7044 10.1063 14.4215 10.9009 14.4215 11.4879C14.4165 12.0379 14.4895 12.5854 14.6388 13.1148C14.752 13.4503 14.825 13.7981 14.856 14.1507C14.856 14.6112 14.2698 15.0717 13.0974 15.5322C12.9463 15.5953 12.7851 15.6305 12.6215 15.6359C12.4593 15.6399 12.3007 15.5884 12.1711 15.4905C12.0416 15.3931 11.9488 15.2544 11.9077 15.0971C11.7531 14.5587 11.6867 13.9988 11.7111 13.4394C11.678 12.0194 11.7542 10.5995 11.9388 9.19113C12.1513 7.8915 12.6304 6.64943 13.3456 5.54399C13.4207 5.3874 13.5341 5.25195 13.6751 5.1508C13.8161 5.04943 13.9802 4.98491 14.1525 4.96387C14.6124 4.96387 15.033 5.33709 15.4147 6.08277C15.5146 6.25411 15.5978 6.43452 15.6629 6.62156C15.9277 6.24503 16.2774 5.93633 16.6837 5.72045C17.0898 5.50415 17.5411 5.38708 18.0009 5.37843C18.586 5.37544 19.152 5.58522 19.5941 5.96901C19.8144 6.14686 19.9911 6.37257 20.1107 6.62946C20.2302 6.88635 20.2895 7.16717 20.2837 7.45056V7.6784C20.6378 7.19185 21.1015 6.79545 21.6371 6.52189C22.1728 6.24834 22.7653 6.10488 23.3665 6.10371C23.6737 6.0817 23.9822 6.12187 24.2736 6.22153C24.565 6.32119 24.8336 6.47842 25.0632 6.68383C25.2521 6.87012 25.4009 7.09294 25.5005 7.33894C25.6002 7.58462 25.6485 7.84834 25.6426 8.11357C25.647 8.62735 25.6053 9.14082 25.5184 9.64734C25.4356 10.1078 25.3425 10.5357 25.239 10.9318C25.1355 11.3278 25.0425 11.6836 24.9597 11.9992C24.8891 12.2351 24.8474 12.4785 24.8356 12.7245C24.8356 12.897 24.8908 12.9837 25.001 12.9837C25.2935 12.9431 25.5635 12.8043 25.7666 12.5898C26.0702 12.3271 26.3735 12.0405 26.677 11.7296L27.515 10.8698C27.7794 10.6003 27.9576 10.4658 28.0494 10.4658C28.2425 10.4658 28.3392 10.6959 28.3392 11.1564C28.3392 12.1235 27.8529 13.063 26.8805 13.9746C26.0656 14.8231 24.9518 15.3189 23.7769 15.3562C22.7838 15.3562 22.2873 14.4514 22.2873 12.6416C22.3076 12.0076 22.3837 11.3764 22.5149 10.7557C22.6377 10.1807 22.7127 9.59586 22.739 9.00815Z" fill="#6C6D6C"/>
<path d="M34.1187 13.5324C33.6542 14.1306 33.06 14.6153 32.3806 14.9491C31.7013 15.2831 30.9548 15.4578 30.1979 15.4596C28.674 15.4596 27.5324 15.0694 26.7738 14.2886C26.3994 13.9052 26.1071 13.449 25.915 12.9487C25.7228 12.4479 25.6349 11.9132 25.6565 11.3773C25.6127 9.81456 26.1681 8.29456 27.2082 7.1293C27.7196 6.54491 28.3544 6.08185 29.0664 5.7739C29.7788 5.46552 30.5505 5.31983 31.3255 5.34707C31.9592 5.32389 32.5911 5.42237 33.1878 5.63728C34.0017 5.96874 34.4085 6.27968 34.4085 6.56947C34.4085 6.79998 33.8393 6.91524 32.7016 6.91524C32.1701 6.90541 31.6425 7.00507 31.1513 7.20834C30.6602 7.41161 30.2161 7.7138 29.8461 8.09642C29.466 8.48555 29.1682 8.94785 28.9711 9.45512C28.7736 9.96271 28.6809 10.5048 28.6979 11.0489C28.6802 11.6207 28.8759 12.1787 29.2461 12.6135C29.4428 12.8291 29.6856 12.9973 29.9559 13.1059C30.2262 13.215 30.5175 13.2613 30.8085 13.2422C31.3915 13.2636 31.9686 13.12 32.4741 12.8276C32.0001 12.5171 31.6154 12.0882 31.3577 11.583C31.1001 11.0776 30.9784 10.5142 31.0048 9.94754C30.9954 9.27246 31.252 8.62099 31.7187 8.13402C31.9538 7.8674 32.244 7.65537 32.569 7.51234C32.894 7.36921 33.2466 7.2985 33.6016 7.30544C34.3669 7.30544 34.9155 7.51598 35.2463 7.93737C35.593 8.41452 35.768 8.99527 35.743 9.58479C35.7292 10.3178 35.5673 11.0403 35.2672 11.7087H35.3912C35.9723 11.704 36.5303 11.4798 36.9532 11.0801C37.1188 10.9146 37.2604 10.7693 37.3775 10.6449C37.4195 10.5924 37.4717 10.5489 37.5311 10.5168C37.5902 10.4848 37.6553 10.4649 37.7224 10.4583C37.9155 10.4583 38.0119 10.6889 38.0119 11.1493C38.0384 11.5012 37.9847 11.8544 37.8561 12.1827C37.7271 12.5109 37.5256 12.806 37.2674 13.0454C36.8148 13.4396 36.2354 13.6566 35.6362 13.6566C35.1274 13.6642 34.6194 13.6226 34.1187 13.5324ZM33.9324 11.1149C34.1539 10.6628 34.2716 10.1675 34.2774 9.66416C34.2774 9.20368 34.1256 8.97359 33.8223 8.97359C33.698 8.97359 33.5948 9.06343 33.5118 9.24277C33.4335 9.40439 33.3911 9.58116 33.3879 9.76093C33.3803 10.0142 33.4248 10.266 33.5186 10.5015C33.6122 10.7367 33.7531 10.95 33.9324 11.1287V11.1149Z" fill="#6C6D6C"/>
<path d="M80.984 15.4568C82.1267 15.4568 83.0532 14.5289 83.0532 13.3846C83.0532 12.24 82.1267 11.3125 80.984 11.3125C79.8411 11.3125 78.915 12.24 78.915 13.3846C78.915 14.5289 79.8411 15.4568 80.984 15.4568Z" fill="#6C6D6C"/>
<path d="M59.6433 10.769C59.8731 10.769 59.9879 11.0867 59.9879 11.7222C59.9543 12.1708 59.8046 12.603 59.5535 12.9759C59.2513 13.4821 58.8705 13.9364 58.4259 14.323C57.9636 14.7313 57.4444 15.0698 56.8846 15.3281C56.3882 15.5727 55.8447 15.7071 55.2914 15.7216C54.8715 15.7451 54.4544 15.6441 54.0914 15.4317C53.7958 15.235 53.5577 14.9632 53.4015 14.6441C53.1719 14.1836 52.9787 13.2893 52.8226 11.9606C52.7367 11.0298 52.5848 10.1066 52.3671 9.19748C52.0233 9.13553 51.7 8.98951 51.4257 8.77289C51.2982 8.68231 51.1938 8.56203 51.1225 8.42253C51.0511 8.28303 51.0145 8.12825 51.0156 7.97145C51.0043 7.8265 51.0395 7.68123 51.1156 7.55732C51.1917 7.43341 51.3051 7.33664 51.4395 7.28077C51.7435 7.13806 52.0761 7.06746 52.412 7.07355C52.7584 7.06853 53.0993 7.16199 53.3947 7.34315C53.774 7.03883 54.0933 6.66636 54.3364 6.24454C54.5961 5.69561 54.7149 5.09018 54.681 4.48325C54.6951 4.15137 54.6357 3.82023 54.507 3.51367C54.378 3.20753 54.1831 2.93366 53.9363 2.71148C53.4603 2.26733 52.7385 2.04484 51.7707 2.04484C51.029 2.02016 50.2877 2.09696 49.567 2.27268C49.1162 2.40203 48.6768 2.56835 48.2532 2.77023C47.8876 2.9499 47.5637 3.11546 47.2807 3.26767C47.0383 3.40867 46.7645 3.48686 46.4843 3.49562C46.2362 3.49562 46.1118 3.41625 46.1118 3.2572C46.1724 2.96805 46.3078 2.69994 46.505 2.48001C46.8314 2.06331 47.2224 1.70174 47.6638 1.40928C48.9337 0.512554 50.4548 0.0422438 52.0087 0.0661707C53.3971 0.0186374 54.774 0.336416 56.0016 0.988317C56.5806 1.2999 57.06 1.76797 57.3857 2.33976C57.711 2.91155 57.8698 3.56334 57.8433 4.22101C57.8947 5.288 57.5647 6.33875 56.9121 7.1841C56.2976 7.95766 55.4813 8.54569 54.5534 8.88344C54.7664 9.35728 54.9364 9.84971 55.0603 10.3548C55.1914 10.8794 55.319 11.3632 55.4432 11.8052C55.5429 12.186 55.6852 12.5545 55.8672 12.9034C55.9139 13.0226 55.9929 13.1266 56.0954 13.2034C56.1976 13.2802 56.3193 13.327 56.4465 13.3385C56.7596 13.3002 57.0512 13.1581 57.274 12.9346C57.5983 12.6654 57.919 12.3715 58.2365 12.0538C58.5535 11.736 58.8364 11.4426 59.0847 11.1733C59.3466 10.9038 59.5329 10.769 59.6433 10.769ZM50.6431 3.30901C50.8225 3.30901 50.9119 3.53941 50.9119 3.9999C50.9134 4.44308 50.8859 4.88616 50.8294 5.32603C50.7149 6.0808 50.5558 6.82786 50.3533 7.56415C49.8569 9.44284 49.6083 10.541 49.6083 10.8588V13.9049C49.638 14.2165 49.5728 14.5295 49.4213 14.8034C49.27 15.077 49.0394 15.2984 48.7601 15.4387L48.005 15.7839C47.7478 15.8977 47.4688 15.9543 47.1876 15.9495C46.6083 15.9495 46.3187 15.2831 46.3187 13.9499C46.3865 12.232 46.7 10.5327 47.2499 8.90406C47.6963 7.2797 48.3499 5.71954 49.1945 4.26224C49.3637 4.02094 49.5655 3.80464 49.7945 3.61985C50.0308 3.41732 50.3322 3.30719 50.6431 3.30901Z" fill="#6C6D6C"/>
<path d="M77.4575 10.7698C77.6872 10.7698 77.8024 11.0876 77.8024 11.723C77.7665 12.1724 77.6144 12.6043 77.3607 12.9767C77.0585 13.4829 76.6781 13.9372 76.2331 14.3239C75.7708 14.7318 75.2516 15.0702 74.6919 15.3286C74.1316 15.5902 73.5204 15.7246 72.9023 15.7225C72.6273 15.7373 72.3526 15.6902 72.0983 15.584C71.844 15.4786 71.6168 15.3167 71.433 15.1112C71.0907 14.7329 70.9026 14.2402 70.9055 13.7297C70.916 13.1517 70.9994 12.5771 71.154 12.0202C71.3287 11.3937 71.5124 10.7354 71.7055 10.0444C72.2298 8.20235 72.4986 6.91105 72.5124 6.16932C72.5251 5.91819 72.4827 5.66717 72.3885 5.43378C72.3447 5.34715 72.2758 5.27623 72.1907 5.22976C72.1059 5.1834 72.0088 5.16417 71.9124 5.17475C71.4986 5.17475 71.0574 5.42331 70.5884 5.92076C70.0652 6.495 69.6199 7.13601 69.2641 7.82732C68.3645 9.41291 67.8475 11.1868 67.7539 13.0079L67.8366 13.5879C67.8648 13.7941 67.879 14.0017 67.878 14.2097C67.8678 14.4478 67.804 14.6808 67.6909 14.8909C67.5782 15.1007 67.4192 15.2823 67.2261 15.4221C66.8228 15.7764 66.3043 15.9713 65.7677 15.971C65.6195 15.971 65.4746 15.9265 65.3517 15.8435C65.2289 15.7605 65.1336 15.6423 65.0779 15.5051C64.9155 15.1438 64.838 14.7507 64.8502 14.3547C64.8778 13.7227 64.9822 13.0967 65.1608 12.4898C65.3677 11.7024 65.5974 10.8666 65.8504 9.98246C66.5123 7.64766 66.8504 5.90698 66.8642 4.7602C66.8855 4.28988 66.8116 3.81999 66.6467 3.37863C66.5775 3.21776 66.4594 3.08307 66.3086 2.99356C66.1583 2.90437 65.9832 2.86485 65.809 2.88162C65.0641 2.88162 64.326 3.41345 63.5952 4.47724C62.864 5.54103 62.2089 7.19176 61.6295 9.42989C61.4777 10.01 61.3629 10.5144 61.2846 10.9426L61.264 11.3361C61.4592 12.1535 61.5904 12.9851 61.6571 13.8227C61.6571 14.6243 61.3744 15.1631 60.8088 15.4391L60.0534 15.7847C59.81 15.8956 59.5454 15.9522 59.2777 15.9504C58.5882 15.9504 58.2432 15.2909 58.2432 13.9713C58.2432 12.6521 58.5995 10.0767 59.3121 6.24537C59.5745 4.86381 59.7052 4.09024 59.7052 3.92467C59.7052 2.80545 59.4226 2.24606 58.857 2.24606C58.6682 2.24456 58.4839 2.30256 58.3295 2.41162C58.1708 2.52218 58.0121 2.63733 57.8533 2.75728C57.695 2.87681 57.5305 3.00371 57.3606 3.13701C57.1918 3.24864 56.9936 3.30621 56.7914 3.3029C56.5776 3.3029 56.4707 3.1164 56.4707 2.7435C56.4715 2.36783 56.5693 1.99888 56.7541 1.67213C56.9389 1.34527 57.2049 1.07214 57.5258 0.878272C58.2429 0.361921 59.1089 0.0953033 59.9915 0.118482C61.2328 0.118482 61.964 0.694225 62.1846 1.84528C62.2398 2.19062 62.2814 2.55689 62.309 2.94357C63.3296 1.03262 64.6191 0.0771484 66.1779 0.0771484C67.8859 0.0771484 68.8551 0.892047 69.0848 2.52217C69.17 3.02175 69.2047 3.52871 69.1885 4.03523V4.2008C70.0848 2.95767 71.1469 2.33589 72.3747 2.33589C74.1125 2.33589 74.9817 3.3859 74.9817 5.48559C74.9603 6.5654 74.8179 7.63933 74.5574 8.68709C74.2748 9.91003 74.0679 10.7872 73.9367 11.3191C73.8248 11.7213 73.7589 12.1347 73.7401 12.552C73.7401 13.0767 73.923 13.3394 74.2885 13.3394C74.6538 13.3394 75.5262 12.6209 76.9057 11.1842C77.1633 10.9078 77.3474 10.7698 77.4575 10.7698Z" fill="#6C6D6C"/>
<path d="M47.9867 8.01692C48.3317 8.01692 48.5111 8.36225 48.5111 9.01479C48.4932 9.75386 48.3364 10.4826 48.0486 11.163C47.7175 11.9728 47.2508 12.7203 46.6696 13.3736C46.0109 14.1207 45.2178 14.737 44.3315 15.1903C43.2917 15.7135 42.1394 15.9719 40.9764 15.9432C39.726 15.9581 38.5166 15.4964 37.5933 14.6515C36.6256 13.7881 36.1415 12.5435 36.1415 10.918C36.1245 9.41621 36.3575 7.92195 36.8314 6.49734C37.239 5.26468 37.8474 4.1085 38.6314 3.07441C39.3198 2.16316 40.184 1.39974 41.1728 0.829444C41.9945 0.329756 42.9322 0.0533154 43.8935 0.0283203C45.3856 0.0283203 46.1316 0.693894 46.1316 2.02472C46.1624 2.66316 46.0168 3.29755 45.711 3.85844C45.4305 4.31903 45.1454 4.54911 44.8555 4.54911C44.6634 4.54911 44.4733 4.5081 44.2979 4.42916C44.1225 4.3498 43.966 4.23422 43.8385 4.09002C43.7182 3.9502 43.5707 3.83601 43.4054 3.75408C43.2402 3.67226 43.0602 3.62441 42.8765 3.61319C42.5316 3.61319 41.5797 3.57516 40.7764 4.87042C40.4608 5.2995 40.2271 5.78317 40.0865 6.29696C39.6155 7.50708 39.3814 8.797 39.397 10.096C39.5223 11.0318 40.0087 11.8811 40.7521 12.4615C41.1935 12.7684 41.7271 12.9126 42.2623 12.8692C43.2131 12.7637 44.0889 12.3022 44.7142 11.5775C45.1834 11.0731 45.5972 10.5966 46.0418 10.0822C46.4867 9.56768 46.8799 9.09448 47.2178 8.65931C47.5556 8.22414 47.811 8.01692 47.9867 8.01692Z" fill="#6C6D6C"/>
</svg>
