<svg width="31" height="32" viewBox="0 0 31 32" fill="none" xmlns="http://www.w3.org/2000/svg">
<g id="Logo">
<path id="Vector" fill-rule="evenodd" clip-rule="evenodd" d="M15.5224 24.9196C15.961 25.2824 16.4754 25.4371 17.0306 25.4657C17.2602 25.4777 17.4964 25.4664 17.7224 25.4253C18.0808 25.3602 18.4382 25.2784 18.7868 25.1734C19.4967 24.9592 20.1101 24.5891 20.5682 23.9913C20.8291 23.6505 21.0433 23.2821 21.1809 22.8748C21.2945 22.5386 21.4012 22.1991 21.4862 21.8552C21.5532 21.5842 21.5865 21.3044 21.6272 21.0275C21.6543 20.8444 21.6707 20.6593 21.6876 20.4745C21.715 20.1746 21.7437 19.8752 21.7635 19.5746C21.7775 19.3656 21.777 19.1555 21.7851 18.9462C21.7878 18.8823 21.798 18.8189 21.8042 18.7555C21.8093 18.6965 21.8392 18.6762 21.8994 18.6772C22.1109 18.6804 22.3229 18.6858 22.5341 18.6762C22.7709 18.6657 23.0093 18.6554 23.2423 18.6165C23.574 18.5609 23.903 18.4907 24.2284 18.4059C24.6122 18.3053 24.9645 18.1254 25.3038 17.9208C25.6984 17.6821 26.0588 17.4023 26.3503 17.0417C26.6047 16.7278 26.7251 16.3641 26.6637 15.9673C26.5746 15.3908 26.0901 15.013 25.5268 14.9873C25.3227 14.978 25.1156 14.9996 24.9124 15.0253C24.6663 15.0566 24.424 15.1119 24.1787 15.1484C24.0093 15.1739 23.8377 15.1851 23.6688 15.2028L23.6641 15.1807C23.9799 14.5841 24.3089 13.9944 24.6076 13.3898C24.837 12.9256 25.0328 12.4451 25.2353 11.9677C25.5706 11.1775 25.8382 10.3631 26.06 9.53492C26.2722 8.74226 26.4539 7.94103 26.5114 7.1185C26.5344 6.79023 26.5503 6.46048 26.5481 6.13172C26.5466 5.86929 26.5183 5.60662 26.4921 5.34518C26.4622 5.04554 26.3716 4.76158 26.2463 4.48838C26.0813 4.12804 25.825 3.83256 25.5555 3.55202C25.3398 3.3273 25.1023 3.12265 24.8671 2.918C24.5315 2.62619 24.154 2.3929 23.7623 2.18605C23.3183 1.95022 22.848 1.7678 22.3611 1.64259C22.0644 1.56779 21.7658 1.50077 21.4656 1.44161C21.3589 1.42007 21.2512 1.36523 21.1437 1.36523H19.1197C19.0465 1.36523 18.974 1.41322 18.9003 1.42129C18.4159 1.47417 17.9377 1.57294 17.4719 1.71628C17.2981 1.76989 17.1395 1.73855 16.9743 1.72313C16.8475 1.71138 16.7229 1.67882 16.5961 1.67246C16.1136 1.64847 15.6306 1.61371 15.1478 1.61885C14.6856 1.62374 14.2281 1.70012 13.7809 1.82693C13.4066 1.93366 13.0401 2.06316 12.7042 2.26022C12.5608 2.34443 12.4467 2.32852 12.2981 2.28592C11.7991 2.13973 11.2957 2.00878 10.7887 1.89327C10.4726 1.82252 10.1473 1.78678 9.82442 1.75349C9.51454 1.7213 9.20346 1.70194 8.89198 1.69547C8.58794 1.68886 8.28194 1.6891 7.97913 1.71603C7.49712 1.75887 7.02441 1.85679 6.56468 2.01493C6.0579 2.18819 5.58437 2.44656 5.16442 2.77895C4.73603 3.118 4.39233 3.53146 4.11644 4.00417C3.82537 4.50282 3.62537 5.03673 3.5015 5.59708C3.43418 5.90087 3.45891 6.21324 3.41264 6.52168C3.39844 6.61715 3.42708 6.71312 3.42708 6.80908V8.1518C3.42708 8.24091 3.40089 8.33026 3.41215 8.41986C3.43981 8.63503 3.43027 8.85193 3.46674 9.06564C3.52403 9.40395 3.57568 9.74104 3.6452 10.0769C3.74239 10.5462 3.83517 11.015 3.94288 11.482C4.02121 11.8221 4.10616 12.1601 4.19943 12.4963C4.34141 13.0098 4.47997 13.5242 4.6408 14.0316C4.79037 14.5034 4.96075 14.9682 5.13089 15.4333C5.36401 16.0765 5.64976 16.6993 5.98524 17.2955C6.27777 17.8123 6.61143 18.2963 7.05941 18.6941C7.35489 18.9565 7.68316 19.158 8.06529 19.2588C8.3638 19.3381 8.67667 19.3468 8.97913 19.2843C9.32974 19.213 9.65729 19.0562 9.93262 18.8277C9.96494 18.8015 9.99994 18.7812 10.0384 18.8297C10.1838 19.0138 10.3782 19.1367 10.5816 19.2427C11.1304 19.5291 11.7285 19.615 12.3358 19.6498C12.4832 19.6581 12.6315 19.637 12.7796 19.6331C13.0687 19.625 13.3493 19.5687 13.6252 19.4889C13.7701 19.4471 13.9113 19.3937 14.0587 19.3443C14.0663 19.5012 14.0761 19.652 14.081 19.803L14.1013 20.6263C14.1052 20.7516 14.1101 20.8769 14.1216 21.0018C14.1515 21.3235 14.1806 21.6451 14.2191 21.9658C14.2455 22.1869 14.2734 22.4094 14.3253 22.6253C14.4296 23.0604 14.5723 23.4854 14.7517 23.8953C14.9235 24.2932 15.1877 24.6443 15.5224 24.9196ZM14.6433 20.8148C14.6259 20.4282 14.6129 20.0415 14.6044 19.6547C14.5941 19.1793 14.5907 18.7036 14.5841 18.2282L14.5828 18.2101C14.3412 18.3553 14.103 18.5139 13.8511 18.6449C13.5556 18.7984 13.235 18.8872 12.9028 18.9124C12.6425 18.932 12.3784 18.9499 12.1194 18.9293C11.6944 18.8948 11.2695 18.8285 10.8891 18.6189C10.7348 18.534 10.5738 18.4304 10.4673 18.2951C10.2124 17.9697 10.3346 17.5587 10.7189 17.3609C10.9845 17.2238 11.2744 17.1668 11.5623 17.1002C11.8128 17.0434 12.0608 16.9756 12.3055 16.897C12.5468 16.8179 12.6991 16.6221 12.8496 16.4299L13.0881 16.1234L12.8014 16.0936C12.517 16.0671 12.2455 15.9886 11.986 15.8735C11.7642 15.7753 11.7608 15.7646 11.5977 15.9413C11.326 16.2363 11.0616 16.5386 10.795 16.8387C10.599 17.0596 10.4043 17.2816 10.2088 17.5031C10.0159 17.7222 9.8347 17.9536 9.62638 18.1572C9.31744 18.4598 8.94486 18.6417 8.5003 18.6211C8.21511 18.6079 7.95416 18.508 7.71915 18.3447C7.23469 18.0074 6.90837 17.535 6.61094 17.0392C6.23028 16.4037 5.93775 15.7269 5.68781 15.0316C5.51473 14.5508 5.34068 14.0698 5.18988 13.5822C5.02562 13.0522 4.88144 12.5161 4.7397 11.9795C4.63248 11.5748 4.53749 11.1667 4.44692 10.7579C4.34265 10.2932 4.24618 9.82683 4.15757 9.3589C4.09857 9.04287 4.06454 8.72218 4.01681 8.40419C3.95242 7.97506 3.94067 7.5425 3.96417 7.11189C3.98498 6.72389 4.04055 6.3371 4.09588 5.95179C4.1725 5.41862 4.34826 4.91556 4.6009 4.4404C4.75674 4.15085 4.94774 3.88166 5.16957 3.63893C5.53432 3.23525 5.97569 2.9437 6.46676 2.7246C6.80972 2.5716 7.17227 2.4798 7.54167 2.40759C8.09002 2.30086 8.64326 2.30526 9.19651 2.31652C9.43837 2.32166 9.6795 2.36548 9.92112 2.38972C10.4416 2.44137 10.9515 2.55104 11.455 2.68593C11.8222 2.78434 12.1818 2.91212 12.5456 3.02277C12.5818 3.03379 12.6354 3.03281 12.6656 3.01347C13.1588 2.69131 13.6976 2.47883 14.2712 2.35716C14.4888 2.31114 14.7135 2.29082 14.9361 2.27662C15.2063 2.25973 15.4793 2.24357 15.749 2.25949C16.0734 2.27809 16.3968 2.32583 16.7192 2.36989C16.8759 2.39143 17.0286 2.44553 17.1853 2.46022C17.2607 2.46732 17.3402 2.41273 17.4196 2.39413C17.8245 2.30037 18.2276 2.19633 18.6362 2.12264C18.9403 2.06781 19.2511 2.04186 19.5601 2.02423C19.9052 2.0044 20.2524 1.98996 20.5971 2.00661C21.0328 2.02766 21.4654 2.08959 21.8923 2.18898C22.4215 2.31212 22.9288 2.49082 23.4113 2.73905C23.7719 2.92485 24.1143 3.13978 24.423 3.40417C24.6252 3.57773 24.8323 3.74884 25.0147 3.94223C25.2399 4.18067 25.4695 4.41886 25.611 4.72412C25.7175 4.95448 25.7934 5.19291 25.8145 5.44481C25.8404 5.7584 25.872 6.07297 25.8693 6.38704C25.8666 6.68717 25.8255 6.98705 25.7966 7.28668C25.7302 7.96918 25.5821 8.63699 25.4017 9.29599C25.2512 9.84033 25.0806 10.3789 24.8903 10.9107C24.7168 11.401 24.5163 11.8823 24.3138 12.3619C24.1646 12.7169 24.0026 13.0665 23.8282 13.4098C23.4967 14.059 23.152 14.7016 22.7532 15.3136C22.6845 15.4192 22.6191 15.5274 22.552 15.6353C22.7261 15.7526 22.9231 15.7939 23.1214 15.8155C23.3102 15.8358 23.5026 15.8483 23.6911 15.8341C23.9929 15.8116 24.2938 15.7685 24.5939 15.7266C24.8911 15.685 25.1821 15.6005 25.4876 15.6228C25.7922 15.6451 26.0105 15.8767 25.9897 16.1621C25.9765 16.3428 25.8935 16.4977 25.7736 16.6302C25.2069 17.2554 24.4955 17.6343 23.6818 17.8211C23.3726 17.8921 23.0539 17.9286 22.7373 17.9582C22.467 17.9821 22.1955 17.9884 21.9244 17.9773C21.7256 17.97 21.5285 17.9244 21.3253 17.8951C21.3048 18.0809 21.2854 18.2745 21.2619 18.4674L21.1672 19.2074C21.1385 19.4419 21.1163 19.6774 21.0866 19.912C21.0578 20.1396 21.0218 20.3661 20.9914 20.5935C20.9633 20.8052 20.9425 21.0182 20.9106 21.2297C20.8624 21.5538 20.8161 21.8787 20.7527 22.2003C20.6769 22.5847 20.5608 22.9568 20.3706 23.3036C20.139 23.7269 19.8108 24.0493 19.3926 24.288C18.9618 24.534 18.4906 24.662 18.0134 24.7693C17.6751 24.8454 17.3273 24.8576 16.9848 24.8265C16.3912 24.7729 15.8844 24.5191 15.5013 24.0586C15.1358 23.6192 14.8883 23.1159 14.8 22.5457C14.7584 22.2745 14.726 22.0018 14.703 21.7284C14.6765 21.4243 14.6566 21.1197 14.6433 20.8148ZM15.3106 16.9092C15.3143 17.1124 15.2932 17.3156 15.2942 17.5188C15.2984 18.4645 15.3052 19.4104 15.3133 20.3563C15.3148 20.5107 15.3224 20.6657 15.3334 20.8199C15.3566 21.143 15.3796 21.4664 15.411 21.7886C15.4335 22.0175 15.4641 22.2456 15.5001 22.4728C15.5515 22.7942 15.6979 23.0806 15.8639 23.3546C16.0068 23.5901 16.1931 23.7898 16.4382 23.9279C16.8548 24.1622 17.303 24.1817 17.7549 24.0956C18.0602 24.0375 18.3603 23.9438 18.6565 23.8471C18.9481 23.7536 19.2142 23.5944 19.4345 23.3817C19.6423 23.1805 19.7897 22.935 19.8891 22.664C20.0817 22.1386 20.1422 21.5852 20.2218 21.0363C20.2516 20.8307 20.2776 20.6246 20.3048 20.4187C20.3358 20.1844 20.3672 19.9504 20.397 19.7161C20.4196 19.5413 20.4396 19.3668 20.4609 19.1922C20.4915 18.9416 20.5236 18.6911 20.5527 18.4405C20.575 18.2466 20.5936 18.052 20.6137 17.8576C20.6392 17.6091 20.6663 17.3614 20.6886 17.1124C20.7053 16.9239 20.6984 16.7318 20.7319 16.5465C20.7934 16.2069 20.954 15.9181 21.2551 15.731C21.3809 15.6532 21.5234 15.6018 21.6629 15.5357L21.6389 15.4992C21.5099 15.3318 21.3777 15.167 21.2512 14.9976C21.0524 14.7318 20.9094 14.4353 20.7657 14.1374C20.6296 13.8549 20.4631 13.5876 20.3199 13.3082C20.07 12.8211 19.8154 12.3352 19.5851 11.839C19.2955 11.2147 19.0673 10.5689 18.9956 9.87763C18.965 9.58534 18.9571 9.29305 19.0166 9.00346C19.1114 8.54079 19.3527 8.17897 19.7591 7.93075C20.1361 7.70064 20.5559 7.62622 20.986 7.60296C21.2529 7.58852 21.5214 7.60027 21.7983 7.60027L21.7892 7.55351C21.6169 7.19317 21.4561 6.8267 21.2673 6.47517C21.0015 5.97872 20.6607 5.53123 20.2817 5.1158C20.0021 4.80691 19.6948 4.52421 19.3638 4.27124C19.0362 4.02326 18.691 3.80172 18.3226 3.62081C17.885 3.40311 17.4227 3.23873 16.9459 3.13122C16.4844 3.02889 16.0205 2.96622 15.5471 2.96108C15.1437 2.95667 14.7427 2.97528 14.3495 3.0661C13.7561 3.20343 13.2134 3.44774 12.7417 3.84334C12.4804 4.06235 12.247 4.31261 12.0467 4.5885C11.81 4.91286 11.6195 5.26391 11.4565 5.63135C11.2328 6.13588 11.0793 6.66048 10.974 7.20002C10.9216 7.4693 10.8805 7.74029 10.8386 8.01129C10.8239 8.10651 10.823 8.20321 10.8141 8.31214L10.9933 8.21888L11.1681 8.14054C11.7598 7.87004 12.3725 7.69598 13.031 7.71581C13.3111 7.72414 13.5784 7.77971 13.8276 7.90235C14.305 8.13785 14.5841 8.53809 14.7055 9.04434C14.7892 9.39391 14.8467 9.75034 14.9025 10.106C14.9461 10.3836 14.9909 10.6642 14.9958 10.9442C15.0029 11.3535 14.9823 11.7638 14.9601 12.1729C14.941 12.5207 14.869 12.8636 14.7466 13.1898C14.5253 13.7812 14.2785 14.3631 14.0482 14.9511C13.9721 15.1455 13.9135 15.3464 13.8418 15.5602L14.1326 15.5604C14.1679 15.5611 14.2039 15.5621 14.2379 15.5702C14.5025 15.6326 14.7324 15.7526 14.9206 15.9562C15.1723 16.2265 15.304 16.5428 15.3106 16.9092ZM10.2562 14.1051C10.1062 13.7521 10.0158 13.3767 9.98844 12.9942C9.96298 12.6333 10.0058 12.2745 10.043 11.9151C10.0788 11.5672 10.1091 11.2177 10.1194 10.8686C10.1368 10.294 10.0981 9.72096 10.0707 9.14691C10.0543 8.80517 10.0939 8.45927 10.1243 8.11679C10.1517 7.80835 10.186 7.49917 10.2445 7.19513C10.3422 6.68496 10.4722 6.18215 10.657 5.69475C10.832 5.23257 11.0337 4.78287 11.3177 4.37773C11.5128 4.09964 11.7336 3.8404 11.9459 3.56867L11.8827 3.54615C11.1916 3.32681 10.4891 3.15496 9.76616 3.0803C9.42466 3.0448 9.0817 3.02424 8.73923 3.00367C8.63396 2.99755 8.52723 3.01175 8.42172 3.02179C8.16052 3.047 7.89589 3.0568 7.63885 3.10576C7.2014 3.18899 6.78157 3.32901 6.39307 3.55692C6.04926 3.75923 5.74784 4.02615 5.50543 4.34297C5.23444 4.69328 5.05157 5.08936 4.9206 5.5114C4.76589 6.00956 4.69196 6.52242 4.67213 7.03968C4.65475 7.49329 4.64618 7.94935 4.72452 8.40125C4.78254 8.73736 4.82146 9.07739 4.8856 9.41252C4.97182 9.86945 5.06862 10.3243 5.17593 10.7768C5.33089 11.424 5.48609 12.0718 5.66993 12.7112C5.8457 13.3234 6.04374 13.9303 6.25917 14.53C6.43493 15.0194 6.63836 15.4997 6.85256 15.9734C6.99209 16.2821 7.16101 16.5793 7.33824 16.8681C7.52649 17.1751 7.74093 17.4664 8.03127 17.6892C8.39822 17.9702 8.68194 18.014 9.05502 17.7053C9.21463 17.5734 9.34951 17.4099 9.48856 17.2544C9.70912 17.0077 9.9221 16.7536 10.1419 16.5056C10.4217 16.19 10.705 15.8777 10.9862 15.5631C11.0457 15.4968 11.1033 15.4282 11.161 15.3611L11.0648 15.2772C10.718 14.9459 10.4428 14.5469 10.2562 14.1051ZM20.8661 4.70405C21.0962 4.97131 21.3144 5.24853 21.5202 5.5349C21.9146 6.08801 22.2321 6.69215 22.4639 7.33074C22.5667 7.61349 22.649 7.89892 22.6122 8.2081C22.5868 8.42475 22.5885 8.64434 22.5696 8.86221C22.5537 9.04336 22.5248 9.22353 22.5016 9.40419C22.4663 9.67641 22.4154 9.94814 22.4002 10.2216C22.3856 10.482 22.401 10.745 22.4174 11.0057C22.4338 11.2708 22.4695 11.5347 22.4938 11.7991C22.5212 12.0994 22.5584 12.3991 22.5667 12.6999C22.5736 12.9467 22.5515 13.1947 22.5302 13.4414C22.5029 13.7371 22.4311 14.0269 22.3173 14.3012C22.2382 14.4955 22.1439 14.6835 22.0551 14.8779L22.0908 14.9156L22.1452 14.9577L22.2002 14.8598C22.6625 14.1324 23.0732 13.3736 23.4294 12.5888C23.6577 12.0822 23.8743 11.5705 24.0791 11.0539C24.3983 10.2509 24.6561 9.42487 24.8504 8.58289C24.9386 8.20492 25.0061 7.82108 25.0659 7.43723C25.1126 7.13711 25.1513 6.83356 25.1601 6.53074C25.1692 6.20956 25.1515 5.88594 25.1219 5.56574C25.0996 5.32388 25.0399 5.08055 24.8886 4.88349C24.6448 4.56696 24.3819 4.26439 24.0585 4.02473C23.786 3.82326 23.5143 3.61592 23.2223 3.44652C22.7589 3.17748 22.2573 2.99878 21.7332 2.87687C21.2213 2.75765 20.7033 2.70624 20.1819 2.69523C19.8744 2.68862 19.5655 2.72167 19.2587 2.7508C18.9806 2.77675 18.7043 2.8213 18.4245 2.85802C18.7248 3.02693 19.0213 3.17724 19.3004 3.35423C19.8879 3.72632 20.4147 4.17406 20.8661 4.70405ZM13.2332 15.1234C13.423 14.5163 13.6817 13.9362 13.9321 13.353C14.1356 12.8799 14.2465 12.3817 14.2834 11.8696C14.3018 11.6172 14.2969 11.3616 14.2844 11.1085C14.2722 10.8269 14.2464 10.546 14.2071 10.2669C14.1544 9.91093 14.0947 9.55474 14.0105 9.20542C13.9192 8.82745 13.6891 8.56404 13.2944 8.46686C13.0543 8.40786 12.8154 8.41031 12.5723 8.44874C11.9791 8.54201 11.4362 8.76062 10.9304 9.08081C10.8286 9.1452 10.7723 9.19734 10.7902 9.34299C10.8274 9.65242 10.8354 9.96674 10.834 10.2789C10.832 10.7207 10.8132 11.1626 10.7965 11.6042C10.7911 11.7479 10.7703 11.8914 10.7547 12.0346C10.7312 12.2539 10.6854 12.473 10.6868 12.6921C10.6883 12.9178 10.7113 13.1486 10.7662 13.3672C10.9402 14.0605 11.3084 14.6275 11.9123 15.0277C12.2837 15.274 12.6944 15.3979 13.1456 15.4216C13.1755 15.318 13.2031 15.2204 13.2332 15.1234ZM12.5243 9.17751C12.4448 9.0108 12.4903 8.87249 12.6744 8.80835C12.7194 8.79293 12.7654 8.77579 12.8119 8.77139C12.8763 8.76502 12.9412 8.76967 13.0061 8.76967C13.2399 8.77114 13.4646 8.8037 13.6572 8.95205C13.7811 9.04752 13.8144 9.17359 13.7341 9.30383C13.6203 9.48816 13.4472 9.58069 13.2342 9.59832C12.8991 9.62598 12.6638 9.4698 12.5243 9.17751ZM21.8206 9.11655L21.8967 8.44948C21.9077 8.36037 21.8609 8.33589 21.786 8.33369C21.5503 8.32732 21.3148 8.31875 21.0791 8.31484C20.8137 8.30994 20.5549 8.35254 20.3092 8.45339C20.0365 8.56576 19.8289 8.74544 19.7439 9.04238C19.6818 9.26118 19.6622 9.48988 19.6862 9.71607C19.7193 10.0661 19.7986 10.4101 19.9219 10.7393C20.0869 11.1783 20.2592 11.6169 20.4656 12.0375C20.7449 12.6067 21.0607 13.1579 21.3574 13.7185C21.4365 13.8681 21.5035 14.0245 21.586 14.1991C21.7526 13.8518 21.8436 13.4732 21.8529 13.0882C21.8609 12.7697 21.8357 12.4505 21.8171 12.132C21.8056 11.9371 21.778 11.7432 21.7591 11.5489C21.7329 11.2781 21.6928 11.0071 21.6864 10.7357C21.6803 10.4595 21.6999 10.1819 21.7234 9.90603C21.7454 9.64214 21.789 9.37996 21.8206 9.11655ZM21.2896 8.9026C21.202 9.14422 21.0149 9.28081 20.7721 9.32072C20.5459 9.35817 20.3476 9.27469 20.2002 9.09403C20.0952 8.96551 20.1354 8.81349 20.2928 8.72634C20.4734 8.62647 20.672 8.60125 20.9062 8.58607C20.9701 8.59758 21.0656 8.60762 21.1567 8.63332C21.2886 8.67053 21.3376 8.77041 21.2896 8.9026ZM14.2888 16.3452C14.1596 16.2395 13.9882 16.2334 13.8653 16.3494C13.7126 16.4938 13.5782 16.6588 13.4438 16.8214C13.2888 17.0094 13.1429 17.2047 12.9432 17.3504C12.6521 17.5621 12.3121 17.6498 11.9708 17.7327C11.6996 17.7988 11.4269 17.8603 11.1549 17.9234L11.1515 17.9587C11.2323 17.9959 11.3104 18.0427 11.3948 18.0693C11.8097 18.2006 12.232 18.2662 12.6707 18.229C12.987 18.2018 13.2886 18.1328 13.5743 17.9974C13.9676 17.8111 14.2705 17.5156 14.5277 17.1724C14.5708 17.1151 14.5904 17.0304 14.5953 16.9565C14.6127 16.6955 14.4803 16.5014 14.2888 16.3452ZM21.8641 16.2321C21.6607 16.3004 21.4952 16.4045 21.446 16.6245C21.4125 16.7734 21.4002 16.9274 21.3873 17.0799C21.3848 17.1068 21.4184 17.1562 21.4438 17.1631C21.6005 17.2045 21.7581 17.2532 21.9182 17.2676C22.1153 17.2855 22.3155 17.2799 22.5138 17.2701C22.7278 17.2593 22.9432 17.2454 23.1542 17.2101C23.6509 17.1264 24.132 16.9908 24.5589 16.7088C24.7131 16.6072 24.8654 16.5034 25.0186 16.4001L25.0059 16.3783C24.8426 16.4025 24.6798 16.4321 24.5158 16.4495C24.1819 16.4853 23.8477 16.523 23.5126 16.5423C23.3508 16.5516 23.1868 16.5205 23.0237 16.5073C22.7501 16.485 22.4827 16.4243 22.2514 16.2779C22.118 16.1937 22.0064 16.1844 21.8641 16.2321Z" fill="#6C6D6C"/>
<path id="Vector_2" d="M0.694336 25.6453C1.04582 25.5883 1.40143 25.5607 1.7575 25.5626C2.30462 25.5626 2.70585 25.6899 2.96044 25.919C3.19594 26.1227 3.33596 26.4346 3.33596 26.8167C3.33596 27.205 3.22115 27.5105 3.00475 27.7332C2.71197 28.0451 2.23461 28.2042 1.69361 28.2042C1.52812 28.2042 1.37537 28.1979 1.24832 28.166V29.8848H0.694336V25.6453ZM1.24832 27.7139C1.36925 27.7457 1.522 27.7585 1.70658 27.7585C2.37464 27.7585 2.78223 27.4338 2.78223 26.8419C2.78223 26.2755 2.38125 26.0018 1.77023 26.0018C1.52837 26.0018 1.34379 26.0209 1.24832 26.0463V27.7139ZM6.6902 28.3185C6.6902 29.4578 5.90072 29.9545 5.15605 29.9545C4.32226 29.9545 3.67942 29.3435 3.67942 28.3695C3.67942 27.3384 4.35408 26.7337 5.20696 26.7337C6.09191 26.7335 6.6902 27.3766 6.6902 28.3185ZM4.24613 28.3504C4.24613 29.025 4.63438 29.5342 5.18175 29.5342C5.71639 29.5342 6.11713 29.0314 6.11713 28.3376C6.11713 27.8157 5.85642 27.1538 5.19423 27.1538C4.53205 27.1538 4.24613 27.7648 4.24613 28.3504ZM7.32007 29.3115C7.48555 29.4197 7.77833 29.5342 8.05838 29.5342C8.46573 29.5342 8.65667 29.3305 8.65667 29.076C8.65667 28.8086 8.4978 28.6622 8.08384 28.5095C7.53011 28.3122 7.26915 28.0067 7.26915 27.6375C7.26915 27.1411 7.67013 26.7337 8.33207 26.7337C8.64394 26.7337 8.91787 26.8228 9.08972 26.9247L8.9497 27.332C8.76027 27.2153 8.54209 27.1536 8.31958 27.1538C7.98862 27.1538 7.80404 27.3447 7.80404 27.5739C7.80404 27.8285 7.98886 27.943 8.38984 28.0958C8.92448 28.2995 9.19817 28.5668 9.19817 29.025C9.19817 29.566 8.77809 29.9479 8.04614 29.9479C7.70881 29.9479 7.39694 29.8652 7.18053 29.7379L7.32007 29.3115ZM10.5918 25.9188V26.8035H11.3935V27.2299H10.5918V28.8911C10.5918 29.273 10.6998 29.4894 11.0119 29.4894C11.1213 29.491 11.2304 29.4782 11.3365 29.4512L11.3619 29.8713C11.254 29.9159 11.0819 29.9477 10.8657 29.9477C10.6048 29.9477 10.3945 29.8649 10.2608 29.7122C10.102 29.5467 10.0444 29.273 10.0444 28.9102V27.2299H9.56708V26.8035H10.0444V26.0652L10.5918 25.9188ZM14.6398 26.8037C14.6268 27.0265 14.6144 27.2747 14.6144 27.6502V29.4388C14.6144 30.1452 14.4743 30.578 14.1752 30.8456C13.876 31.1257 13.4432 31.2148 13.055 31.2148C12.6858 31.2148 12.2785 31.1257 12.03 30.9602L12.17 30.5337C12.3737 30.661 12.6919 30.7756 13.0738 30.7756C13.6467 30.7756 14.0667 30.4765 14.0667 29.7V29.3563H14.054C13.8822 29.6427 13.5512 29.8718 13.0738 29.8718C12.3101 29.8718 11.7627 29.2226 11.7627 28.3695C11.7627 27.3256 12.4437 26.7337 13.1502 26.7337C13.6851 26.7337 13.9779 27.0138 14.1115 27.2684H14.1243L14.1497 26.8037H14.6398ZM14.0606 28.0194C14.0606 27.9239 14.0542 27.8412 14.0288 27.7648C13.927 27.4402 13.6533 27.1729 13.2459 27.1729C12.711 27.1729 12.3294 27.6248 12.3294 28.3376C12.3294 28.9423 12.6349 29.4451 13.2396 29.4451C13.5833 29.4451 13.8951 29.2287 14.0161 28.8723C14.0479 28.7768 14.0609 28.6686 14.0609 28.5731L14.0606 28.0194ZM15.5052 27.7648C15.5052 27.402 15.4988 27.0901 15.4797 26.8037H15.97L15.9889 27.4084H16.0144C16.1544 26.9947 16.4917 26.7337 16.8672 26.7337C16.9309 26.7337 16.9752 26.7401 17.0261 26.7528V27.2811C16.9635 27.2675 16.8995 27.2611 16.8354 27.262C16.4408 27.262 16.1605 27.5611 16.0844 27.9812C16.0687 28.0673 16.0601 28.1546 16.0589 28.2422V29.8843H15.5052V27.7648ZM17.8349 28.4458C17.8477 29.2033 18.3311 29.5151 18.8912 29.5151C19.2925 29.5151 19.5341 29.4451 19.7441 29.356L19.8396 29.757C19.6423 29.8461 19.3049 29.9479 18.8149 29.9479C17.8665 29.9479 17.3 29.3242 17.3 28.3949C17.3 27.4657 17.8474 26.7335 18.7448 26.7335C19.7505 26.7335 20.0178 27.6182 20.0178 28.1846C20.0178 28.2992 20.0051 28.3883 19.9987 28.4456L17.8349 28.4458ZM19.477 28.0449C19.4832 27.6884 19.3304 27.1347 18.7005 27.1347C18.1341 27.1347 17.8858 27.6566 17.841 28.0449H19.477ZM20.6543 29.2096C20.9543 29.3899 21.2972 29.4865 21.6472 29.4897C22.2136 29.4897 22.5446 29.1905 22.5446 28.7577C22.5446 28.3567 22.3155 28.1276 21.7363 27.9048C21.0362 27.6566 20.6034 27.2938 20.6034 26.6892C20.6034 26.0209 21.1571 25.5244 21.9909 25.5244C22.4301 25.5244 22.7483 25.6262 22.9392 25.7345L22.7865 26.1863C22.5361 26.0517 22.2561 25.9817 21.9718 25.9827C21.3862 25.9827 21.1635 26.3327 21.1635 26.6255C21.1635 27.0265 21.4242 27.2238 22.0163 27.4529C22.7419 27.7332 23.1111 28.0831 23.1111 28.7132C23.1111 29.3751 22.621 29.9479 21.609 29.9479C21.1953 29.9479 20.7434 29.827 20.514 29.6742L20.6543 29.2096ZM27.4073 30.5144C26.854 30.3692 26.3063 30.2036 25.7652 30.0179C25.6761 29.9861 25.587 29.9543 25.5042 29.9543C24.4859 29.9161 23.6139 29.1651 23.6139 27.7839C23.6139 26.4091 24.4541 25.5244 25.6124 25.5244C26.7772 25.5244 27.5348 26.4282 27.5348 27.6948C27.5348 28.7959 27.0257 29.5024 26.3128 29.7506V29.7761C26.7393 29.8843 27.2039 29.9861 27.5667 30.0498L27.4073 30.5144ZM26.949 27.7203C26.949 26.861 26.5038 25.9761 25.5933 25.9761C24.6577 25.9761 24.1995 26.8417 24.2058 27.7712C24.1995 28.6813 24.7023 29.5024 25.5679 29.5024C26.4528 29.5024 26.949 28.7004 26.949 27.7203ZM28.2536 25.5944H28.8076V29.4197H30.6406V29.8843H28.2536V25.5944Z" fill="#6C6D6C"/>
</g>
</svg>
