<svg width="100" height="34" viewBox="0 0 100 34" fill="none" xmlns="http://www.w3.org/2000/svg">
<path opacity="0.15" d="M5.47461 8.78888C5.47461 7.27721 6.70006 6.05176 8.21174 6.05176H19.3951C20.121 6.05176 20.8172 6.34013 21.3305 6.85344L26.5699 12.0929C27.0833 12.6062 27.3716 13.3024 27.3716 14.0283V25.2116C27.3716 26.7233 26.1462 27.9488 24.6345 27.9488H8.21174C6.70006 27.9488 5.47461 26.7233 5.47461 25.2116V8.78888Z" fill="#B0EF53"/>
<path d="M20.5288 27.9488V21.106H12.3174V27.9488M24.6345 27.9488H8.21174C6.70006 27.9488 5.47461 26.7233 5.47461 25.2116V8.78888C5.47461 7.27721 6.70006 6.05176 8.21174 6.05176H19.3951C20.121 6.05176 20.8172 6.34013 21.3305 6.85344L26.5699 12.0929C27.0833 12.6062 27.3716 13.3024 27.3716 14.0283V25.2116C27.3716 26.7233 26.1462 27.9488 24.6345 27.9488Z" stroke="#B0EF53" stroke-width="1.64228" stroke-linecap="round" stroke-linejoin="round"/>
<path d="M42.6855 16.1789C42.232 16.1789 41.8644 16.5465 41.8644 17C41.8644 17.4535 42.232 17.8211 42.6855 17.8211L42.6855 16.1789ZM57.2255 17.5806C57.5462 17.26 57.5462 16.74 57.2255 16.4194L51.9998 11.1937C51.6792 10.873 51.1592 10.873 50.8386 11.1937C50.5179 11.5144 50.5179 12.0343 50.8386 12.3549L55.4836 17L50.8386 21.6451C50.5179 21.9657 50.5179 22.4857 50.8386 22.8063C51.1592 23.127 51.6792 23.127 51.9998 22.8063L57.2255 17.5806ZM42.6855 17.8211L56.6449 17.8211L56.6449 16.1789L42.6855 16.1789L42.6855 17.8211Z" fill="#B0EF53"/>
<path opacity="0.15" d="M71.959 8.78946C71.959 8.03362 72.5717 7.4209 73.3275 7.4209H92.4874C93.2433 7.4209 93.856 8.03363 93.856 8.78946V21.1065C93.856 21.8624 93.2433 22.4751 92.4874 22.4751H73.3275C72.5717 22.4751 71.959 21.8624 71.959 21.1065V8.78946Z" fill="#B0EF53"/>
<path d="M82.9075 27.9494H88.3817M82.9075 27.9494H77.4332M82.9075 27.9494V22.4751M82.9075 22.4751H73.3275C72.5717 22.4751 71.959 21.8624 71.959 21.1065V8.78946C71.959 8.03362 72.5717 7.4209 73.3275 7.4209H92.4874C93.2433 7.4209 93.856 8.03363 93.856 8.78946V21.1065C93.856 21.8624 93.2433 22.4751 92.4874 22.4751H82.9075Z" stroke="#B0EF53" stroke-width="1.64228" stroke-linecap="round" stroke-linejoin="round"/>
</svg>
