<svg width="59" height="31" viewBox="0 0 59 31" fill="none" xmlns="http://www.w3.org/2000/svg">
<path d="M0.725098 27.792H2.63827V20.2397L5.60003 26.8259C5.94938 27.6199 6.42802 27.9051 7.36604 27.9051C8.30405 27.9051 8.76398 27.623 9.11389 26.8259L12.0759 20.2397V27.7948H13.9894V20.2522C13.9894 19.5163 13.6945 19.1605 13.0877 18.9767C11.6344 18.523 10.6593 18.9155 10.2181 19.8966L7.31159 26.3966L4.49642 19.8937C4.07336 18.9126 3.08005 18.5202 1.62681 18.9739C1.01943 19.1579 0.725098 19.5138 0.725098 20.2493V27.792ZM15.5796 21.6427H17.4922V25.8054C17.4743 26.0316 17.5648 26.5625 18.6128 26.5786C19.1476 26.5871 22.7397 26.5786 22.7732 26.5786V21.622H24.69C24.6985 21.622 24.6881 28.3804 24.6883 28.4093C24.6988 30.076 22.6201 30.4381 21.6622 30.4662H15.6213V29.1789L21.673 29.1786C22.9042 29.0481 22.759 28.4365 22.759 28.2304V27.7285H18.6928C16.8009 27.7114 15.5963 26.8854 15.5813 25.9355C15.5799 25.8505 15.6221 21.6836 15.5802 21.6424L15.5796 21.6427Z" fill="#6C6D6C"/>
<path d="M26.1636 27.7921H31.664C32.3077 27.7921 32.9335 27.6574 33.4306 27.4241C34.2586 27.0441 34.6632 26.5289 34.6632 25.8543V24.4563C34.6632 23.9042 34.2033 23.3893 33.3022 23.0459C32.8238 22.8616 32.2351 22.7638 31.6649 22.7638H29.3468C28.5744 22.7638 28.2063 22.5307 28.1145 22.0157C28.096 21.9545 28.096 21.9023 28.096 21.8439V20.9734C28.096 20.9243 28.096 20.875 28.1145 20.8137C28.2063 20.4213 28.4088 20.3107 29.0893 20.2466C29.1446 20.2466 29.2181 20.2341 29.2736 20.2341H34.7372V18.959H29.3655C28.5928 18.959 28.1882 19.008 27.8201 19.1183C26.6785 19.4742 26.1817 20.0413 26.1817 21.0224V22.1385C26.1817 22.9971 27.1572 23.733 28.7939 23.9045C28.9782 23.9167 29.1619 23.9289 29.3457 23.9289H31.3326C31.4063 23.9289 31.48 23.9289 31.535 23.9414C32.1418 23.9904 32.3999 24.1007 32.5836 24.3214C32.697 24.4348 32.7311 24.5425 32.7311 24.6616V25.7777C32.7311 25.9127 32.6392 26.0845 32.4552 26.2314C32.2896 26.3789 32.0137 26.4767 31.6456 26.5014C31.5719 26.5014 31.5169 26.5135 31.4434 26.5135H26.1636V27.789V27.7921ZM46.5979 25.5724C46.5979 26.8847 47.5728 27.6206 49.5413 27.7677C49.7249 27.7819 49.9089 27.7901 50.0931 27.7921H55.0786V26.5167H50.0562C48.9342 26.5167 48.5108 26.2345 48.5108 25.5599V18.9615H46.5976V25.5718L46.5979 25.5724ZM35.8837 25.6388V21.0919C35.8837 19.9367 36.6946 19.236 38.2985 19.0148C38.4695 18.9904 38.642 18.9781 38.8148 18.978H42.4463C42.6252 18.9781 42.8039 18.9904 42.9811 19.0148C44.5849 19.236 45.3959 19.9364 45.3959 21.0919V25.6388C45.3959 26.5759 45.0514 27.0775 44.2574 27.4045L46.142 29.1058H43.9206L42.3959 27.7294L40.861 27.8267H38.8148C38.4646 27.8267 38.096 27.7774 37.6902 27.6668C36.4709 27.335 35.8837 26.6959 35.8837 25.6388ZM37.9488 25.5253C37.9488 25.5869 37.9673 25.6481 37.9857 25.7221C38.0991 26.2507 38.5939 26.5456 39.3468 26.5456H41.085L39.4885 25.1043H41.7099L43.0994 26.3613C43.356 26.2246 43.5247 26.0153 43.5814 25.7468C43.5999 25.6856 43.5999 25.624 43.5999 25.5625V21.2028C43.5999 21.1537 43.5999 21.0894 43.5814 21.0307C43.468 20.5393 42.9729 20.2565 42.2357 20.2565H39.3502C38.4995 20.2565 37.9494 20.6252 37.9494 21.2028V25.5287L37.9488 25.5253Z" fill="#6C6D6C"/>
<path d="M56.762 16.8465C55.5861 16.8147 54.6875 16.9239 53.9196 17.2477C53.7013 17.3399 53.3533 17.3421 53.3176 17.6158C53.4376 17.7414 53.4566 17.9291 53.5515 18.0836C53.735 18.3805 54.0449 18.7784 54.3208 18.9865C54.6225 19.2142 54.9333 19.458 55.2574 19.6557C55.8331 20.0067 56.4756 20.2072 57.0297 20.5585C57.3563 20.7655 57.6807 21.0264 57.9994 21.2606C58.1568 21.3763 58.2632 21.5561 58.4673 21.6284V21.5949C58.3596 21.458 58.3321 21.2697 58.2334 21.1271L57.7987 20.6924C57.3733 20.1253 56.834 19.6327 56.2604 19.2207C55.803 18.8923 54.7791 18.4489 54.5882 17.9163L54.5548 17.8829C54.8792 17.846 55.2589 17.7289 55.5586 17.6489C56.0613 17.5143 56.5108 17.5489 57.0302 17.415L57.7326 17.2143V17.0804C57.47 16.811 57.2829 16.4546 56.9968 16.211C56.2482 15.573 55.4307 14.9364 54.5894 14.4048C54.1226 14.1099 53.5459 13.9187 53.0511 13.6689C52.8846 13.585 52.5923 13.5413 52.4825 13.4012C52.2228 13.07 52.0813 12.6498 51.8808 12.267C51.4612 11.4589 51.0489 10.5759 50.6768 9.72548C50.423 9.1456 50.2572 8.57366 49.9413 8.05333C48.4228 5.55688 46.7881 4.05006 44.2565 2.56931C43.7177 2.25456 43.0692 2.1298 42.3836 1.96732L41.28 1.9004C41.0554 1.80683 40.8218 1.53177 40.6108 1.3985C39.772 0.868247 37.6207 -0.283851 36.9994 1.22837C36.6072 2.18481 37.5855 3.118 37.9357 3.60288C38.1813 3.94315 38.496 4.32397 38.6713 4.70649C38.7867 4.95773 38.8068 5.20981 38.9055 5.47579C39.1485 6.12797 39.36 6.84339 39.6745 7.44879C39.8333 7.75503 40.0085 8.07772 40.2096 8.35164C40.3329 8.51979 40.5442 8.59379 40.5773 8.85353C40.3709 9.14276 40.359 9.59079 40.2427 9.95714C39.7201 11.6052 39.9172 13.6533 40.6774 14.8732C40.9108 15.2475 41.46 16.0505 42.2157 15.7426C42.8764 15.4732 42.7261 14.6395 42.9181 13.9034C42.9606 13.7361 42.9346 13.6142 43.0185 13.5022V13.5357L43.6205 14.7394C44.0657 15.4568 44.8568 16.2068 45.5266 16.7129C45.8739 16.9752 46.1504 17.4289 46.5967 17.5823V17.5489H46.5632C46.4762 17.4127 46.3401 17.3569 46.2287 17.2483C45.9669 16.9917 45.6757 16.6727 45.4594 16.3789C44.8497 15.5515 44.3115 14.6463 43.821 13.7035C43.5867 13.2535 43.3829 12.757 43.1858 12.2991C43.1098 12.1224 43.1106 11.8556 42.9519 11.764C42.7355 12.0997 42.4168 12.3708 42.2495 12.7672C41.9818 13.4007 41.9472 14.1731 41.8482 14.9744C41.7895 14.9954 41.8156 14.9809 41.7813 15.0079C41.3157 14.8956 41.1518 14.4161 40.9789 14.0047C40.541 12.964 40.4599 11.2893 40.845 10.0921C40.9443 9.78247 41.3951 8.80646 41.2128 8.52035C41.1257 8.23481 40.8385 8.06666 40.6777 7.85116C40.4792 7.58178 40.2802 7.22619 40.1426 6.91485C39.7842 6.10387 39.6169 5.19365 39.2398 4.37331C39.0594 3.98143 38.7549 3.58502 38.5042 3.23908C38.2269 2.85344 37.9164 2.56875 37.7018 2.10485C37.6252 1.93896 37.5214 1.67384 37.6348 1.50285C37.6457 1.45372 37.6703 1.40872 37.7059 1.37315C37.7415 1.33758 37.7865 1.31292 37.8356 1.30209C38.0296 1.15266 38.57 1.35171 38.7719 1.43593C39.3078 1.65881 39.7559 1.87091 40.2101 2.17176C40.4285 2.31354 40.6488 2.59597 40.9122 2.67366H41.2128C41.6835 2.78198 42.2109 2.70769 42.6504 2.84096C43.4279 3.07717 44.1244 3.44494 44.7573 3.84419C46.6849 5.06122 48.2606 6.79377 49.3387 8.86318C49.5123 9.19579 49.5871 9.51366 49.74 9.8664C50.0482 10.5753 50.4364 11.3106 50.7432 12.0064C51.0494 12.7011 51.3472 13.4015 51.7799 13.9794C52.0073 14.2828 52.8857 14.4462 53.2847 14.6146C53.5646 14.7328 54.0228 14.8562 54.2879 15.0158C54.7941 15.3212 55.2847 15.685 55.7596 16.0196C55.997 16.1869 56.7266 16.5536 56.7628 16.8556L56.762 16.8465Z" fill="#6C6D6C"/>
<path fill-rule="evenodd" clip-rule="evenodd" d="M41.8149 4.10604C41.5696 4.1015 41.3964 4.13269 41.2129 4.17296V4.20642H41.2463C41.3632 4.44687 41.5696 4.60141 41.7142 4.80841L42.0488 5.5105L42.0823 5.47704C42.2893 5.33101 42.3843 5.09764 42.3829 4.74121C42.2998 4.65387 42.2876 4.54442 42.2156 4.44007C42.12 4.30112 41.932 4.22229 41.8143 4.10547L41.8149 4.10604Z" fill="#6C6D6C"/>
<path fill-rule="evenodd" clip-rule="evenodd" d="M55.978 26.4811C55.978 27.3233 56.6435 27.891 57.3879 27.891C58.1322 27.891 58.7977 27.3233 58.7977 26.4811C58.7977 25.639 58.1322 25.0713 57.3879 25.0713C56.6435 25.0713 55.978 25.639 55.978 26.4811ZM58.4818 26.4811C58.4818 27.1203 57.9933 27.5978 57.3873 27.5978C56.7748 27.5978 56.2928 27.1203 56.2928 26.4811C56.2928 25.842 56.7743 25.3645 57.3873 25.3645C57.9927 25.3645 58.4818 25.842 58.4818 26.4811ZM57.7673 27.2859H58.0829L57.6207 26.5793C57.8688 26.5529 58.0565 26.4324 58.0565 26.1392C58.0565 25.8119 57.8495 25.677 57.4514 25.677H56.8233V27.2862H57.0941V26.5906H57.3459L57.767 27.2862L57.7673 27.2859ZM57.0941 26.3643V25.9021H57.406C57.5677 25.9021 57.7633 25.9322 57.7633 26.1205C57.7633 26.3459 57.5867 26.3649 57.3833 26.3649H57.0941V26.3643Z" fill="#6C6D6C"/>
</svg>
