<svg width="401" height="33" viewBox="0 0 401 33" fill="none" xmlns="http://www.w3.org/2000/svg">
<path fill-rule="evenodd" clip-rule="evenodd" d="M15.5224 25.9196C15.961 26.2824 16.4754 26.4371 17.0306 26.4657C17.2602 26.4777 17.4964 26.4664 17.7224 26.4253C18.0808 26.3602 18.4382 26.2784 18.7868 26.1734C19.4967 25.9592 20.1101 25.5891 20.5682 24.9913C20.8291 24.6505 21.0433 24.2821 21.1809 23.8748C21.2945 23.5386 21.4012 23.1991 21.4862 22.8552C21.5532 22.5842 21.5865 22.3044 21.6272 22.0275C21.6543 21.8444 21.6707 21.6593 21.6876 21.4745C21.715 21.1746 21.7437 20.8752 21.7635 20.5746C21.7775 20.3656 21.777 20.1555 21.7851 19.9462C21.7878 19.8823 21.798 19.8189 21.8042 19.7555C21.8093 19.6965 21.8392 19.6762 21.8994 19.6772C22.1109 19.6804 22.3229 19.6858 22.5341 19.6762C22.7709 19.6657 23.0093 19.6554 23.2423 19.6165C23.574 19.5609 23.903 19.4907 24.2284 19.4059C24.6122 19.3053 24.9645 19.1254 25.3038 18.9208C25.6984 18.6821 26.0588 18.4023 26.3503 18.0417C26.6047 17.7278 26.7251 17.3641 26.6637 16.9673C26.5746 16.3908 26.0901 16.013 25.5268 15.9873C25.3227 15.978 25.1156 15.9996 24.9124 16.0253C24.6663 16.0566 24.424 16.1119 24.1787 16.1484C24.0093 16.1739 23.8377 16.1851 23.6688 16.2028L23.6641 16.1807C23.9799 15.5841 24.3089 14.9944 24.6076 14.3898C24.837 13.9256 25.0328 13.4451 25.2353 12.9677C25.5706 12.1775 25.8382 11.3631 26.06 10.5349C26.2722 9.74226 26.4539 8.94103 26.5114 8.1185C26.5344 7.79023 26.5503 7.46048 26.5481 7.13172C26.5466 6.86929 26.5183 6.60662 26.4921 6.34518C26.4622 6.04554 26.3716 5.76158 26.2463 5.48838C26.0813 5.12804 25.825 4.83256 25.5555 4.55202C25.3398 4.3273 25.1023 4.12265 24.8671 3.918C24.5315 3.62619 24.154 3.3929 23.7623 3.18605C23.3183 2.95022 22.848 2.7678 22.3611 2.64259C22.0644 2.56779 21.7658 2.50077 21.4656 2.44161C21.3589 2.42007 21.2512 2.36523 21.1437 2.36523H19.1197C19.0465 2.36523 18.974 2.41322 18.9003 2.42129C18.4159 2.47417 17.9377 2.57294 17.4719 2.71628C17.2981 2.76989 17.1395 2.73855 16.9743 2.72313C16.8475 2.71138 16.7229 2.67882 16.5961 2.67246C16.1136 2.64847 15.6306 2.61371 15.1478 2.61885C14.6856 2.62374 14.2281 2.70012 13.7809 2.82693C13.4066 2.93366 13.0401 3.06316 12.7042 3.26022C12.5608 3.34443 12.4467 3.32852 12.2981 3.28592C11.7991 3.13973 11.2957 3.00878 10.7887 2.89327C10.4726 2.82252 10.1473 2.78678 9.82442 2.75349C9.51454 2.7213 9.20346 2.70194 8.89198 2.69547C8.58794 2.68886 8.28194 2.6891 7.97913 2.71603C7.49712 2.75887 7.02441 2.85679 6.56468 3.01493C6.0579 3.18819 5.58437 3.44656 5.16442 3.77895C4.73603 4.118 4.39233 4.53146 4.11644 5.00417C3.82537 5.50282 3.62537 6.03673 3.5015 6.59708C3.43418 6.90087 3.45891 7.21324 3.41264 7.52168C3.39844 7.61715 3.42708 7.71312 3.42708 7.80908V9.1518C3.42708 9.24091 3.40089 9.33026 3.41215 9.41986C3.43981 9.63503 3.43027 9.85193 3.46674 10.0656C3.52403 10.4039 3.57568 10.741 3.6452 11.0769C3.74239 11.5462 3.83517 12.015 3.94288 12.482C4.02121 12.8221 4.10616 13.1601 4.19943 13.4963C4.34141 14.0098 4.47997 14.5242 4.6408 15.0316C4.79037 15.5034 4.96075 15.9682 5.13089 16.4333C5.36401 17.0765 5.64976 17.6993 5.98524 18.2955C6.27777 18.8123 6.61143 19.2963 7.05941 19.6941C7.35489 19.9565 7.68316 20.158 8.06529 20.2588C8.3638 20.3381 8.67667 20.3468 8.97913 20.2843C9.32974 20.213 9.65729 20.0562 9.93262 19.8277C9.96494 19.8015 9.99994 19.7812 10.0384 19.8297C10.1838 20.0138 10.3782 20.1367 10.5816 20.2427C11.1304 20.5291 11.7285 20.615 12.3358 20.6498C12.4832 20.6581 12.6315 20.637 12.7796 20.6331C13.0687 20.625 13.3493 20.5687 13.6252 20.4889C13.7701 20.4471 13.9113 20.3937 14.0587 20.3443C14.0663 20.5012 14.0761 20.652 14.081 20.803L14.1013 21.6263C14.1052 21.7516 14.1101 21.8769 14.1216 22.0018C14.1515 22.3235 14.1806 22.6451 14.2191 22.9658C14.2455 23.1869 14.2734 23.4094 14.3253 23.6253C14.4296 24.0604 14.5723 24.4854 14.7517 24.8953C14.9235 25.2932 15.1877 25.6443 15.5224 25.9196ZM14.6433 21.8148C14.6259 21.4282 14.6129 21.0415 14.6044 20.6547C14.5941 20.1793 14.5907 19.7036 14.5841 19.2282L14.5828 19.2101C14.3412 19.3553 14.103 19.5139 13.8511 19.6449C13.5556 19.7984 13.235 19.8872 12.9028 19.9124C12.6425 19.932 12.3784 19.9499 12.1194 19.9293C11.6944 19.8948 11.2695 19.8285 10.8891 19.6189C10.7348 19.534 10.5738 19.4304 10.4673 19.2951C10.2124 18.9697 10.3346 18.5587 10.7189 18.3609C10.9845 18.2238 11.2744 18.1668 11.5623 18.1002C11.8128 18.0434 12.0608 17.9756 12.3055 17.897C12.5468 17.8179 12.6991 17.6221 12.8496 17.4299L13.0881 17.1234L12.8014 17.0936C12.517 17.0671 12.2455 16.9886 11.986 16.8735C11.7642 16.7753 11.7608 16.7646 11.5977 16.9413C11.326 17.2363 11.0616 17.5386 10.795 17.8387C10.599 18.0596 10.4043 18.2816 10.2088 18.5031C10.0159 18.7222 9.8347 18.9536 9.62638 19.1572C9.31744 19.4598 8.94486 19.6417 8.5003 19.6211C8.21511 19.6079 7.95416 19.508 7.71915 19.3447C7.23469 19.0074 6.90837 18.535 6.61094 18.0392C6.23028 17.4037 5.93775 16.7269 5.68781 16.0316C5.51473 15.5508 5.34068 15.0698 5.18988 14.5822C5.02562 14.0522 4.88144 13.5161 4.7397 12.9795C4.63248 12.5748 4.53749 12.1667 4.44692 11.7579C4.34265 11.2932 4.24618 10.8268 4.15757 10.3589C4.09857 10.0429 4.06454 9.72218 4.01681 9.40419C3.95242 8.97506 3.94067 8.5425 3.96417 8.11189C3.98498 7.72389 4.04055 7.3371 4.09588 6.95179C4.1725 6.41862 4.34826 5.91556 4.6009 5.4404C4.75674 5.15085 4.94774 4.88166 5.16957 4.63893C5.53432 4.23525 5.97569 3.9437 6.46676 3.7246C6.80972 3.5716 7.17227 3.4798 7.54167 3.40759C8.09002 3.30086 8.64326 3.30526 9.19651 3.31652C9.43837 3.32166 9.6795 3.36548 9.92112 3.38972C10.4416 3.44137 10.9515 3.55104 11.455 3.68593C11.8222 3.78434 12.1818 3.91212 12.5456 4.02277C12.5818 4.03379 12.6354 4.03281 12.6656 4.01347C13.1588 3.69131 13.6976 3.47883 14.2712 3.35716C14.4888 3.31114 14.7135 3.29082 14.9361 3.27662C15.2063 3.25973 15.4793 3.24357 15.749 3.25949C16.0734 3.27809 16.3968 3.32583 16.7192 3.36989C16.8759 3.39143 17.0286 3.44553 17.1853 3.46022C17.2607 3.46732 17.3402 3.41273 17.4196 3.39413C17.8245 3.30037 18.2276 3.19633 18.6362 3.12264C18.9403 3.06781 19.2511 3.04186 19.5601 3.02423C19.9052 3.0044 20.2524 2.98996 20.5971 3.00661C21.0328 3.02766 21.4654 3.08959 21.8923 3.18898C22.4215 3.31212 22.9288 3.49082 23.4113 3.73905C23.7719 3.92485 24.1143 4.13978 24.423 4.40417C24.6252 4.57773 24.8323 4.74884 25.0147 4.94223C25.2399 5.18067 25.4695 5.41886 25.611 5.72412C25.7175 5.95448 25.7934 6.19291 25.8145 6.44481C25.8404 6.7584 25.872 7.07297 25.8693 7.38704C25.8666 7.68717 25.8255 7.98705 25.7966 8.28668C25.7302 8.96918 25.5821 9.63699 25.4017 10.296C25.2512 10.8403 25.0806 11.3789 24.8903 11.9107C24.7168 12.401 24.5163 12.8823 24.3138 13.3619C24.1646 13.7169 24.0026 14.0665 23.8282 14.4098C23.4967 15.059 23.152 15.7016 22.7532 16.3136C22.6845 16.4192 22.6191 16.5274 22.552 16.6353C22.7261 16.7526 22.9231 16.7939 23.1214 16.8155C23.3102 16.8358 23.5026 16.8483 23.6911 16.8341C23.9929 16.8116 24.2938 16.7685 24.5939 16.7266C24.8911 16.685 25.1821 16.6005 25.4876 16.6228C25.7922 16.6451 26.0105 16.8767 25.9897 17.1621C25.9765 17.3428 25.8935 17.4977 25.7736 17.6302C25.2069 18.2554 24.4955 18.6343 23.6818 18.8211C23.3726 18.8921 23.0539 18.9286 22.7373 18.9582C22.467 18.9821 22.1955 18.9884 21.9244 18.9773C21.7256 18.97 21.5285 18.9244 21.3253 18.8951C21.3048 19.0809 21.2854 19.2745 21.2619 19.4674L21.1672 20.2074C21.1385 20.4419 21.1163 20.6774 21.0866 20.912C21.0578 21.1396 21.0218 21.3661 20.9914 21.5935C20.9633 21.8052 20.9425 22.0182 20.9106 22.2297C20.8624 22.5538 20.8161 22.8787 20.7527 23.2003C20.6769 23.5847 20.5608 23.9568 20.3706 24.3036C20.139 24.7269 19.8108 25.0493 19.3926 25.288C18.9618 25.534 18.4906 25.662 18.0134 25.7693C17.6751 25.8454 17.3273 25.8576 16.9848 25.8265C16.3912 25.7729 15.8844 25.5191 15.5013 25.0586C15.1358 24.6192 14.8883 24.1159 14.8 23.5457C14.7584 23.2745 14.726 23.0018 14.703 22.7284C14.6765 22.4243 14.6566 22.1197 14.6433 21.8148ZM15.3106 17.9092C15.3143 18.1124 15.2932 18.3156 15.2942 18.5188C15.2984 19.4645 15.3052 20.4104 15.3133 21.3563C15.3148 21.5107 15.3224 21.6657 15.3334 21.8199C15.3566 22.143 15.3796 22.4664 15.411 22.7886C15.4335 23.0175 15.4641 23.2456 15.5001 23.4728C15.5515 23.7942 15.6979 24.0806 15.8639 24.3546C16.0068 24.5901 16.1931 24.7898 16.4382 24.9279C16.8548 25.1622 17.303 25.1817 17.7549 25.0956C18.0602 25.0375 18.3603 24.9438 18.6565 24.8471C18.9481 24.7536 19.2142 24.5944 19.4345 24.3817C19.6423 24.1805 19.7897 23.935 19.8891 23.664C20.0817 23.1386 20.1422 22.5852 20.2218 22.0363C20.2516 21.8307 20.2776 21.6246 20.3048 21.4187C20.3358 21.1844 20.3672 20.9504 20.397 20.7161C20.4196 20.5413 20.4396 20.3668 20.4609 20.1922C20.4915 19.9416 20.5236 19.6911 20.5527 19.4405C20.575 19.2466 20.5936 19.052 20.6137 18.8576C20.6392 18.6091 20.6663 18.3614 20.6886 18.1124C20.7053 17.9239 20.6984 17.7318 20.7319 17.5465C20.7934 17.2069 20.954 16.9181 21.2551 16.731C21.3809 16.6532 21.5234 16.6018 21.6629 16.5357L21.6389 16.4992C21.5099 16.3318 21.3777 16.167 21.2512 15.9976C21.0524 15.7318 20.9094 15.4353 20.7657 15.1374C20.6296 14.8549 20.4631 14.5876 20.3199 14.3082C20.07 13.8211 19.8154 13.3352 19.5851 12.839C19.2955 12.2147 19.0673 11.5689 18.9956 10.8776C18.965 10.5853 18.9571 10.2931 19.0166 10.0035C19.1114 9.54079 19.3527 9.17897 19.7591 8.93075C20.1361 8.70064 20.5559 8.62622 20.986 8.60296C21.2529 8.58852 21.5214 8.60027 21.7983 8.60027L21.7892 8.55351C21.6169 8.19317 21.4561 7.8267 21.2673 7.47517C21.0015 6.97872 20.6607 6.53123 20.2817 6.1158C20.0021 5.80691 19.6948 5.52421 19.3638 5.27124C19.0362 5.02326 18.691 4.80172 18.3226 4.62081C17.885 4.40311 17.4227 4.23873 16.9459 4.13122C16.4844 4.02889 16.0205 3.96622 15.5471 3.96108C15.1437 3.95667 14.7427 3.97528 14.3495 4.0661C13.7561 4.20343 13.2134 4.44774 12.7417 4.84334C12.4804 5.06235 12.247 5.31261 12.0467 5.5885C11.81 5.91286 11.6195 6.26391 11.4565 6.63135C11.2328 7.13588 11.0793 7.66048 10.974 8.20002C10.9216 8.4693 10.8805 8.74029 10.8386 9.01129C10.8239 9.10651 10.823 9.20321 10.8141 9.31214L10.9933 9.21888L11.1681 9.14054C11.7598 8.87004 12.3725 8.69598 13.031 8.71581C13.3111 8.72414 13.5784 8.77971 13.8276 8.90235C14.305 9.13785 14.5841 9.53809 14.7055 10.0443C14.7892 10.3939 14.8467 10.7503 14.9025 11.106C14.9461 11.3836 14.9909 11.6642 14.9958 11.9442C15.0029 12.3535 14.9823 12.7638 14.9601 13.1729C14.941 13.5207 14.869 13.8636 14.7466 14.1898C14.5253 14.7812 14.2785 15.3631 14.0482 15.9511C13.9721 16.1455 13.9135 16.3464 13.8418 16.5602L14.1326 16.5604C14.1679 16.5611 14.2039 16.5621 14.2379 16.5702C14.5025 16.6326 14.7324 16.7526 14.9206 16.9562C15.1723 17.2265 15.304 17.5428 15.3106 17.9092ZM10.2562 15.1051C10.1062 14.7521 10.0158 14.3767 9.98844 13.9942C9.96298 13.6333 10.0058 13.2745 10.043 12.9151C10.0788 12.5672 10.1091 12.2177 10.1194 11.8686C10.1368 11.294 10.0981 10.721 10.0707 10.1469C10.0543 9.80517 10.0939 9.45927 10.1243 9.11679C10.1517 8.80835 10.186 8.49917 10.2445 8.19513C10.3422 7.68496 10.4722 7.18215 10.657 6.69475C10.832 6.23257 11.0337 5.78287 11.3177 5.37773C11.5128 5.09964 11.7336 4.8404 11.9459 4.56867L11.8827 4.54615C11.1916 4.32681 10.4891 4.15496 9.76616 4.0803C9.42466 4.0448 9.0817 4.02424 8.73923 4.00367C8.63396 3.99755 8.52723 4.01175 8.42172 4.02179C8.16052 4.047 7.89589 4.0568 7.63885 4.10576C7.2014 4.18899 6.78157 4.32901 6.39307 4.55692C6.04926 4.75923 5.74784 5.02615 5.50543 5.34297C5.23444 5.69328 5.05157 6.08936 4.9206 6.5114C4.76589 7.00956 4.69196 7.52242 4.67213 8.03968C4.65475 8.49329 4.64618 8.94935 4.72452 9.40125C4.78254 9.73736 4.82146 10.0774 4.8856 10.4125C4.97182 10.8695 5.06862 11.3243 5.17593 11.7768C5.33089 12.424 5.48609 13.0718 5.66993 13.7112C5.8457 14.3234 6.04374 14.9303 6.25917 15.53C6.43493 16.0194 6.63836 16.4997 6.85256 16.9734C6.99209 17.2821 7.16101 17.5793 7.33824 17.8681C7.52649 18.1751 7.74093 18.4664 8.03127 18.6892C8.39822 18.9702 8.68194 19.014 9.05502 18.7053C9.21463 18.5734 9.34951 18.4099 9.48856 18.2544C9.70912 18.0077 9.9221 17.7536 10.1419 17.5056C10.4217 17.19 10.705 16.8777 10.9862 16.5631C11.0457 16.4968 11.1033 16.4282 11.161 16.3611L11.0648 16.2772C10.718 15.9459 10.4428 15.5469 10.2562 15.1051ZM20.8661 5.70405C21.0962 5.97131 21.3144 6.24853 21.5202 6.5349C21.9146 7.08801 22.2321 7.69215 22.4639 8.33074C22.5667 8.61349 22.649 8.89892 22.6122 9.2081C22.5868 9.42475 22.5885 9.64434 22.5696 9.86221C22.5537 10.0434 22.5248 10.2235 22.5016 10.4042C22.4663 10.6764 22.4154 10.9481 22.4002 11.2216C22.3856 11.482 22.401 11.745 22.4174 12.0057C22.4338 12.2708 22.4695 12.5347 22.4938 12.7991C22.5212 13.0994 22.5584 13.3991 22.5667 13.6999C22.5736 13.9467 22.5515 14.1947 22.5302 14.4414C22.5029 14.7371 22.4311 15.0269 22.3173 15.3012C22.2382 15.4955 22.1439 15.6835 22.0551 15.8779L22.0908 15.9156L22.1452 15.9577L22.2002 15.8598C22.6625 15.1324 23.0732 14.3736 23.4294 13.5888C23.6577 13.0822 23.8743 12.5705 24.0791 12.0539C24.3983 11.2509 24.6561 10.4249 24.8504 9.58289C24.9386 9.20492 25.0061 8.82108 25.0659 8.43723C25.1126 8.13711 25.1513 7.83356 25.1601 7.53074C25.1692 7.20956 25.1515 6.88594 25.1219 6.56574C25.0996 6.32388 25.0399 6.08055 24.8886 5.88349C24.6448 5.56696 24.3819 5.26439 24.0585 5.02473C23.786 4.82326 23.5143 4.61592 23.2223 4.44652C22.7589 4.17748 22.2573 3.99878 21.7332 3.87687C21.2213 3.75765 20.7033 3.70624 20.1819 3.69523C19.8744 3.68862 19.5655 3.72167 19.2587 3.7508C18.9806 3.77675 18.7043 3.8213 18.4245 3.85802C18.7248 4.02693 19.0213 4.17724 19.3004 4.35423C19.8879 4.72632 20.4147 5.17406 20.8661 5.70405ZM13.2332 16.1234C13.423 15.5163 13.6817 14.9362 13.9321 14.353C14.1356 13.8799 14.2465 13.3817 14.2834 12.8696C14.3018 12.6172 14.2969 12.3616 14.2844 12.1085C14.2722 11.8269 14.2464 11.546 14.2071 11.2669C14.1544 10.9109 14.0947 10.5547 14.0105 10.2054C13.9192 9.82745 13.6891 9.56404 13.2944 9.46686C13.0543 9.40786 12.8154 9.41031 12.5723 9.44874C11.9791 9.54201 11.4362 9.76062 10.9304 10.0808C10.8286 10.1452 10.7723 10.1973 10.7902 10.343C10.8274 10.6524 10.8354 10.9667 10.834 11.2789C10.832 11.7207 10.8132 12.1626 10.7965 12.6042C10.7911 12.7479 10.7703 12.8914 10.7547 13.0346C10.7312 13.2539 10.6854 13.473 10.6868 13.6921C10.6883 13.9178 10.7113 14.1486 10.7662 14.3672C10.9402 15.0605 11.3084 15.6275 11.9123 16.0277C12.2837 16.274 12.6944 16.3979 13.1456 16.4216C13.1755 16.318 13.2031 16.2204 13.2332 16.1234ZM12.5243 10.1775C12.4448 10.0108 12.4903 9.87249 12.6744 9.80835C12.7194 9.79293 12.7654 9.77579 12.8119 9.77139C12.8763 9.76502 12.9412 9.76967 13.0061 9.76967C13.2399 9.77114 13.4646 9.8037 13.6572 9.95205C13.7811 10.0475 13.8144 10.1736 13.7341 10.3038C13.6203 10.4882 13.4472 10.5807 13.2342 10.5983C12.8991 10.626 12.6638 10.4698 12.5243 10.1775ZM21.8206 10.1166L21.8967 9.44948C21.9077 9.36037 21.8609 9.33589 21.786 9.33369C21.5503 9.32732 21.3148 9.31875 21.0791 9.31484C20.8137 9.30994 20.5549 9.35254 20.3092 9.45339C20.0365 9.56576 19.8289 9.74544 19.7439 10.0424C19.6818 10.2612 19.6622 10.4899 19.6862 10.7161C19.7193 11.0661 19.7986 11.4101 19.9219 11.7393C20.0869 12.1783 20.2592 12.6169 20.4656 13.0375C20.7449 13.6067 21.0607 14.1579 21.3574 14.7185C21.4365 14.8681 21.5035 15.0245 21.586 15.1991C21.7526 14.8518 21.8436 14.4732 21.8529 14.0882C21.8609 13.7697 21.8357 13.4505 21.8171 13.132C21.8056 12.9371 21.778 12.7432 21.7591 12.5489C21.7329 12.2781 21.6928 12.0071 21.6864 11.7357C21.6803 11.4595 21.6999 11.1819 21.7234 10.906C21.7454 10.6421 21.789 10.38 21.8206 10.1166ZM21.2896 9.9026C21.202 10.1442 21.0149 10.2808 20.7721 10.3207C20.5459 10.3582 20.3476 10.2747 20.2002 10.094C20.0952 9.96551 20.1354 9.81349 20.2928 9.72634C20.4734 9.62647 20.672 9.60125 20.9062 9.58607C20.9701 9.59758 21.0656 9.60762 21.1567 9.63332C21.2886 9.67053 21.3376 9.77041 21.2896 9.9026ZM14.2888 17.3452C14.1596 17.2395 13.9882 17.2334 13.8653 17.3494C13.7126 17.4938 13.5782 17.6588 13.4438 17.8214C13.2888 18.0094 13.1429 18.2047 12.9432 18.3504C12.6521 18.5621 12.3121 18.6498 11.9708 18.7327C11.6996 18.7988 11.4269 18.8603 11.1549 18.9234L11.1515 18.9587C11.2323 18.9959 11.3104 19.0427 11.3948 19.0693C11.8097 19.2006 12.232 19.2662 12.6707 19.229C12.987 19.2018 13.2886 19.1328 13.5743 18.9974C13.9676 18.8111 14.2705 18.5156 14.5277 18.1724C14.5708 18.1151 14.5904 18.0304 14.5953 17.9565C14.6127 17.6955 14.4803 17.5014 14.2888 17.3452ZM21.8641 17.2321C21.6607 17.3004 21.4952 17.4045 21.446 17.6245C21.4125 17.7734 21.4002 17.9274 21.3873 18.0799C21.3848 18.1068 21.4184 18.1562 21.4438 18.1631C21.6005 18.2045 21.7581 18.2532 21.9182 18.2676C22.1153 18.2855 22.3155 18.2799 22.5138 18.2701C22.7278 18.2593 22.9432 18.2454 23.1542 18.2101C23.6509 18.1264 24.132 17.9908 24.5589 17.7088C24.7131 17.6072 24.8654 17.5034 25.0186 17.4001L25.0059 17.3783C24.8426 17.4025 24.6798 17.4321 24.5158 17.4495C24.1819 17.4853 23.8477 17.523 23.5126 17.5423C23.3508 17.5516 23.1868 17.5205 23.0237 17.5073C22.7501 17.485 22.4827 17.4243 22.2514 17.2779C22.118 17.1937 22.0064 17.1844 21.8641 17.2321Z" fill="#6C6D6C"/>
<path d="M0.694336 26.6453C1.04582 26.5883 1.40143 26.5607 1.7575 26.5626C2.30462 26.5626 2.70585 26.6899 2.96044 26.919C3.19594 27.1227 3.33596 27.4346 3.33596 27.8167C3.33596 28.205 3.22115 28.5105 3.00475 28.7332C2.71197 29.0451 2.23461 29.2042 1.69361 29.2042C1.52812 29.2042 1.37537 29.1979 1.24832 29.166V30.8848H0.694336V26.6453ZM1.24832 28.7139C1.36925 28.7457 1.522 28.7585 1.70658 28.7585C2.37464 28.7585 2.78223 28.4338 2.78223 27.8419C2.78223 27.2755 2.38125 27.0018 1.77023 27.0018C1.52837 27.0018 1.34379 27.0209 1.24832 27.0463V28.7139ZM6.6902 29.3185C6.6902 30.4578 5.90072 30.9545 5.15605 30.9545C4.32226 30.9545 3.67942 30.3435 3.67942 29.3695C3.67942 28.3384 4.35408 27.7337 5.20696 27.7337C6.09191 27.7335 6.6902 28.3766 6.6902 29.3185ZM4.24613 29.3504C4.24613 30.025 4.63438 30.5342 5.18175 30.5342C5.71639 30.5342 6.11713 30.0314 6.11713 29.3376C6.11713 28.8157 5.85642 28.1538 5.19423 28.1538C4.53205 28.1538 4.24613 28.7648 4.24613 29.3504ZM7.32007 30.3115C7.48555 30.4197 7.77833 30.5342 8.05838 30.5342C8.46573 30.5342 8.65667 30.3305 8.65667 30.076C8.65667 29.8086 8.4978 29.6622 8.08384 29.5095C7.53011 29.3122 7.26915 29.0067 7.26915 28.6375C7.26915 28.1411 7.67013 27.7337 8.33207 27.7337C8.64394 27.7337 8.91787 27.8228 9.08972 27.9247L8.9497 28.332C8.76027 28.2153 8.54209 28.1536 8.31958 28.1538C7.98862 28.1538 7.80404 28.3447 7.80404 28.5739C7.80404 28.8285 7.98886 28.943 8.38984 29.0958C8.92448 29.2995 9.19817 29.5668 9.19817 30.025C9.19817 30.566 8.77809 30.9479 8.04614 30.9479C7.70881 30.9479 7.39694 30.8652 7.18053 30.7379L7.32007 30.3115ZM10.5918 26.9188V27.8035H11.3935V28.2299H10.5918V29.8911C10.5918 30.273 10.6998 30.4894 11.0119 30.4894C11.1213 30.491 11.2304 30.4782 11.3365 30.4512L11.3619 30.8713C11.254 30.9159 11.0819 30.9477 10.8657 30.9477C10.6048 30.9477 10.3945 30.8649 10.2608 30.7122C10.102 30.5467 10.0444 30.273 10.0444 29.9102V28.2299H9.56708V27.8035H10.0444V27.0652L10.5918 26.9188ZM14.6398 27.8037C14.6268 28.0265 14.6144 28.2747 14.6144 28.6502V30.4388C14.6144 31.1452 14.4743 31.578 14.1752 31.8456C13.876 32.1257 13.4432 32.2148 13.055 32.2148C12.6858 32.2148 12.2785 32.1257 12.03 31.9602L12.17 31.5337C12.3737 31.661 12.6919 31.7756 13.0738 31.7756C13.6467 31.7756 14.0667 31.4765 14.0667 30.7V30.3563H14.054C13.8822 30.6427 13.5512 30.8718 13.0738 30.8718C12.3101 30.8718 11.7627 30.2226 11.7627 29.3695C11.7627 28.3256 12.4437 27.7337 13.1502 27.7337C13.6851 27.7337 13.9779 28.0138 14.1115 28.2684H14.1243L14.1497 27.8037H14.6398ZM14.0606 29.0194C14.0606 28.9239 14.0542 28.8412 14.0288 28.7648C13.927 28.4402 13.6533 28.1729 13.2459 28.1729C12.711 28.1729 12.3294 28.6248 12.3294 29.3376C12.3294 29.9423 12.6349 30.4451 13.2396 30.4451C13.5833 30.4451 13.8951 30.2287 14.0161 29.8723C14.0479 29.7768 14.0609 29.6686 14.0609 29.5731L14.0606 29.0194ZM15.5052 28.7648C15.5052 28.402 15.4988 28.0901 15.4797 27.8037H15.97L15.9889 28.4084H16.0144C16.1544 27.9947 16.4917 27.7337 16.8672 27.7337C16.9309 27.7337 16.9752 27.7401 17.0261 27.7528V28.2811C16.9635 28.2675 16.8995 28.2611 16.8354 28.262C16.4408 28.262 16.1605 28.5611 16.0844 28.9812C16.0687 29.0673 16.0601 29.1546 16.0589 29.2422V30.8843H15.5052V28.7648ZM17.8349 29.4458C17.8477 30.2033 18.3311 30.5151 18.8912 30.5151C19.2925 30.5151 19.5341 30.4451 19.7441 30.356L19.8396 30.757C19.6423 30.8461 19.3049 30.9479 18.8149 30.9479C17.8665 30.9479 17.3 30.3242 17.3 29.3949C17.3 28.4657 17.8474 27.7335 18.7448 27.7335C19.7505 27.7335 20.0178 28.6182 20.0178 29.1846C20.0178 29.2992 20.0051 29.3883 19.9987 29.4456L17.8349 29.4458ZM19.477 29.0449C19.4832 28.6884 19.3304 28.1347 18.7005 28.1347C18.1341 28.1347 17.8858 28.6566 17.841 29.0449H19.477ZM20.6543 30.2096C20.9543 30.3899 21.2972 30.4865 21.6472 30.4897C22.2136 30.4897 22.5446 30.1905 22.5446 29.7577C22.5446 29.3567 22.3155 29.1276 21.7363 28.9048C21.0362 28.6566 20.6034 28.2938 20.6034 27.6892C20.6034 27.0209 21.1571 26.5244 21.9909 26.5244C22.4301 26.5244 22.7483 26.6262 22.9392 26.7345L22.7865 27.1863C22.5361 27.0517 22.2561 26.9817 21.9718 26.9827C21.3862 26.9827 21.1635 27.3327 21.1635 27.6255C21.1635 28.0265 21.4242 28.2238 22.0163 28.4529C22.7419 28.7332 23.1111 29.0831 23.1111 29.7132C23.1111 30.3751 22.621 30.9479 21.609 30.9479C21.1953 30.9479 20.7434 30.827 20.514 30.6742L20.6543 30.2096ZM27.4073 31.5144C26.854 31.3692 26.3063 31.2036 25.7652 31.0179C25.6761 30.9861 25.587 30.9543 25.5042 30.9543C24.4859 30.9161 23.6139 30.1651 23.6139 28.7839C23.6139 27.4091 24.4541 26.5244 25.6124 26.5244C26.7772 26.5244 27.5348 27.4282 27.5348 28.6948C27.5348 29.7959 27.0257 30.5024 26.3128 30.7506V30.7761C26.7393 30.8843 27.2039 30.9861 27.5667 31.0498L27.4073 31.5144ZM26.949 28.7203C26.949 27.861 26.5038 26.9761 25.5933 26.9761C24.6577 26.9761 24.1995 27.8417 24.2058 28.7712C24.1995 29.6813 24.7023 30.5024 25.5679 30.5024C26.4528 30.5024 26.949 29.7004 26.949 28.7203ZM28.2536 26.5944H28.8076V30.4197H30.6406V30.8843H28.2536V26.5944Z" fill="#6C6D6C"/>
<path d="M76.0812 15.8037C75.2036 15.8037 74.4899 16.0635 73.9428 16.5829C73.3956 17.1027 73.1181 17.7841 73.1181 18.619C73.1181 19.0517 73.187 19.4462 73.3228 19.8077C73.4586 20.1699 73.67 20.5055 73.9541 20.8087C74.2383 21.1121 74.807 21.5244 75.6547 22.0485C76.6948 22.6835 77.3755 23.1988 77.7022 23.6012C78.0291 24.0032 78.1913 24.4246 78.1913 24.8638C78.1913 25.4519 77.9977 25.9214 77.5998 26.2743C77.2012 26.6274 76.6682 26.8032 76.0073 26.8032C75.3103 26.8032 74.7031 26.5575 74.1816 26.0695C73.6602 25.5809 73.397 24.9345 73.3911 24.1244H73.0669V27.0649H73.3911C73.49 26.7864 73.627 26.644 73.8063 26.644C73.8925 26.644 74.0945 26.7034 74.4091 26.8146C75.1747 27.087 75.8032 27.2184 76.2974 27.2184C77.1489 27.2184 77.8757 26.9202 78.4813 26.3141C79.086 25.7083 79.3913 24.9776 79.3913 24.1244C79.3913 23.4629 79.1898 22.8744 78.7942 22.3613C78.3985 21.8477 77.6291 21.2502 76.4794 20.5641C75.49 19.9697 74.8477 19.4855 74.5513 19.1081C74.2544 18.7312 74.102 18.3144 74.102 17.8569C74.102 17.3621 74.2838 16.9646 74.6423 16.6682C75.0009 16.3715 75.4706 16.2246 76.0585 16.2246C76.7201 16.2246 77.2715 16.4209 77.7078 16.8161C78.1437 17.2119 78.3958 17.7605 78.47 18.4654H78.7942V15.9175H78.4927C78.4559 16.0474 78.4217 16.1304 78.3903 16.1677C78.3599 16.2048 78.3012 16.2246 78.214 16.2246C78.1092 16.2246 77.9222 16.1804 77.6567 16.0938C77.0879 15.9022 76.5635 15.8037 76.0812 15.8037ZM86.677 15.8037C85.6075 15.8037 84.6365 16.0558 83.7593 16.5601C82.8807 17.0636 82.1852 17.7627 81.672 18.6531C81.159 19.5435 80.9042 20.4891 80.9042 21.4968C80.9042 22.8507 81.3474 24.0569 82.2407 25.1141C83.1346 26.1706 84.2056 26.8289 85.4485 27.0819C85.7326 27.23 86.1391 27.6122 86.6713 28.2308C87.2709 28.9289 87.7783 29.4324 88.1955 29.7323C88.6123 30.0323 89.0623 30.2521 89.5377 30.3977C90.0137 30.5426 90.5283 30.6138 91.0847 30.6138C91.7586 30.6138 92.3619 30.4967 92.8933 30.2555L92.7739 29.9598C92.4654 30.071 92.1364 30.1247 91.79 30.1247C91.3197 30.1247 90.8445 29.9696 90.3681 29.6583C89.8924 29.3462 89.2975 28.7508 88.5879 27.8725C88.2544 27.4516 88.0242 27.1861 87.8941 27.0819C89.2538 26.8164 90.372 26.1574 91.244 25.1027C92.1157 24.0485 92.5521 22.8453 92.5521 21.4968C92.5521 19.8957 91.9824 18.5501 90.8515 17.4531C89.7197 16.3559 88.3279 15.8037 86.677 15.8037ZM93.2914 15.8037L93.3085 16.1506C94.0206 16.1506 94.4194 16.3604 94.5086 16.782C94.5418 16.9328 94.557 17.2113 94.5597 17.6123L94.5541 25.2847C94.5481 25.8577 94.4665 26.2236 94.3095 26.3824C94.1523 26.54 93.8866 26.6387 93.5019 26.6781L93.4848 27.025H100.583L100.765 25.2847H100.441C100.348 25.7588 100.136 26.0984 99.7979 26.2914C99.4592 26.4857 98.8602 26.5814 97.995 26.5814H97.3239C96.5454 26.5814 96.0949 26.3 95.9759 25.734C95.9514 25.622 95.9429 25.502 95.9418 25.37L95.9702 17.6123C95.9701 17.0402 96.0424 16.6568 96.1921 16.4691C96.3433 16.2821 96.6161 16.1775 97.011 16.1506L96.994 15.8037H93.2914ZM86.7907 16.2246C87.9969 16.2246 88.9817 16.6996 89.7425 17.6578C90.503 18.6163 90.88 19.93 90.88 21.5935C90.88 23.1698 90.4975 24.432 89.7311 25.3814C88.9647 26.3304 87.9446 26.8032 86.677 26.8032C85.4592 26.8032 84.4716 26.3157 83.7138 25.3359C82.9567 24.356 82.582 23.0839 82.582 21.5196C82.582 19.9121 82.9612 18.6253 83.7252 17.6635C84.4886 16.7027 85.511 16.2246 86.7907 16.2246ZM103.114 17.8739C102.941 17.8739 102.809 17.9324 102.71 18.0503C102.609 18.1676 102.578 18.3098 102.613 18.4825C102.647 18.65 102.742 18.7968 102.892 18.9204C103.041 19.0439 103.202 19.1081 103.375 19.1081C103.543 19.1081 103.67 19.0439 103.762 18.9204C103.854 18.7968 103.882 18.65 103.847 18.4825C103.812 18.3098 103.721 18.1676 103.58 18.0503C103.438 17.9324 103.281 17.8739 103.114 17.8739ZM107.794 19.0512C107.5 20.1829 106.863 20.7952 105.883 20.894L105.895 21.2182H107.038L107.015 25.0515C107.017 25.7069 107.037 26.1432 107.084 26.3653C107.196 26.897 107.543 27.1672 108.124 27.1672C108.965 27.1672 109.847 26.6552 110.769 25.6316L110.49 25.3927C109.824 26.0668 109.236 26.4051 108.721 26.4051C108.405 26.4051 108.21 26.2234 108.136 25.8648C108.115 25.7777 108.107 25.676 108.107 25.5577L108.119 21.2182H109.865L109.848 20.7006H108.124V19.0512H107.794ZM114.545 20.4959C113.569 20.4959 112.774 20.97 112.157 21.912C111.542 22.8557 111.352 23.9012 111.594 25.0515C111.736 25.7253 112.019 26.2475 112.452 26.6155C112.885 26.9835 113.434 27.1672 114.09 27.1672C114.701 27.1672 115.552 27.0125 115.91 26.7009C116.269 26.3894 116.6 25.8848 116.906 25.1937L116.661 24.9377C116.174 25.8343 115.19 26.2857 114.449 26.2857C113.429 26.2857 112.805 25.7263 112.572 24.6136C112.542 24.4715 112.519 24.319 112.504 24.1586C113.717 23.9665 114.636 23.6264 115.256 23.1348C115.876 22.643 116.499 22.1216 116.382 21.5708C116.313 21.2435 116.143 20.9861 115.882 20.7916C115.617 20.5972 114.93 20.4959 114.545 20.4959ZM103.87 20.5357L101.766 21.0191V21.3945L102.494 21.3035C102.846 21.3035 103.054 21.4632 103.119 21.7812C103.141 21.8877 103.155 22.0372 103.159 22.2248L103.136 25.6657C103.131 26.1419 103.078 26.4187 102.971 26.5018C102.864 26.5851 102.582 26.6269 102.124 26.6269L102.113 26.9511H105.451L105.446 26.6269C104.982 26.6269 104.681 26.5903 104.547 26.5189C104.415 26.4479 104.324 26.3186 104.285 26.1207C104.255 25.9781 104.242 25.7324 104.24 25.3927L104.251 20.5357H103.87ZM114.011 21.1727C114.214 21.1727 114.41 21.2511 114.608 21.4058C114.803 21.56 114.922 21.7315 114.961 21.9177C115.151 22.8325 114.34 23.4649 112.515 23.8173C112.463 23.1503 112.578 22.5447 112.873 21.9973C113.166 21.4505 113.547 21.1727 114.011 21.1727Z" fill="#6C6D6C"/>
<path d="M71.3665 2.66699H53.2566C52.0429 2.66699 51.0498 3.66025 51.0498 4.87395V24.8458C51.0498 26.0594 52.0429 27.0525 53.2566 27.0525H65.1843C65.0489 21.1177 67.0756 9.60007 71.3665 2.66699Z" fill="white" fill-opacity="0.5"/>
<path d="M75.5909 2.01272C74.3506 0.906628 72.8489 1.35093 71.3667 2.66632C71.1467 2.86174 70.9272 3.07855 70.7088 3.31014C68.1733 5.99985 65.8199 10.982 65.0887 14.787C65.3735 15.3646 65.596 16.1017 65.7425 16.6647C65.7801 16.8092 65.8139 16.9448 65.841 17.0601C65.9054 17.3331 65.94 17.5101 65.94 17.5101C65.94 17.5101 65.9172 17.4241 65.824 17.1536C65.8062 17.1017 65.7864 17.0451 65.763 16.9784C65.753 16.9509 65.7391 16.9175 65.7239 16.8818C65.5585 16.4973 65.101 15.6858 64.8996 15.3325C64.7274 15.8405 64.5752 16.3157 64.4478 16.7457C65.0291 17.8092 65.3833 19.6318 65.3833 19.6318C65.3833 19.6318 65.3526 19.5137 65.2065 19.1014C65.0769 18.7368 64.431 17.6052 64.278 17.3406C64.0163 18.3068 63.9123 18.9591 64.0061 19.1179C64.1881 19.4256 64.3615 19.9566 64.5138 20.5438C64.8578 21.8667 65.0969 23.4771 65.0969 23.4771C65.0969 23.4771 65.1046 23.5838 65.1176 23.7481C65.0698 24.859 65.0985 26.0108 65.1845 27.0519C65.2984 28.43 65.513 29.6139 65.7864 30.2475L65.9721 30.1463C65.5705 28.898 65.4074 27.262 65.4788 25.3754C65.5869 22.4916 66.2505 19.0139 67.4767 15.3891C69.5483 9.91736 72.4225 5.52711 75.0531 3.43049C72.6555 5.59581 69.4105 12.6048 68.439 15.2003C67.3514 18.1068 66.5806 20.8343 66.1161 23.4475C66.9175 20.9977 69.509 19.9446 69.509 19.9446C69.509 19.9446 70.78 18.3771 72.2653 16.1376C71.3756 16.3405 69.9146 16.6879 69.4253 16.8936C68.7034 17.1964 68.5089 17.2997 68.5089 17.2997C68.5089 17.2997 70.8471 15.8758 72.8532 15.231C75.6121 10.8858 78.6178 4.71289 75.5909 2.01272Z" fill="#6C6D6C"/>
<path d="M138.725 28.792H140.638V21.2397L143.6 27.8259C143.949 28.6199 144.428 28.9051 145.366 28.9051C146.304 28.9051 146.764 28.623 147.114 27.8259L150.076 21.2397V28.7948H151.989V21.2522C151.989 20.5163 151.694 20.1605 151.088 19.9767C149.634 19.523 148.659 19.9155 148.218 20.8966L145.312 27.3966L142.496 20.8937C142.073 19.9126 141.08 19.5202 139.627 19.9739C139.019 20.1579 138.725 20.5138 138.725 21.2493V28.792ZM153.58 22.6427H155.492V26.8054C155.474 27.0316 155.565 27.5625 156.613 27.5786C157.148 27.5871 160.74 27.5786 160.773 27.5786V22.622H162.69C162.699 22.622 162.688 29.3804 162.688 29.4093C162.699 31.076 160.62 31.4381 159.662 31.4662H153.621V30.1789L159.673 30.1786C160.904 30.0481 160.759 29.4365 160.759 29.2304V28.7285H156.693C154.801 28.7114 153.596 27.8854 153.581 26.9355C153.58 26.8505 153.622 22.6836 153.58 22.6424L153.58 22.6427Z" fill="#6C6D6C"/>
<path d="M164.164 28.7921H169.664C170.308 28.7921 170.934 28.6574 171.431 28.4241C172.259 28.0441 172.663 27.5289 172.663 26.8543V25.4563C172.663 24.9042 172.203 24.3893 171.302 24.0459C170.824 23.8616 170.235 23.7638 169.665 23.7638H167.347C166.574 23.7638 166.206 23.5307 166.114 23.0157C166.096 22.9545 166.096 22.9023 166.096 22.8439V21.9734C166.096 21.9243 166.096 21.875 166.114 21.8137C166.206 21.4213 166.409 21.3107 167.089 21.2466C167.145 21.2466 167.218 21.2341 167.274 21.2341H172.737V19.959H167.366C166.593 19.959 166.188 20.008 165.82 20.1183C164.679 20.4742 164.182 21.0413 164.182 22.0224V23.1385C164.182 23.9971 165.157 24.733 166.794 24.9045C166.978 24.9167 167.162 24.9289 167.346 24.9289H169.333C169.406 24.9289 169.48 24.9289 169.535 24.9414C170.142 24.9904 170.4 25.1007 170.584 25.3214C170.697 25.4348 170.731 25.5425 170.731 25.6616V26.7777C170.731 26.9127 170.639 27.0845 170.455 27.2314C170.29 27.3789 170.014 27.4767 169.646 27.5014C169.572 27.5014 169.517 27.5135 169.443 27.5135H164.164V28.789V28.7921ZM184.598 26.5724C184.598 27.8847 185.573 28.6206 187.541 28.7677C187.725 28.7819 187.909 28.7901 188.093 28.7921H193.079V27.5167H188.056C186.934 27.5167 186.511 27.2345 186.511 26.5599V19.9615H184.598V26.5718L184.598 26.5724ZM173.884 26.6388V22.0919C173.884 20.9367 174.695 20.236 176.298 20.0148C176.469 19.9904 176.642 19.9781 176.815 19.978H180.446C180.625 19.9781 180.804 19.9904 180.981 20.0148C182.585 20.236 183.396 20.9364 183.396 22.0919V26.6388C183.396 27.5759 183.051 28.0775 182.257 28.4045L184.142 30.1058H181.921L180.396 28.7294L178.861 28.8267H176.815C176.465 28.8267 176.096 28.7774 175.69 28.6668C174.471 28.335 173.884 27.6959 173.884 26.6388ZM175.949 26.5253C175.949 26.5869 175.967 26.6481 175.986 26.7221C176.099 27.2507 176.594 27.5456 177.347 27.5456H179.085L177.489 26.1043H179.71L181.099 27.3613C181.356 27.2246 181.525 27.0153 181.581 26.7468C181.6 26.6856 181.6 26.624 181.6 26.5625V22.2028C181.6 22.1537 181.6 22.0894 181.581 22.0307C181.468 21.5393 180.973 21.2565 180.236 21.2565H177.35C176.499 21.2565 175.949 21.6252 175.949 22.2028V26.5287L175.949 26.5253Z" fill="#6C6D6C"/>
<path d="M194.762 17.8465C193.586 17.8147 192.687 17.9239 191.92 18.2477C191.701 18.3399 191.353 18.3421 191.318 18.6158C191.438 18.7414 191.457 18.9291 191.552 19.0836C191.735 19.3805 192.045 19.7784 192.321 19.9865C192.623 20.2142 192.933 20.458 193.257 20.6557C193.833 21.0067 194.476 21.2072 195.03 21.5585C195.356 21.7655 195.681 22.0264 195.999 22.2606C196.157 22.3763 196.263 22.5561 196.467 22.6284V22.5949C196.36 22.458 196.332 22.2697 196.233 22.1271L195.799 21.6924C195.373 21.1253 194.834 20.6327 194.26 20.2207C193.803 19.8923 192.779 19.4489 192.588 18.9163L192.555 18.8829C192.879 18.846 193.259 18.7289 193.559 18.6489C194.061 18.5143 194.511 18.5489 195.03 18.415L195.733 18.2143V18.0804C195.47 17.811 195.283 17.4546 194.997 17.211C194.248 16.573 193.431 15.9364 192.589 15.4048C192.123 15.1099 191.546 14.9187 191.051 14.6689C190.885 14.585 190.592 14.5413 190.483 14.4012C190.223 14.07 190.081 13.6498 189.881 13.267C189.461 12.4589 189.049 11.5759 188.677 10.7255C188.423 10.1456 188.257 9.57366 187.941 9.05333C186.423 6.55688 184.788 5.05006 182.257 3.56931C181.718 3.25456 181.069 3.1298 180.384 2.96732L179.28 2.9004C179.055 2.80683 178.822 2.53177 178.611 2.3985C177.772 1.86825 175.621 0.716149 174.999 2.22837C174.607 3.18481 175.586 4.118 175.936 4.60288C176.181 4.94315 176.496 5.32397 176.671 5.70649C176.787 5.95773 176.807 6.20981 176.905 6.47579C177.148 7.12797 177.36 7.84339 177.674 8.44879C177.833 8.75503 178.009 9.07772 178.21 9.35164C178.333 9.51979 178.544 9.59379 178.577 9.85353C178.371 10.1428 178.359 10.5908 178.243 10.9571C177.72 12.6052 177.917 14.6533 178.677 15.8732C178.911 16.2475 179.46 17.0505 180.216 16.7426C180.876 16.4732 180.726 15.6395 180.918 14.9034C180.961 14.7361 180.935 14.6142 181.018 14.5022V14.5357L181.62 15.7394C182.066 16.4568 182.857 17.2068 183.527 17.7129C183.874 17.9752 184.15 18.4289 184.597 18.5823V18.5489H184.563C184.476 18.4127 184.34 18.3569 184.229 18.2483C183.967 17.9917 183.676 17.6727 183.459 17.3789C182.85 16.5515 182.312 15.6463 181.821 14.7035C181.587 14.2535 181.383 13.757 181.186 13.2991C181.11 13.1224 181.111 12.8556 180.952 12.764C180.735 13.0997 180.417 13.3708 180.249 13.7672C179.982 14.4007 179.947 15.1731 179.848 15.9744C179.79 15.9954 179.816 15.9809 179.781 16.0079C179.316 15.8956 179.152 15.4161 178.979 15.0047C178.541 13.964 178.46 12.2893 178.845 11.0921C178.944 10.7825 179.395 9.80646 179.213 9.52035C179.126 9.23481 178.838 9.06666 178.678 8.85116C178.479 8.58178 178.28 8.22619 178.143 7.91485C177.784 7.10387 177.617 6.19365 177.24 5.37331C177.059 4.98143 176.755 4.58502 176.504 4.23908C176.227 3.85344 175.916 3.56875 175.702 3.10485C175.625 2.93896 175.521 2.67384 175.635 2.50285C175.646 2.45372 175.67 2.40872 175.706 2.37315C175.741 2.33758 175.786 2.31292 175.836 2.30209C176.03 2.15266 176.57 2.35171 176.772 2.43593C177.308 2.65881 177.756 2.87091 178.21 3.17176C178.428 3.31354 178.649 3.59597 178.912 3.67366H179.213C179.683 3.78198 180.211 3.70769 180.65 3.84096C181.428 4.07717 182.124 4.44494 182.757 4.84419C184.685 6.06122 186.261 7.79377 187.339 9.86318C187.512 10.1958 187.587 10.5137 187.74 10.8664C188.048 11.5753 188.436 12.3106 188.743 13.0064C189.049 13.7011 189.347 14.4015 189.78 14.9794C190.007 15.2828 190.886 15.4462 191.285 15.6146C191.565 15.7328 192.023 15.8562 192.288 16.0158C192.794 16.3212 193.285 16.685 193.76 17.0196C193.997 17.1869 194.727 17.5536 194.763 17.8556L194.762 17.8465Z" fill="#6C6D6C"/>
<path fill-rule="evenodd" clip-rule="evenodd" d="M179.815 5.10604C179.57 5.1015 179.396 5.13269 179.213 5.17296V5.20642H179.246C179.363 5.44687 179.57 5.60141 179.714 5.80841L180.049 6.5105L180.082 6.47704C180.289 6.33101 180.384 6.09764 180.383 5.74121C180.3 5.65387 180.288 5.54442 180.216 5.44007C180.12 5.30112 179.932 5.22229 179.814 5.10547L179.815 5.10604Z" fill="#6C6D6C"/>
<path fill-rule="evenodd" clip-rule="evenodd" d="M193.978 27.4811C193.978 28.3233 194.644 28.891 195.388 28.891C196.132 28.891 196.798 28.3233 196.798 27.4811C196.798 26.639 196.132 26.0713 195.388 26.0713C194.644 26.0713 193.978 26.639 193.978 27.4811ZM196.482 27.4811C196.482 28.1203 195.993 28.5978 195.387 28.5978C194.775 28.5978 194.293 28.1203 194.293 27.4811C194.293 26.842 194.774 26.3645 195.387 26.3645C195.993 26.3645 196.482 26.842 196.482 27.4811ZM195.767 28.2859H196.083L195.621 27.5793C195.869 27.5529 196.057 27.4324 196.057 27.1392C196.057 26.8119 195.85 26.677 195.451 26.677H194.823V28.2862H195.094V27.5906H195.346L195.767 28.2862L195.767 28.2859ZM195.094 27.3643V26.9021H195.406C195.568 26.9021 195.763 26.9322 195.763 27.1205C195.763 27.3459 195.587 27.3649 195.383 27.3649H195.094V27.3643Z" fill="#6C6D6C"/>
<path d="M229.614 18.3904C229.862 18.3904 229.986 18.7082 229.986 19.3437C229.959 19.7955 229.814 20.2325 229.566 20.6112C229.263 21.1169 228.883 21.5717 228.438 21.9579C227.975 22.3659 227.456 22.7043 226.897 22.963C226.38 23.2141 225.815 23.3485 225.241 23.3569C224.51 23.3569 224.021 22.7145 223.772 21.4296C223.415 22.0148 222.929 22.5108 222.352 22.8801C221.648 23.2927 220.839 23.4909 220.024 23.45C219.591 23.4688 219.158 23.397 218.754 23.2395C218.35 23.0818 217.982 22.842 217.676 22.5347C217.388 22.2467 217.163 21.9021 217.013 21.5232C216.864 21.1442 216.794 20.7387 216.807 20.3314C216.807 17.9828 217.586 16.1317 219.145 14.7777C219.682 14.2856 220.311 13.9052 220.997 13.6588C221.583 13.4769 222.193 13.3863 222.807 13.3892C223.345 13.3719 223.879 13.4907 224.359 13.7345C224.552 13.3342 224.772 13.1338 225.021 13.1338C225.281 13.1424 225.537 13.2027 225.774 13.311C226.01 13.4196 226.223 13.574 226.4 13.7657C226.762 14.0549 226.995 14.4758 227.048 14.9367C226.8 15.4995 226.517 16.0461 226.2 16.5737C226.073 17.4589 226.017 18.3527 226.035 19.247C226.035 20.3981 226.179 20.9738 226.469 20.9738C226.828 20.9738 227.697 20.2554 229.076 18.8187C229.324 18.5332 229.504 18.3904 229.614 18.3904ZM219.848 19.6474C219.848 20.7111 220.241 21.2431 221.028 21.2431C221.869 21.2293 222.565 20.7804 223.117 19.8962C223.329 19.5484 223.49 19.1713 223.593 18.777C223.57 17.4389 223.709 16.1031 224.007 14.7983C222.89 15.0193 221.87 15.5846 221.09 16.4147C220.678 16.8436 220.356 17.3506 220.143 17.9056C219.93 18.4607 219.83 19.0531 219.848 19.6474Z" fill="#6C6D6C"/>
<path d="M238.739 17.0082C238.739 16.5477 238.477 16.3176 237.953 16.3176C237.594 16.3176 237.194 16.6628 236.753 17.3535C236.314 18.0451 235.992 18.8049 235.801 19.6021V19.6434C235.804 20.1347 235.877 20.6231 236.018 21.0941C236.131 21.4293 236.204 21.7775 236.235 22.13C236.235 22.5905 235.649 23.0511 234.477 23.5116C234.326 23.5746 234.164 23.6097 234.001 23.6152C233.839 23.6196 233.68 23.5685 233.55 23.4707C233.42 23.3728 233.328 23.2341 233.287 23.0764C233.139 22.6039 233.073 22.1101 233.091 21.6155C233.091 21.0006 233.108 20.4249 233.142 19.8887C233.177 19.352 233.211 18.8481 233.246 18.3759C233.28 17.9155 233.315 17.5078 233.349 17.1531C233.384 16.7988 233.401 16.5121 233.401 16.2933C233.401 15.8327 233.187 15.6027 232.76 15.6027C232.332 15.6027 231.835 16.1034 231.27 17.1049C230.704 18.1063 230.422 18.9009 230.422 19.4879C230.416 20.0379 230.49 20.5854 230.639 21.1148C230.752 21.4503 230.825 21.7981 230.856 22.1507C230.856 22.6112 230.27 23.0717 229.097 23.5322C228.946 23.5953 228.785 23.6305 228.622 23.6359C228.459 23.6399 228.301 23.5884 228.171 23.4905C228.042 23.3931 227.949 23.2544 227.908 23.0971C227.753 22.5587 227.687 21.9988 227.711 21.4394C227.678 20.0194 227.754 18.5995 227.939 17.1911C228.151 15.8915 228.63 14.6494 229.346 13.544C229.421 13.3874 229.534 13.252 229.675 13.1508C229.816 13.0494 229.98 12.9849 230.153 12.9639C230.612 12.9639 231.033 13.3371 231.415 14.0828C231.515 14.2541 231.598 14.4345 231.663 14.6216C231.928 14.245 232.277 13.9363 232.684 13.7204C233.09 13.5041 233.541 13.3871 234.001 13.3784C234.586 13.3754 235.152 13.5852 235.594 13.969C235.814 14.1469 235.991 14.3726 236.111 14.6295C236.23 14.8864 236.289 15.1672 236.284 15.4506V15.6784C236.638 15.1918 237.101 14.7954 237.637 14.5219C238.173 14.2483 238.765 14.1049 239.367 14.1037C239.674 14.0817 239.982 14.1219 240.274 14.2215C240.565 14.3212 240.834 14.4784 241.063 14.6838C241.252 14.8701 241.401 15.0929 241.501 15.3389C241.6 15.5846 241.648 15.8483 241.643 16.1136C241.647 16.6274 241.605 17.1408 241.518 17.6473C241.436 18.1078 241.343 18.5357 241.239 18.9318C241.136 19.3278 241.042 19.6836 240.96 19.9992C240.889 20.2351 240.847 20.4785 240.836 20.7245C240.836 20.897 240.891 20.9837 241.001 20.9837C241.294 20.9431 241.564 20.8043 241.767 20.5898C242.07 20.3271 242.374 20.0405 242.677 19.7296L243.515 18.8698C243.779 18.6003 243.958 18.4658 244.049 18.4658C244.242 18.4658 244.339 18.6959 244.339 19.1564C244.339 20.1235 243.853 21.063 242.88 21.9746C242.066 22.8231 240.952 23.3189 239.777 23.3562C238.784 23.3562 238.287 22.4514 238.287 20.6416C238.308 20.0076 238.384 19.3764 238.515 18.7557C238.638 18.1807 238.713 17.5959 238.739 17.0082Z" fill="#6C6D6C"/>
<path d="M250.119 21.5324C249.654 22.1306 249.06 22.6153 248.381 22.9491C247.701 23.2831 246.955 23.4578 246.198 23.4596C244.674 23.4596 243.532 23.0694 242.774 22.2886C242.399 21.9052 242.107 21.449 241.915 20.9487C241.723 20.4479 241.635 19.9132 241.657 19.3773C241.613 17.8146 242.168 16.2946 243.208 15.1293C243.72 14.5449 244.354 14.0819 245.066 13.7739C245.779 13.4655 246.551 13.3198 247.325 13.3471C247.959 13.3239 248.591 13.4224 249.188 13.6373C250.002 13.9687 250.409 14.2797 250.409 14.5695C250.409 14.8 249.839 14.9152 248.702 14.9152C248.17 14.9054 247.643 15.0051 247.151 15.2083C246.66 15.4116 246.216 15.7138 245.846 16.0964C245.466 16.4856 245.168 16.9478 244.971 17.4551C244.774 17.9627 244.681 18.5048 244.698 19.0489C244.68 19.6207 244.876 20.1787 245.246 20.6135C245.443 20.8291 245.686 20.9973 245.956 21.1059C246.226 21.215 246.518 21.2613 246.808 21.2422C247.391 21.2636 247.969 21.12 248.474 20.8276C248 20.5171 247.615 20.0882 247.358 19.583C247.1 19.0776 246.978 18.5142 247.005 17.9475C246.995 17.2725 247.252 16.621 247.719 16.134C247.954 15.8674 248.244 15.6554 248.569 15.5123C248.894 15.3692 249.247 15.2985 249.602 15.3054C250.367 15.3054 250.915 15.516 251.246 15.9374C251.593 16.4145 251.768 16.9953 251.743 17.5848C251.729 18.3178 251.567 19.0403 251.267 19.7087H251.391C251.972 19.704 252.53 19.4798 252.953 19.0801C253.119 18.9146 253.26 18.7693 253.377 18.6449C253.419 18.5924 253.472 18.5489 253.531 18.5168C253.59 18.4848 253.655 18.4649 253.722 18.4583C253.916 18.4583 254.012 18.6889 254.012 19.1493C254.038 19.5012 253.985 19.8544 253.856 20.1827C253.727 20.5109 253.526 20.806 253.267 21.0454C252.815 21.4396 252.235 21.6566 251.636 21.6566C251.127 21.6642 250.619 21.6226 250.119 21.5324ZM249.932 19.1149C250.154 18.6628 250.272 18.1675 250.277 17.6642C250.277 17.2037 250.126 16.9736 249.822 16.9736C249.698 16.9736 249.595 17.0634 249.512 17.2428C249.434 17.4044 249.391 17.5812 249.388 17.7609C249.38 18.0142 249.425 18.266 249.519 18.5015C249.612 18.7367 249.753 18.95 249.932 19.1287V19.1149Z" fill="#6C6D6C"/>
<path d="M296.984 23.4568C298.127 23.4568 299.053 22.5289 299.053 21.3846C299.053 20.24 298.127 19.3125 296.984 19.3125C295.841 19.3125 294.915 20.24 294.915 21.3846C294.915 22.5289 295.841 23.4568 296.984 23.4568Z" fill="#6C6D6C"/>
<path d="M275.643 18.769C275.873 18.769 275.988 19.0867 275.988 19.7222C275.954 20.1708 275.805 20.603 275.553 20.9759C275.251 21.4821 274.871 21.9364 274.426 22.323C273.964 22.7313 273.444 23.0698 272.885 23.3281C272.388 23.5727 271.845 23.7071 271.291 23.7216C270.872 23.7451 270.454 23.6441 270.091 23.4317C269.796 23.235 269.558 22.9632 269.402 22.6441C269.172 22.1836 268.979 21.2893 268.823 19.9606C268.737 19.0298 268.585 18.1066 268.367 17.1975C268.023 17.1355 267.7 16.9895 267.426 16.7729C267.298 16.6823 267.194 16.562 267.122 16.4225C267.051 16.283 267.014 16.1283 267.016 15.9714C267.004 15.8265 267.039 15.6812 267.116 15.5573C267.192 15.4334 267.305 15.3366 267.44 15.2808C267.744 15.1381 268.076 15.0675 268.412 15.0735C268.758 15.0685 269.099 15.162 269.395 15.3432C269.774 15.0388 270.093 14.6664 270.336 14.2445C270.596 13.6956 270.715 13.0902 270.681 12.4832C270.695 12.1514 270.636 11.8202 270.507 11.5137C270.378 11.2075 270.183 10.9337 269.936 10.7115C269.46 10.2673 268.739 10.0448 267.771 10.0448C267.029 10.0202 266.288 10.097 265.567 10.2727C265.116 10.402 264.677 10.5683 264.253 10.7702C263.888 10.9499 263.564 11.1155 263.281 11.2677C263.038 11.4087 262.764 11.4869 262.484 11.4956C262.236 11.4956 262.112 11.4163 262.112 11.2572C262.172 10.9681 262.308 10.6999 262.505 10.48C262.831 10.0633 263.222 9.70174 263.664 9.40928C264.934 8.51255 266.455 8.04224 268.009 8.06617C269.397 8.01864 270.774 8.33642 272.002 8.98832C272.581 9.2999 273.06 9.76797 273.386 10.3398C273.711 10.9115 273.87 11.5633 273.843 12.221C273.895 13.288 273.565 14.3388 272.912 15.1841C272.298 15.9577 271.481 16.5457 270.553 16.8834C270.766 17.3573 270.936 17.8497 271.06 18.3548C271.191 18.8794 271.319 19.3632 271.443 19.8052C271.543 20.186 271.685 20.5545 271.867 20.9034C271.914 21.0226 271.993 21.1266 272.095 21.2034C272.198 21.2802 272.319 21.327 272.447 21.3385C272.76 21.3002 273.051 21.1581 273.274 20.9346C273.598 20.6654 273.919 20.3715 274.236 20.0538C274.553 19.736 274.836 19.4426 275.085 19.1733C275.347 18.9038 275.533 18.769 275.643 18.769ZM266.643 11.309C266.823 11.309 266.912 11.5394 266.912 11.9999C266.913 12.4431 266.886 12.8862 266.829 13.326C266.715 14.0808 266.556 14.8279 266.353 15.5642C265.857 17.4428 265.608 18.541 265.608 18.8588V21.9049C265.638 22.2165 265.573 22.5295 265.421 22.8034C265.27 23.077 265.039 23.2984 264.76 23.4387L264.005 23.7839C263.748 23.8977 263.469 23.9543 263.188 23.9495C262.608 23.9495 262.319 23.2831 262.319 21.9499C262.387 20.232 262.7 18.5327 263.25 16.9041C263.696 15.2797 264.35 13.7195 265.195 12.2622C265.364 12.0209 265.566 11.8046 265.795 11.6198C266.031 11.4173 266.332 11.3072 266.643 11.309Z" fill="#6C6D6C"/>
<path d="M293.457 18.7698C293.687 18.7698 293.802 19.0876 293.802 19.723C293.766 20.1724 293.614 20.6043 293.361 20.9767C293.059 21.4829 292.678 21.9372 292.233 22.3239C291.771 22.7318 291.252 23.0702 290.692 23.3286C290.132 23.5902 289.52 23.7246 288.902 23.7225C288.627 23.7373 288.353 23.6902 288.098 23.584C287.844 23.4786 287.617 23.3167 287.433 23.1112C287.091 22.7329 286.903 22.2402 286.905 21.7297C286.916 21.1517 286.999 20.5771 287.154 20.0202C287.329 19.3937 287.512 18.7354 287.706 18.0444C288.23 16.2024 288.499 14.9111 288.512 14.1693C288.525 13.9182 288.483 13.6672 288.389 13.4338C288.345 13.3471 288.276 13.2762 288.191 13.2298C288.106 13.1834 288.009 13.1642 287.912 13.1747C287.499 13.1747 287.057 13.4233 286.588 13.9208C286.065 14.495 285.62 15.136 285.264 15.8273C284.365 17.4129 283.848 19.1868 283.754 21.0079L283.837 21.5879C283.865 21.7941 283.879 22.0017 283.878 22.2097C283.868 22.4478 283.804 22.6808 283.691 22.8909C283.578 23.1007 283.419 23.2823 283.226 23.4221C282.823 23.7764 282.304 23.9713 281.768 23.971C281.62 23.971 281.475 23.9265 281.352 23.8435C281.229 23.7605 281.134 23.6423 281.078 23.5051C280.916 23.1438 280.838 22.7507 280.85 22.3547C280.878 21.7227 280.982 21.0967 281.161 20.4898C281.368 19.7024 281.597 18.8666 281.85 17.9825C282.512 15.6477 282.85 13.907 282.864 12.7602C282.886 12.2899 282.812 11.82 282.647 11.3786C282.577 11.2178 282.459 11.0831 282.309 10.9936C282.158 10.9044 281.983 10.8648 281.809 10.8816C281.064 10.8816 280.326 11.4135 279.595 12.4772C278.864 13.541 278.209 15.1918 277.63 17.4299C277.478 18.01 277.363 18.5144 277.285 18.9426L277.264 19.3361C277.459 20.1535 277.59 20.9851 277.657 21.8227C277.657 22.6243 277.374 23.1631 276.809 23.4391L276.053 23.7847C275.81 23.8956 275.545 23.9522 275.278 23.9504C274.588 23.9504 274.243 23.2909 274.243 21.9713C274.243 20.6521 274.599 18.0767 275.312 14.2454C275.574 12.8638 275.705 12.0902 275.705 11.9247C275.705 10.8055 275.423 10.2461 274.857 10.2461C274.668 10.2446 274.484 10.3026 274.33 10.4116C274.171 10.5222 274.012 10.6373 273.853 10.7573C273.695 10.8768 273.531 11.0037 273.361 11.137C273.192 11.2486 272.994 11.3062 272.791 11.3029C272.578 11.3029 272.471 11.1164 272.471 10.7435C272.471 10.3678 272.569 9.99888 272.754 9.67213C272.939 9.34527 273.205 9.07214 273.526 8.87827C274.243 8.36192 275.109 8.0953 275.991 8.11848C277.233 8.11848 277.964 8.69423 278.185 9.84528C278.24 10.1906 278.281 10.5569 278.309 10.9436C279.33 9.03262 280.619 8.07715 282.178 8.07715C283.886 8.07715 284.855 8.89205 285.085 10.5222C285.17 11.0218 285.205 11.5287 285.188 12.0352V12.2008C286.085 10.9577 287.147 10.3359 288.375 10.3359C290.113 10.3359 290.982 11.3859 290.982 13.4856C290.96 14.5654 290.818 15.6393 290.557 16.6871C290.275 17.91 290.068 18.7872 289.937 19.3191C289.825 19.7213 289.759 20.1347 289.74 20.552C289.74 21.0767 289.923 21.3394 290.289 21.3394C290.654 21.3394 291.526 20.6209 292.906 19.1842C293.163 18.9078 293.347 18.7698 293.457 18.7698Z" fill="#6C6D6C"/>
<path d="M263.987 16.0169C264.332 16.0169 264.511 16.3623 264.511 17.0148C264.493 17.7539 264.336 18.4826 264.049 19.163C263.718 19.9728 263.251 20.7203 262.67 21.3736C262.011 22.1207 261.218 22.737 260.332 23.1903C259.292 23.7135 258.139 23.9719 256.976 23.9432C255.726 23.9581 254.517 23.4964 253.593 22.6515C252.626 21.7881 252.141 20.5435 252.141 18.918C252.125 17.4162 252.357 15.922 252.831 14.4973C253.239 13.2647 253.847 12.1085 254.631 11.0744C255.32 10.1632 256.184 9.39974 257.173 8.82944C257.995 8.32976 258.932 8.05332 259.893 8.02832C261.386 8.02832 262.132 8.69389 262.132 10.0247C262.162 10.6632 262.017 11.2975 261.711 11.8584C261.43 12.319 261.145 12.5491 260.855 12.5491C260.663 12.5491 260.473 12.5081 260.298 12.4292C260.123 12.3498 259.966 12.2342 259.838 12.09C259.718 11.9502 259.571 11.836 259.405 11.7541C259.24 11.6723 259.06 11.6244 258.876 11.6132C258.532 11.6132 257.58 11.5752 256.776 12.8704C256.461 13.2995 256.227 13.7832 256.087 14.297C255.615 15.5071 255.381 16.797 255.397 18.096C255.522 19.0318 256.009 19.8811 256.752 20.4615C257.193 20.7684 257.727 20.9126 258.262 20.8692C259.213 20.7637 260.089 20.3022 260.714 19.5775C261.183 19.0731 261.597 18.5966 262.042 18.0822C262.487 17.5677 262.88 17.0945 263.218 16.6593C263.556 16.2241 263.811 16.0169 263.987 16.0169Z" fill="#6C6D6C"/>
<g clip-path="url(#clip0_239_5799)">
<path d="M341.467 15.878L328.501 13.5898V30.4967C328.501 31.2688 329.127 31.8947 329.899 31.8947H352.272C353.044 31.8947 353.67 31.2688 353.67 30.4967V24.2677L341.467 15.878Z" fill="white" fill-opacity="0.15"/>
<path d="M341.467 1.38574H329.899C329.127 1.38574 328.501 2.01166 328.501 2.78378V9.01279L341.467 16.6398L348.331 18.9279L353.67 16.6398V9.01279L341.467 1.38574Z" fill="#444544"/>
<path d="M328.501 9.01367H341.467V16.6407H328.501V9.01367Z" fill="#2D2E2D"/>
<path opacity="0.2" d="M337.018 8.25098H328.501V27.3186H337.018C337.789 27.3161 338.414 26.6916 338.416 25.9206V9.64901C338.414 8.87794 337.789 8.25348 337.018 8.25098Z" fill="#6C6D6C"/>
<path opacity="0.2" d="M336.255 8.25098H328.501V25.7932H336.255C337.026 25.7907 337.651 25.1662 337.653 24.3951V9.64901C337.651 8.87794 337.026 8.25348 336.255 8.25098Z" fill="#6C6D6C"/>
<path d="M322.272 8.25098H336.255C337.028 8.25098 337.654 8.8769 337.654 9.64901V23.6324C337.654 24.4045 337.028 25.0305 336.255 25.0305H322.272C321.5 25.0305 320.874 24.4046 320.874 23.6324V9.64901C320.874 8.8769 321.5 8.25098 322.272 8.25098Z" fill="#6C6D6C"/>
<path d="M325.203 21.1849L328.144 16.6277L325.449 12.0957H327.617L329.088 14.994C329.223 15.2693 329.316 15.4737 329.367 15.6087H329.386C329.482 15.3891 329.584 15.1758 329.691 14.9688L331.263 12.0972H333.253L330.489 16.6025L333.323 21.1848H331.206L329.507 18.0036C329.427 17.8683 329.359 17.7261 329.304 17.5788H329.279C329.229 17.7231 329.163 17.8613 329.082 17.9907L327.333 21.1849H325.203Z" fill="white"/>
<path d="M352.272 1.38574H341.467V9.01279H353.67V2.78378C353.67 2.01166 353.044 1.38574 352.272 1.38574Z" fill="#515151"/>
<path d="M341.467 16.6396H353.67V24.2667H341.467V16.6396Z" fill="#2D2E2D"/>
</g>
<path d="M398.623 11.9528H397.913V8.52973C397.913 8.50823 397.91 8.48689 397.907 8.46507C397.906 8.32929 397.863 8.19567 397.77 8.09006L392.074 1.58386C392.072 1.58203 392.07 1.58149 392.069 1.57982C392.035 1.54173 391.996 1.51021 391.954 1.48305C391.941 1.47459 391.929 1.46764 391.916 1.46047C391.88 1.44081 391.841 1.42427 391.802 1.41236C391.791 1.40956 391.781 1.40514 391.771 1.40223C391.728 1.3921 391.683 1.38574 391.638 1.38574H377.639C377 1.38574 376.481 1.90563 376.481 2.54428V11.9525H375.772C374.857 11.9525 374.116 12.6936 374.116 13.6082V22.2188C374.116 23.1329 374.857 23.8749 375.772 23.8749H376.481V29.7693C376.481 30.408 377 30.9278 377.639 30.9278H396.755C397.393 30.9278 397.913 30.408 397.913 29.7693V23.8749H398.623C399.537 23.8749 400.278 23.1333 400.278 22.2191V13.6085C400.278 12.6937 399.537 11.9528 398.623 11.9528ZM377.639 2.54428H391.058V8.47143C391.058 8.79148 391.318 9.05069 391.638 9.05069H396.755V11.9527H377.639V2.54428ZM386.36 18.26C384.923 17.7594 383.986 16.964 383.986 15.7066C383.986 14.2301 385.218 13.1005 387.259 13.1005C388.234 13.1005 388.953 13.3059 389.466 13.5374L389.03 15.116C388.684 14.9486 388.068 14.7048 387.22 14.7048C386.373 14.7048 385.963 15.09 385.963 15.5392C385.963 16.0913 386.45 16.3349 387.567 16.7586C389.094 17.3232 389.813 18.1185 389.813 19.3381C389.813 20.7879 388.697 22.0205 386.322 22.0205C385.334 22.0205 384.358 21.7632 383.871 21.4941L384.268 19.8769C384.795 20.147 385.603 20.416 386.438 20.416C387.336 20.416 387.811 20.0438 387.811 19.4787C387.811 18.9393 387.4 18.6316 386.36 18.26ZM376.169 17.6949C376.169 14.7433 378.275 13.1005 380.892 13.1005C381.906 13.1005 382.676 13.3059 383.023 13.4857L382.625 15.0384C382.227 14.8722 381.675 14.7184 380.982 14.7184C379.429 14.7184 378.223 15.6545 378.223 17.5793C378.223 19.312 379.249 20.4027 380.995 20.4027C381.585 20.4027 382.24 20.2745 382.625 20.1204L382.92 21.6477C382.561 21.8277 381.752 22.0205 380.7 22.0205C377.71 22.0206 376.169 20.1589 376.169 17.6949ZM396.755 29.4553H377.639V23.8749H396.755V29.4553ZM395.461 21.8917H393.176L390.404 13.2419H392.548L393.6 16.9001C393.895 17.9263 394.165 18.9144 394.37 19.9926H394.409C394.627 18.9529 394.896 17.9262 395.191 16.938L396.295 13.2419H398.375L395.461 21.8917Z" fill="#6C6D6C"/>
<defs>
<clipPath id="clip0_239_5799">
<rect width="31.4199" height="29.2278" fill="white" transform="translate(320.875 1.38574)"/>
</clipPath>
</defs>
</svg>
