<svg width="66" height="30" viewBox="0 0 66 30" fill="none" xmlns="http://www.w3.org/2000/svg">
<g id="Logo">
<path id="SQLite" d="M25.0812 14.8037C24.2036 14.8037 23.4899 15.0635 22.9428 15.5829C22.3956 16.1027 22.1181 16.7841 22.1181 17.619C22.1181 18.0517 22.187 18.4462 22.3228 18.8077C22.4586 19.1699 22.67 19.5055 22.9541 19.8087C23.2383 20.1121 23.807 20.5244 24.6547 21.0485C25.6948 21.6835 26.3755 22.1988 26.7022 22.6012C27.0291 23.0032 27.1913 23.4246 27.1913 23.8638C27.1913 24.4519 26.9977 24.9214 26.5998 25.2743C26.2012 25.6274 25.6682 25.8032 25.0073 25.8032C24.3103 25.8032 23.7031 25.5575 23.1816 25.0695C22.6602 24.5809 22.397 23.9345 22.3911 23.1244H22.0669V26.0649H22.3911C22.49 25.7864 22.627 25.644 22.8063 25.644C22.8925 25.644 23.0945 25.7034 23.4091 25.8146C24.1747 26.087 24.8032 26.2184 25.2974 26.2184C26.1489 26.2184 26.8757 25.9202 27.4813 25.3141C28.086 24.7083 28.3913 23.9776 28.3913 23.1244C28.3913 22.4629 28.1898 21.8744 27.7942 21.3613C27.3985 20.8477 26.6291 20.2502 25.4794 19.5641C24.49 18.9697 23.8477 18.4855 23.5513 18.1081C23.2544 17.7312 23.102 17.3144 23.102 16.8569C23.102 16.3621 23.2838 15.9646 23.6423 15.6682C24.0009 15.3715 24.4706 15.2246 25.0585 15.2246C25.7201 15.2246 26.2715 15.4209 26.7078 15.8161C27.1437 16.2119 27.3958 16.7605 27.47 17.4654H27.7942V14.9175H27.4927C27.4559 15.0474 27.4217 15.1304 27.3903 15.1677C27.3599 15.2048 27.3012 15.2246 27.214 15.2246C27.1092 15.2246 26.9222 15.1804 26.6567 15.0938C26.0879 14.9022 25.5635 14.8037 25.0812 14.8037ZM35.677 14.8037C34.6075 14.8037 33.6365 15.0558 32.7593 15.5601C31.8807 16.0636 31.1852 16.7627 30.672 17.6531C30.159 18.5435 29.9042 19.4891 29.9042 20.4968C29.9042 21.8507 30.3474 23.0569 31.2407 24.1141C32.1346 25.1706 33.2056 25.8289 34.4485 26.0819C34.7326 26.23 35.1391 26.6122 35.6713 27.2308C36.2709 27.9289 36.7783 28.4324 37.1955 28.7323C37.6123 29.0323 38.0623 29.2521 38.5377 29.3977C39.0137 29.5426 39.5283 29.6138 40.0847 29.6138C40.7586 29.6138 41.3619 29.4967 41.8933 29.2555L41.7739 28.9598C41.4654 29.071 41.1364 29.1247 40.79 29.1247C40.3197 29.1247 39.8445 28.9696 39.3681 28.6583C38.8924 28.3462 38.2975 27.7508 37.5879 26.8725C37.2544 26.4516 37.0242 26.1861 36.8941 26.0819C38.2538 25.8164 39.372 25.1574 40.244 24.1027C41.1157 23.0485 41.5521 21.8453 41.5521 20.4968C41.5521 18.8957 40.9824 17.5501 39.8515 16.4531C38.7197 15.3559 37.3279 14.8037 35.677 14.8037ZM42.2914 14.8037L42.3085 15.1506C43.0206 15.1506 43.4194 15.3604 43.5086 15.782C43.5418 15.9328 43.557 16.2113 43.5597 16.6123L43.5541 24.2847C43.5481 24.8577 43.4665 25.2236 43.3095 25.3824C43.1523 25.54 42.8866 25.6387 42.5019 25.6781L42.4848 26.025H49.5828L49.7648 24.2847H49.4406C49.348 24.7588 49.1357 25.0984 48.7979 25.2914C48.4592 25.4857 47.8602 25.5814 46.995 25.5814H46.3239C45.5454 25.5814 45.0949 25.3 44.9759 24.734C44.9514 24.622 44.9429 24.502 44.9418 24.37L44.9702 16.6123C44.9701 16.0402 45.0424 15.6568 45.1921 15.4691C45.3433 15.2821 45.6161 15.1775 46.011 15.1506L45.994 14.8037H42.2914ZM35.7907 15.2246C36.9969 15.2246 37.9817 15.6996 38.7425 16.6578C39.503 17.6163 39.88 18.93 39.88 20.5935C39.88 22.1698 39.4975 23.432 38.7311 24.3814C37.9647 25.3304 36.9446 25.8032 35.677 25.8032C34.4592 25.8032 33.4716 25.3157 32.7138 24.3359C31.9567 23.356 31.582 22.0839 31.582 20.5196C31.582 18.9121 31.9612 17.6253 32.7252 16.6635C33.4886 15.7027 34.511 15.2246 35.7907 15.2246ZM52.1137 16.8739C51.9405 16.8739 51.8086 16.9324 51.7099 17.0503C51.6088 17.1676 51.5779 17.3098 51.6132 17.4825C51.6473 17.65 51.7417 17.7968 51.8919 17.9204C52.0411 18.0439 52.2022 18.1081 52.3753 18.1081C52.5427 18.1081 52.6704 18.0439 52.762 17.9204C52.8537 17.7968 52.8817 17.65 52.8473 17.4825C52.8121 17.3098 52.7209 17.1676 52.58 17.0503C52.4376 16.9324 52.2811 16.8739 52.1137 16.8739ZM56.7944 18.0512C56.5003 19.1829 55.8626 19.7952 54.8835 19.894L54.8948 20.2182H56.038L56.0153 24.0515C56.0171 24.7069 56.0371 25.1432 56.0835 25.3653C56.1961 25.897 56.5433 26.1672 57.1243 26.1672C57.9649 26.1672 58.8467 25.6552 59.769 24.6316L59.4903 24.3927C58.8244 25.0668 58.2356 25.4051 57.7215 25.4051C57.4055 25.4051 57.2096 25.2234 57.1357 24.8648C57.1154 24.7777 57.1072 24.676 57.1072 24.5577L57.1186 20.2182H58.8647L58.8476 19.7006H57.1243V18.0512H56.7944ZM63.5454 19.4959C62.5688 19.4959 61.7744 19.97 61.1567 20.912C60.5422 21.8557 60.352 22.9012 60.5936 24.0515C60.7358 24.7253 61.0191 25.2475 61.4524 25.6155C61.8852 25.9835 62.4341 26.1672 63.0904 26.1672C63.7015 26.1672 64.5523 26.0125 64.9104 25.7009C65.2694 25.3894 65.6002 24.8848 65.9057 24.1937L65.6612 23.9377C65.1739 24.8343 64.1904 25.2857 63.4487 25.2857C62.4291 25.2857 61.8046 24.7263 61.5719 23.6136C61.5416 23.4715 61.5191 23.319 61.5036 23.1586C62.7167 22.9665 63.636 22.6264 64.2564 22.1348C64.8763 21.643 65.4987 21.1216 65.3825 20.5708C65.3133 20.2435 65.1434 19.9861 64.882 19.7916C64.6172 19.5972 63.9297 19.4959 63.5454 19.4959ZM52.8701 19.5357L50.7657 20.0191V20.3945L51.4937 20.3035C51.8464 20.3035 52.0538 20.4632 52.1194 20.7812C52.1414 20.8877 52.1553 21.0372 52.1592 21.2248L52.1364 24.6657C52.1305 25.1419 52.0777 25.4187 51.9715 25.5018C51.8643 25.5851 51.5818 25.6269 51.1241 25.6269L51.1127 25.9511H54.4512L54.4455 25.6269C53.9817 25.6269 53.6809 25.5903 53.5469 25.5189C53.4152 25.4479 53.3244 25.3186 53.2853 25.1207C53.255 24.9781 53.2418 24.7324 53.2398 24.3927L53.2512 19.5357H52.8701ZM63.0108 20.1727C63.214 20.1727 63.4103 20.2511 63.608 20.4058C63.803 20.56 63.9217 20.7315 63.9606 20.9177C64.151 21.8325 63.34 22.4649 61.515 22.8173C61.4629 22.1503 61.5785 21.5447 61.8733 20.9973C62.1659 20.4505 62.5469 20.1727 63.0108 20.1727Z" fill="#6C6D6C"/>
<path id="solid-background" d="M20.3665 1.66699H2.25662C1.04288 1.66699 0.0498047 2.66025 0.0498047 3.87395V23.8458C0.0498047 25.0594 1.04288 26.0525 2.25662 26.0525H14.1843C14.0489 20.1177 16.0756 8.60007 20.3665 1.66699Z" fill="white" fill-opacity="0.5"/>
<path id="feather" d="M24.5909 1.01272C23.3506 -0.0933723 21.8489 0.350931 20.3667 1.66632C20.1467 1.86174 19.9272 2.07855 19.7088 2.31014C17.1733 4.99985 14.8199 9.98205 14.0887 13.787C14.3735 14.3646 14.596 15.1017 14.7425 15.6647C14.7801 15.8092 14.8139 15.9448 14.841 16.0601C14.9054 16.3331 14.94 16.5101 14.94 16.5101C14.94 16.5101 14.9172 16.4241 14.824 16.1536C14.8062 16.1017 14.7864 16.0451 14.763 15.9784C14.753 15.9509 14.7391 15.9175 14.7239 15.8818C14.5585 15.4973 14.101 14.6858 13.8996 14.3325C13.7274 14.8405 13.5752 15.3157 13.4478 15.7457C14.0291 16.8092 14.3833 18.6318 14.3833 18.6318C14.3833 18.6318 14.3526 18.5137 14.2065 18.1014C14.0769 17.7368 13.431 16.6052 13.278 16.3406C13.0163 17.3068 12.9123 17.9591 13.0061 18.1179C13.1881 18.4256 13.3615 18.9566 13.5138 19.5438C13.8578 20.8667 14.0969 22.4771 14.0969 22.4771C14.0969 22.4771 14.1046 22.5838 14.1176 22.7481C14.0698 23.859 14.0985 25.0108 14.1845 26.0519C14.2984 27.43 14.513 28.6139 14.7864 29.2475L14.9721 29.1463C14.5705 27.898 14.4074 26.262 14.4788 24.3754C14.5869 21.4916 15.2505 18.0139 16.4767 14.3891C18.5483 8.91736 21.4225 4.52711 24.0531 2.43049C21.6555 4.59581 18.4105 11.6048 17.439 14.2003C16.3514 17.1068 15.5806 19.8343 15.1161 22.4475C15.9175 19.9977 18.509 18.9446 18.509 18.9446C18.509 18.9446 19.78 17.3771 21.2653 15.1376C20.3756 15.3405 18.9146 15.6879 18.4253 15.8936C17.7034 16.1964 17.5089 16.2997 17.5089 16.2997C17.5089 16.2997 19.8471 14.8758 21.8532 14.231C24.6121 9.88582 27.6178 3.71289 24.5909 1.01272Z" fill="#6C6D6C"/>
</g>
</svg>
