<svg width="88" height="23" viewBox="0 0 88 23" fill="none" xmlns="http://www.w3.org/2000/svg">
<g id="ReplyAI">
<path id="Vector" d="M83.6245 17.6008V0.800781H87.2005V17.6008H83.6245Z" fill="#141614"/>
<path id="Vector_2" d="M65.1338 17.6008L71.3738 0.800781H74.9498L81.2138 17.6008H77.4218L76.1258 14.1688H69.9098L68.6378 17.6008H65.1338ZM71.0138 11.1928H75.0458L73.0298 5.36078L71.0138 11.1928Z" fill="#141614"/>
<path id="Vector_3" d="M54.5719 22.6889C54.3319 22.6889 54.0919 22.6649 53.8519 22.6169V19.9289C54.0919 19.9769 54.3319 20.0009 54.5719 20.0009C54.8919 20.0009 55.1559 19.9209 55.3639 19.7609C55.5879 19.6009 55.7879 19.3449 55.9639 18.9929C56.1559 18.6409 56.3639 18.1769 56.5879 17.6009L51.2119 4.88086H54.7639L58.2199 13.6649L61.3639 4.88086H64.6519L59.7559 17.6009C59.2919 18.8009 58.8439 19.7689 58.4119 20.5049C57.9799 21.2569 57.4679 21.8089 56.8759 22.1609C56.2999 22.5129 55.5319 22.6889 54.5719 22.6889Z" fill="#141614"/>
<path id="Vector_4" d="M49.2785 17.7448C48.3025 17.7448 47.5025 17.6168 46.8785 17.3608C46.2705 17.0888 45.8225 16.6408 45.5345 16.0168C45.2465 15.3768 45.1025 14.4888 45.1025 13.3528V0.800781H48.2465V12.9688C48.2465 13.7848 48.3585 14.3368 48.5825 14.6248C48.8225 14.9128 49.2865 15.0568 49.9745 15.0568C50.1505 15.0568 50.3025 15.0568 50.4305 15.0568C50.5585 15.0408 50.6865 15.0248 50.8145 15.0088V17.6488C50.7345 17.6808 50.5985 17.7048 50.4065 17.7208C50.2145 17.7368 50.0145 17.7448 49.8065 17.7448C49.5985 17.7448 49.4225 17.7448 49.2785 17.7448Z" fill="#141614"/>
<path id="Vector_5" d="M30.2168 22.4008V4.88077H33.1448V6.75277C33.4648 6.17677 33.9688 5.67277 34.6568 5.24077C35.3448 4.80877 36.2168 4.59277 37.2728 4.59277C38.9688 4.59277 40.2888 5.12077 41.2328 6.17677C42.1928 7.21677 42.6728 8.78478 42.6728 10.8808V11.3608C42.6728 12.8168 42.4488 14.0328 42.0008 15.0088C41.5688 15.9688 40.9528 16.6888 40.1528 17.1688C39.3528 17.6488 38.3928 17.8888 37.2728 17.8888C36.4088 17.8888 35.6408 17.7048 34.9688 17.3368C34.3128 16.9528 33.7768 16.4568 33.3608 15.8488V22.4008H30.2168ZM36.5288 15.2008C37.3608 15.2008 38.0568 14.8888 38.6168 14.2648C39.1768 13.6248 39.4568 12.6568 39.4568 11.3608V10.8808C39.4568 9.68078 39.1848 8.78477 38.6408 8.19277C38.1128 7.58477 37.4088 7.28078 36.5288 7.28078C35.9208 7.28078 35.3768 7.40077 34.8968 7.64077C34.4168 7.86477 34.0408 8.20877 33.7688 8.67277C33.4968 9.12077 33.3608 9.69677 33.3608 10.4008V11.8408C33.3608 12.5928 33.4888 13.2248 33.7448 13.7368C34.0168 14.2328 34.3928 14.6008 34.8728 14.8408C35.3528 15.0808 35.9048 15.2008 36.5288 15.2008Z" fill="#141614"/>
<path id="Vector_6" d="M22.0309 17.8888C20.8789 17.8888 19.8149 17.6568 18.8389 17.1928C17.8789 16.7128 17.1109 15.9928 16.5349 15.0328C15.9589 14.0568 15.6709 12.8328 15.6709 11.3608V10.8808C15.6709 9.47277 15.9429 8.30477 16.4869 7.37677C17.0469 6.44877 17.7909 5.75277 18.7189 5.28877C19.6469 4.82477 20.6709 4.59277 21.7909 4.59277C23.7909 4.59277 25.3109 5.12077 26.3509 6.17677C27.3909 7.23277 27.9109 8.76077 27.9109 10.7608V12.1048H18.9109C18.9429 12.8568 19.1029 13.4728 19.3909 13.9528C19.6949 14.4168 20.0789 14.7608 20.5429 14.9848C21.0069 15.1928 21.5029 15.2968 22.0309 15.2968C22.8469 15.2968 23.4629 15.1768 23.8789 14.9368C24.2949 14.6968 24.5909 14.3448 24.7669 13.8808H27.6709C27.4149 15.2088 26.7829 16.2088 25.7749 16.8808C24.7669 17.5528 23.5189 17.8888 22.0309 17.8888ZM21.9109 7.18477C21.4149 7.18477 20.9349 7.26477 20.4709 7.42477C20.0069 7.58477 19.6389 7.87277 19.3669 8.28877C19.0949 8.68877 18.9429 9.22477 18.9109 9.89677H24.8389C24.8229 9.17677 24.6789 8.62477 24.4069 8.24077C24.1509 7.84077 23.8069 7.56877 23.3749 7.42477C22.9429 7.26477 22.4549 7.18477 21.9109 7.18477Z" fill="#141614"/>
<path id="Vector_7" d="M0.556152 17.6008V0.800781H7.34815C8.75615 0.800781 9.92415 1.02478 10.8522 1.47278C11.7962 1.92078 12.5082 2.55278 12.9882 3.36878C13.4682 4.16878 13.7082 5.11278 13.7082 6.20078C13.7082 7.35278 13.4122 8.36078 12.8202 9.22478C12.2282 10.0728 11.3242 10.6888 10.1082 11.0728L14.1882 17.6008H10.0362L6.50815 11.4568H4.13215V17.6008H0.556152ZM4.13215 8.62478H6.65215C7.98015 8.62478 8.89215 8.42478 9.38815 8.02478C9.88415 7.60878 10.1322 7.00078 10.1322 6.20078C10.1322 5.40078 9.88415 4.80078 9.38815 4.40078C8.89215 3.98478 7.98015 3.77678 6.65215 3.77678H4.13215V8.62478Z" fill="#141614"/>
</g>
</svg>
