<svg width="88" height="23" viewBox="0 0 88 23" fill="none" xmlns="http://www.w3.org/2000/svg">
<g id="ReplyAI">
<path id="Vector" d="M83.625 17.6008V0.800781H87.201V17.6008H83.625Z" fill="white"/>
<path id="Vector_2" d="M65.1348 17.6008L71.3748 0.800781H74.9508L81.2148 17.6008H77.4228L76.1268 14.1688H69.9108L68.6388 17.6008H65.1348ZM71.0148 11.1928H75.0468L73.0308 5.36078L71.0148 11.1928Z" fill="white"/>
<path id="Vector_3" d="M54.5729 22.6889C54.3329 22.6889 54.0929 22.6649 53.8529 22.6169V19.9289C54.0929 19.9769 54.3329 20.0009 54.5729 20.0009C54.8929 20.0009 55.1569 19.9209 55.3649 19.7609C55.5889 19.6009 55.7889 19.3449 55.9649 18.9929C56.1569 18.6409 56.3649 18.1769 56.5889 17.6009L51.2129 4.88086H54.7649L58.2209 13.6649L61.3649 4.88086H64.6529L59.7569 17.6009C59.2929 18.8009 58.8449 19.7689 58.4129 20.5049C57.9809 21.2569 57.4689 21.8089 56.8769 22.1609C56.3009 22.5129 55.5329 22.6889 54.5729 22.6889Z" fill="white"/>
<path id="Vector_4" d="M49.2795 17.7448C48.3035 17.7448 47.5035 17.6168 46.8795 17.3608C46.2715 17.0888 45.8235 16.6408 45.5355 16.0168C45.2475 15.3768 45.1035 14.4888 45.1035 13.3528V0.800781H48.2475V12.9688C48.2475 13.7848 48.3595 14.3368 48.5835 14.6248C48.8235 14.9128 49.2875 15.0568 49.9755 15.0568C50.1515 15.0568 50.3035 15.0568 50.4315 15.0568C50.5595 15.0408 50.6875 15.0248 50.8155 15.0088V17.6488C50.7355 17.6808 50.5995 17.7048 50.4075 17.7208C50.2155 17.7368 50.0155 17.7448 49.8075 17.7448C49.5995 17.7448 49.4235 17.7448 49.2795 17.7448Z" fill="white"/>
<path id="Vector_5" d="M30.2168 22.4008V4.88077H33.1448V6.75277C33.4648 6.17677 33.9688 5.67277 34.6568 5.24077C35.3448 4.80877 36.2168 4.59277 37.2728 4.59277C38.9688 4.59277 40.2888 5.12077 41.2328 6.17677C42.1928 7.21677 42.6728 8.78478 42.6728 10.8808V11.3608C42.6728 12.8168 42.4488 14.0328 42.0008 15.0088C41.5688 15.9688 40.9528 16.6888 40.1528 17.1688C39.3528 17.6488 38.3928 17.8888 37.2728 17.8888C36.4088 17.8888 35.6408 17.7048 34.9688 17.3368C34.3128 16.9528 33.7768 16.4568 33.3608 15.8488V22.4008H30.2168ZM36.5288 15.2008C37.3608 15.2008 38.0568 14.8888 38.6168 14.2648C39.1768 13.6248 39.4568 12.6568 39.4568 11.3608V10.8808C39.4568 9.68078 39.1848 8.78477 38.6408 8.19277C38.1128 7.58477 37.4088 7.28078 36.5288 7.28078C35.9208 7.28078 35.3768 7.40077 34.8968 7.64077C34.4168 7.86477 34.0408 8.20877 33.7688 8.67277C33.4968 9.12077 33.3608 9.69677 33.3608 10.4008V11.8408C33.3608 12.5928 33.4888 13.2248 33.7448 13.7368C34.0168 14.2328 34.3928 14.6008 34.8728 14.8408C35.3528 15.0808 35.9048 15.2008 36.5288 15.2008Z" fill="white"/>
<path id="Vector_6" d="M22.0319 17.8888C20.8799 17.8888 19.8159 17.6568 18.8399 17.1928C17.8799 16.7128 17.1119 15.9928 16.5359 15.0328C15.9599 14.0568 15.6719 12.8328 15.6719 11.3608V10.8808C15.6719 9.47277 15.9439 8.30477 16.4879 7.37677C17.0479 6.44877 17.7919 5.75277 18.7199 5.28877C19.6479 4.82477 20.6719 4.59277 21.7919 4.59277C23.7919 4.59277 25.3119 5.12077 26.3519 6.17677C27.3919 7.23277 27.9119 8.76077 27.9119 10.7608V12.1048H18.9119C18.9439 12.8568 19.1039 13.4728 19.3919 13.9528C19.6959 14.4168 20.0799 14.7608 20.5439 14.9848C21.0079 15.1928 21.5039 15.2968 22.0319 15.2968C22.8479 15.2968 23.4639 15.1768 23.8799 14.9368C24.2959 14.6968 24.5919 14.3448 24.7679 13.8808H27.6719C27.4159 15.2088 26.7839 16.2088 25.7759 16.8808C24.7679 17.5528 23.5199 17.8888 22.0319 17.8888ZM21.9119 7.18477C21.4159 7.18477 20.9359 7.26477 20.4719 7.42477C20.0079 7.58477 19.6399 7.87277 19.3679 8.28877C19.0959 8.68877 18.9439 9.22477 18.9119 9.89677H24.8399C24.8239 9.17677 24.6799 8.62477 24.4079 8.24077C24.1519 7.84077 23.8079 7.56877 23.3759 7.42477C22.9439 7.26477 22.4559 7.18477 21.9119 7.18477Z" fill="white"/>
<path id="Vector_7" d="M0.556641 17.6008V0.800781H7.34864C8.75664 0.800781 9.92464 1.02478 10.8526 1.47278C11.7966 1.92078 12.5086 2.55278 12.9886 3.36878C13.4686 4.16878 13.7086 5.11278 13.7086 6.20078C13.7086 7.35278 13.4126 8.36078 12.8206 9.22478C12.2286 10.0728 11.3246 10.6888 10.1086 11.0728L14.1886 17.6008H10.0366L6.50864 11.4568H4.13264V17.6008H0.556641ZM4.13264 8.62478H6.65264C7.98064 8.62478 8.89264 8.42478 9.38864 8.02478C9.88464 7.60878 10.1326 7.00078 10.1326 6.20078C10.1326 5.40078 9.88464 4.80078 9.38864 4.40078C8.89264 3.98478 7.98064 3.77678 6.65264 3.77678H4.13264V8.62478Z" fill="white"/>
</g>
</svg>
