<svg width="0" height="0" class="hidden">
  <symbol fill="none" xmlns="http://www.w3.org/2000/svg" viewBox="0 0 24 24" id="ic_advantage1">
    <path d="M15 9H13M13.6213 4.37866L11.5 6.49998M9 5V3M6.50004 6.50001L4.37872 4.37869M5 9H3M6.50004 11.5L4.37872 13.6214M9 15V13M20 20L12 12" stroke="currentColor" stroke-width="1.5" stroke-linecap="round" stroke-linejoin="round"></path>
  </symbol>
  <symbol fill="none" xmlns="http://www.w3.org/2000/svg" viewBox="0 0 24 24" id="ic_advantage2">
    <path opacity="0.15" fill-rule="evenodd" clip-rule="evenodd" d="M8 10.0002V20.0002H17.3604C18.3138 20.0002 19.1346 19.3273 19.3216 18.3925L20.5216 12.3925C20.7691 11.1549 19.8225 10.0002 18.5604 10.0002H14L16.4258 6.36159C17.1929 5.21081 16.5885 3.64735 15.2467 3.31191L15.1992 3.30002C14.4642 3.11628 13.6886 3.36355 13.1956 3.93872L8 10.0002Z" fill="currentColor"></path>
    <path d="M8 10.0002V20.0002M8 10.0002L4 10.0002V20.0002L8 20.0002M8 10.0002L13.1956 3.93872C13.6886 3.36355 14.4642 3.11628 15.1992 3.30002L15.2467 3.31191C16.5885 3.64735 17.1929 5.21081 16.4258 6.36159L14 10.0002H18.5604C19.8225 10.0002 20.7691 11.1549 20.5216 12.3925L19.3216 18.3925C19.1346 19.3273 18.3138 20.0002 17.3604 20.0002L8 20.0002" stroke="currentColor" stroke-width="1.5" stroke-linecap="round" stroke-linejoin="round"></path>
  </symbol>
  <symbol fill="none" xmlns="http://www.w3.org/2000/svg" viewBox="0 0 24 24" id="ic_advantage3">
    <path opacity="0.15" d="M4 16V5L8 9L12 5L16 9L20 5V16H4Z" fill="currentColor"></path>
    <path d="M4 19H20M4 5V16H20V5L16 9L12 5L8 9L4 5Z" stroke="currentColor" stroke-width="1.5" stroke-linecap="round" stroke-linejoin="round"></path>
  </symbol>
  <symbol fill="none" xmlns="http://www.w3.org/2000/svg" viewBox="0 0 47 48" id="ic_arrow_ver">
    <path d="M33.7484 39.045L33.7484 15.5482C33.7484 14.4436 32.853 13.5482 31.7484 13.5482L8.25161 13.5482" stroke="currentColor" stroke-width="3" stroke-linecap="round"></path>
    <path d="M33.0771 14.2197L12.9481 34.3488" stroke="currentColor" stroke-width="3" stroke-linecap="round"></path>
  </symbol>
  <symbol fill="none" xmlns="http://www.w3.org/2000/svg" viewBox="0 0 57 50" id="ic_arrow_ver2">
    <path d="M10.3196 21.8871L26.9343 38.5018C27.7153 39.2828 28.9817 39.2828 29.7627 38.5018L46.3774 21.8871" stroke="currentColor" stroke-width="3" stroke-linecap="round"></path>
    <path d="M28.3481 38.9668L28.3481 10.5" stroke="currentColor" stroke-width="3" stroke-linecap="round"></path>
  </symbol>
  <symbol fill="none" xmlns="http://www.w3.org/2000/svg" viewBox="0 0 40 41" id="ic_close">
    <path d="M31.6666 8.83301L8.33325 32.1664M8.33328 8.83301L31.6666 32.1664" stroke="currentColor" stroke-width="2.5" stroke-linecap="round" stroke-linejoin="round"></path>
  </symbol>
  <symbol fill="none" xmlns="http://www.w3.org/2000/svg" viewBox="0 0 44 20" id="ic_close2">
    <path d="M2 2L42 18" stroke="currentColor" stroke-width="3" stroke-linecap="round"></path>
    <path d="M2 18L42 2" stroke="currentColor" stroke-width="3" stroke-linecap="round"></path>
  </symbol>
  <symbol fill="none" xmlns="http://www.w3.org/2000/svg" viewBox="0 0 24 24" id="ic_download">
    <path d="M20 15V18C20 19.1046 19.1046 20 18 20H6C4.89543 20 4 19.1046 4 18L4 15M8 11L12 15M12 15L16 11M12 15V3" stroke="currentColor" stroke-width="1.5" stroke-linecap="round" stroke-linejoin="round"></path>
  </symbol>
  <symbol fill="none" xmlns="http://www.w3.org/2000/svg" viewBox="0 0 24 25" id="ic_email">
    <path opacity="0.15" d="M21 18.2598V6.25984C21 5.9837 20.8881 5.7337 20.7071 5.55273L20.5 5.75984L13.4142 12.8456C12.6332 13.6267 11.3668 13.6267 10.5858 12.8456L3.5 5.75984L3.29289 5.55273C3.11193 5.7337 3 5.9837 3 6.25984V18.2598C3 18.8121 3.44772 19.2598 4 19.2598H20C20.5523 19.2598 21 18.8121 21 18.2598Z" fill="currentColor"></path>
    <path d="M3.29289 5.55266C3.47386 5.37169 3.72386 5.25977 4 5.25977H20C20.2761 5.25977 20.5261 5.37169 20.7071 5.55266M3.29289 5.55266C3.11193 5.73362 3 5.98362 3 6.25977V18.2598C3 18.812 3.44772 19.2598 4 19.2598H20C20.5523 19.2598 21 18.812 21 18.2598V6.25977C21 5.98362 20.8881 5.73362 20.7071 5.55266M3.29289 5.55266L10.5858 12.8456C11.3668 13.6266 12.6332 13.6266 13.4142 12.8456L20.7071 5.55266" stroke="currentColor" stroke-width="1.5" stroke-linecap="round" stroke-linejoin="round"></path>
  </symbol>
  <symbol fill="none" xmlns="http://www.w3.org/2000/svg" viewBox="0 0 25 24" id="ic_email2">
    <path opacity="0.15" d="M21.5 18.0001V6.00008C21.5 5.72393 21.3881 5.47393 21.2071 5.29297L21 5.50008L13.9142 12.5859C13.1332 13.3669 11.8668 13.3669 11.0858 12.5859L4 5.50008L3.79289 5.29297C3.61193 5.47393 3.5 5.72393 3.5 6.00008V18.0001C3.5 18.5524 3.94772 19.0001 4.5 19.0001H20.5C21.0523 19.0001 21.5 18.5524 21.5 18.0001Z" fill="currentColor"></path>
    <path d="M3.79289 5.29289C3.97386 5.11193 4.22386 5 4.5 5H20.5C20.7761 5 21.0261 5.11193 21.2071 5.29289M3.79289 5.29289C3.61193 5.47386 3.5 5.72386 3.5 6V18C3.5 18.5523 3.94772 19 4.5 19H20.5C21.0523 19 21.5 18.5523 21.5 18V6C21.5 5.72386 21.3881 5.47386 21.2071 5.29289M3.79289 5.29289L11.0858 12.5858C11.8668 13.3668 13.1332 13.3668 13.9142 12.5858L21.2071 5.29289" stroke="currentColor" stroke-width="1.5" stroke-linecap="round" stroke-linejoin="round"></path>
  </symbol>
  <symbol fill="none" xmlns="http://www.w3.org/2000/svg" viewBox="0 0 24 24" id="ic_file">
    <path opacity="0.15" d="M5 21H19V9H15C13.8954 9 13 8.10457 13 7V3H5V21Z" fill="currentColor"></path>
    <path d="M8 13H14M8 17H16M13 3H5V21H19V9M13 3H14L19 8V9M13 3V7C13 8 14 9 15 9H19" stroke="currentColor" stroke-width="1.5" stroke-linecap="round" stroke-linejoin="round"></path>
  </symbol>
  <symbol fill="none" xmlns="http://www.w3.org/2000/svg" viewBox="0 0 24 24" id="ic_like">
    <path opacity="0.15" fill-rule="evenodd" clip-rule="evenodd" d="M8 10.0002V20.0002H17.3604C18.3138 20.0002 19.1346 19.3273 19.3216 18.3925L20.5216 12.3925C20.7691 11.1549 19.8225 10.0002 18.5604 10.0002H14L16.4258 6.36159C17.1929 5.21081 16.5885 3.64735 15.2467 3.31191L15.1992 3.30002C14.4642 3.11628 13.6886 3.36355 13.1956 3.93872L8 10.0002Z" fill="currentColor"></path>
    <path d="M8 10.0002V20.0002M8 10.0002L4 10.0002V20.0002L8 20.0002M8 10.0002L13.1956 3.93872C13.6886 3.36355 14.4642 3.11628 15.1992 3.30002L15.2467 3.31191C16.5885 3.64735 17.1929 5.21081 16.4258 6.36159L14 10.0002H18.5604C19.8225 10.0002 20.7691 11.1549 20.5216 12.3925L19.3216 18.3925C19.1346 19.3273 18.3138 20.0002 17.3604 20.0002L8 20.0002" stroke="currentColor" stroke-width="1.5" stroke-linecap="round" stroke-linejoin="round"></path>
  </symbol>
  <symbol fill="none" xmlns="http://www.w3.org/2000/svg" viewBox="0 0 44 20" id="ic_menu">
    <path d="M2 2H42" stroke="currentColor" stroke-width="3" stroke-linecap="round"></path>
    <path d="M2 18H42" stroke="currentColor" stroke-width="3" stroke-linecap="round"></path>
  </symbol>
  <symbol fill="none" xmlns="http://www.w3.org/2000/svg" viewBox="0 0 21 20" id="ic_moon">
    <path d="M14.2188 1.7998C15.4006 2.46027 16.4133 3.38571 17.1772 4.50346C17.9412 5.62121 18.4356 6.90083 18.6217 8.24185C18.8078 9.58287 18.6805 10.9488 18.2498 12.2323C17.8191 13.5158 17.0967 14.6821 16.1394 15.6394C15.1821 16.5967 14.0158 17.3191 12.7323 17.7498C11.4488 18.1805 10.0829 18.3078 8.74185 18.1217C7.40083 17.9356 6.12121 17.4412 5.00346 16.6772C3.88571 15.9133 2.96027 14.9006 2.2998 13.7188C5.6348 15.5858 9.9328 15.1058 12.7688 12.2698C15.6058 9.43281 16.0868 5.1358 14.2188 1.7998Z" fill="currentColor"></path>
  </symbol>
  <symbol fill="none" xmlns="http://www.w3.org/2000/svg" viewBox="0 0 24 25" id="ic_phone">
    <path opacity="0.15" d="M20.9994 16.7364V19.4462C21.0036 20.4821 20.0722 21.347 19.0264 21.2527C10 21.2598 3 14.1948 3.00706 5.22895C2.91287 4.18871 3.77358 3.26083 4.80811 3.25985H7.52325C7.96247 3.25554 8.38828 3.41077 8.72131 3.69661C9.66813 4.50926 10.2771 7.26754 10.0428 8.36404C9.85987 9.22013 8.9969 9.81906 8.41019 10.4046C9.69858 12.6659 11.5746 14.5383 13.8405 15.8241C14.4272 15.2386 15.0273 14.3773 15.8851 14.1948C16.9855 13.9605 19.7615 14.5704 20.5709 15.5238C20.8579 15.8619 21.0104 16.2935 20.9994 16.7364Z" fill="currentColor"></path>
    <path d="M14.5 6.75977C15.2372 6.90359 15.9689 7.22869 16.5 7.75977C17.0311 8.29084 17.3562 9.02261 17.5 9.75977M15 3.25977C16.5315 3.42991 17.9097 4.17084 19 5.25977C20.0903 6.3487 20.8279 7.72845 21 9.25977M20.9994 16.7364V19.4462C21.0036 20.4821 20.0722 21.347 19.0264 21.2527C10 21.2598 3 14.1948 3.00706 5.22895C2.91287 4.18871 3.77358 3.26083 4.80811 3.25985H7.52325C7.96247 3.25554 8.38828 3.41077 8.72131 3.69661C9.66813 4.50926 10.2771 7.26754 10.0428 8.36404C9.85987 9.22013 8.9969 9.81906 8.41019 10.4046C9.69858 12.6659 11.5746 14.5383 13.8405 15.8241C14.4272 15.2386 15.0273 14.3773 15.8851 14.1948C16.9855 13.9605 19.7615 14.5704 20.5709 15.5238C20.8579 15.8619 21.0104 16.2935 20.9994 16.7364Z" stroke="currentColor" stroke-width="1.5" stroke-linecap="round" stroke-linejoin="round"></path>
  </symbol>
  <symbol fill="none" xmlns="http://www.w3.org/2000/svg" viewBox="0 0 25 24" id="ic_phone2">
    <path opacity="0.15" d="M21.4994 16.4767V19.1864C21.5036 20.2223 20.5722 21.0873 19.5264 20.9929C10.5 21 3.5 13.935 3.50706 4.96919C3.41287 3.92895 4.27358 3.00106 5.30811 3.00009H8.02325C8.46247 2.99577 8.88828 3.151 9.22131 3.43684C10.1681 4.24949 10.7771 7.00777 10.5428 8.10428C10.3599 8.96036 9.4969 9.55929 8.91019 10.1448C10.1986 12.4062 12.0746 14.2785 14.3405 15.5644C14.9272 14.9788 15.5273 14.1176 16.3851 13.935C17.4855 13.7008 20.2615 14.3106 21.0709 15.264C21.3579 15.6021 21.5104 16.0337 21.4994 16.4767Z" fill="currentColor"></path>
    <path d="M15 6.5C15.7372 6.64382 16.4689 6.96892 17 7.5C17.5311 8.03108 17.8562 8.76284 18 9.5M15.5 3C17.0315 3.17014 18.4097 3.91107 19.5 5C20.5903 6.08893 21.3279 7.46869 21.5 9M21.4994 16.4767V19.1864C21.5036 20.2223 20.5722 21.0873 19.5264 20.9929C10.5 21 3.5 13.935 3.50706 4.96919C3.41287 3.92895 4.27358 3.00106 5.30811 3.00009H8.02325C8.46247 2.99577 8.88828 3.151 9.22131 3.43684C10.1681 4.24949 10.7771 7.00777 10.5428 8.10428C10.3599 8.96036 9.4969 9.55929 8.91019 10.1448C10.1986 12.4062 12.0746 14.2785 14.3405 15.5644C14.9272 14.9788 15.5273 14.1176 16.3851 13.935C17.4855 13.7008 20.2615 14.3106 21.0709 15.264C21.3579 15.6021 21.5104 16.0337 21.4994 16.4767Z" stroke="currentColor" stroke-width="1.5" stroke-linecap="round" stroke-linejoin="round"></path>
  </symbol>
  <symbol fill="none" xmlns="http://www.w3.org/2000/svg" viewBox="0 0 50 49" id="ic_secure">
    <path opacity="0.15" d="M8.95752 14.0383L25.0009 6.0166L41.0442 14.0383C41.0442 24.4529 35.4606 39.1257 25.0009 42.1142C14.5412 39.1257 8.95752 24.4529 8.95752 14.0383Z" fill="currentColor"></path>
    <path d="M32.0198 19.0518L22.9955 28.0762L19.9873 25.0681M25.0009 6.0166L8.95752 14.0383C8.95752 24.4529 14.5412 39.1257 25.0009 42.1142C35.4606 39.1257 41.0442 24.4529 41.0442 14.0383L25.0009 6.0166Z" stroke="currentColor" stroke-width="2.4065" stroke-linecap="round" stroke-linejoin="round"></path>
  </symbol>
  <symbol fill="none" xmlns="http://www.w3.org/2000/svg" viewBox="0 0 24 24" id="ic_send">
    <path opacity="0.15" d="M21 12L4 19L7 12L4 5L21 12Z" fill="currentColor"></path>
    <path d="M4 19L21 12L4 5L7 12L4 19Z" stroke="currentColor" stroke-width="1.5" stroke-linecap="round" stroke-linejoin="round"></path>
  </symbol>
  <symbol fill="none" xmlns="http://www.w3.org/2000/svg" viewBox="0 0 136 136" id="ic_success">
    <path opacity="0.15" d="M68 119C96.1665 119 119 96.1665 119 68C119 39.8335 96.1665 17 68 17C39.8335 17 17 39.8335 17 68C17 96.1665 39.8335 119 68 119Z" fill="currentColor"></path>
    <path d="M45.3333 79.3333C45.3333 79.3333 53.8333 90.6667 68 90.6667C82.1667 90.6667 90.6667 79.3333 90.6667 79.3333M85 51H85.0567M51 51H51.0567M119 68C119 96.1665 96.1665 119 68 119C39.8335 119 17 96.1665 17 68C17 39.8335 39.8335 17 68 17C96.1665 17 119 39.8335 119 68Z" stroke="currentColor" stroke-width="8.5" stroke-linecap="round" stroke-linejoin="round"></path>
  </symbol>
  <symbol fill="none" xmlns="http://www.w3.org/2000/svg" viewBox="0 0 25 24" id="ic_sun">
    <path d="M18.5 12C18.5 13.5913 17.8679 15.1174 16.7426 16.2426C15.6174 17.3679 14.0913 18 12.5 18C10.9087 18 9.38258 17.3679 8.25736 16.2426C7.13214 15.1174 6.5 13.5913 6.5 12C6.5 10.4087 7.13214 8.88258 8.25736 7.75736C9.38258 6.63214 10.9087 6 12.5 6C14.0913 6 15.6174 6.63214 16.7426 7.75736C17.8679 8.88258 18.5 10.4087 18.5 12Z" fill="currentColor"></path>
    <path fill-rule="evenodd" clip-rule="evenodd" d="M12.5 1.25C12.6989 1.25 12.8897 1.32902 13.0303 1.46967C13.171 1.61032 13.25 1.80109 13.25 2V3C13.25 3.19891 13.171 3.38968 13.0303 3.53033C12.8897 3.67098 12.6989 3.75 12.5 3.75C12.3011 3.75 12.1103 3.67098 11.9697 3.53033C11.829 3.38968 11.75 3.19891 11.75 3V2C11.75 1.80109 11.829 1.61032 11.9697 1.46967C12.1103 1.32902 12.3011 1.25 12.5 1.25ZM4.899 4.399C5.03963 4.25855 5.23025 4.17966 5.429 4.17966C5.62775 4.17966 5.81837 4.25855 5.959 4.399L6.352 4.791C6.48869 4.93239 6.56437 5.1218 6.56276 5.31845C6.56114 5.5151 6.48235 5.70325 6.34336 5.84237C6.20437 5.98149 6.0163 6.06046 5.81965 6.06226C5.623 6.06406 5.43352 5.98855 5.292 5.852L4.899 5.459C4.75855 5.31837 4.67966 5.12775 4.67966 4.929C4.67966 4.73025 4.75855 4.53963 4.899 4.399ZM20.101 4.399C20.2414 4.53963 20.3203 4.73025 20.3203 4.929C20.3203 5.12775 20.2414 5.31837 20.101 5.459L19.708 5.852C19.5658 5.98448 19.3778 6.0566 19.1835 6.05317C18.9892 6.04975 18.8038 5.97104 18.6664 5.83362C18.529 5.69621 18.4503 5.51082 18.4468 5.31652C18.4434 5.12222 18.5155 4.93417 18.648 4.792L19.041 4.399C19.1816 4.25855 19.3722 4.17966 19.571 4.17966C19.7698 4.17966 19.9604 4.25855 20.101 4.399ZM1.75 12C1.75 11.8011 1.82902 11.6103 1.96967 11.4697C2.11032 11.329 2.30109 11.25 2.5 11.25H3.5C3.69891 11.25 3.88968 11.329 4.03033 11.4697C4.17098 11.6103 4.25 11.8011 4.25 12C4.25 12.1989 4.17098 12.3897 4.03033 12.5303C3.88968 12.671 3.69891 12.75 3.5 12.75H2.5C2.30109 12.75 2.11032 12.671 1.96967 12.5303C1.82902 12.3897 1.75 12.1989 1.75 12ZM20.75 12C20.75 11.8011 20.829 11.6103 20.9697 11.4697C21.1103 11.329 21.3011 11.25 21.5 11.25H22.5C22.6989 11.25 22.8897 11.329 23.0303 11.4697C23.171 11.6103 23.25 11.8011 23.25 12C23.25 12.1989 23.171 12.3897 23.0303 12.5303C22.8897 12.671 22.6989 12.75 22.5 12.75H21.5C21.3011 12.75 21.1103 12.671 20.9697 12.5303C20.829 12.3897 20.75 12.1989 20.75 12ZM18.648 18.148C18.7886 18.0076 18.9792 17.9287 19.178 17.9287C19.3768 17.9287 19.5674 18.0076 19.708 18.148L20.101 18.541C20.1747 18.6097 20.2338 18.6925 20.2748 18.7845C20.3158 18.8765 20.3378 18.9758 20.3396 19.0765C20.3414 19.1772 20.3228 19.2772 20.2851 19.3706C20.2474 19.464 20.1913 19.5488 20.12 19.62C20.0488 19.6913 19.964 19.7474 19.8706 19.7851C19.7772 19.8228 19.6772 19.8414 19.5765 19.8396C19.4758 19.8378 19.3765 19.8158 19.2845 19.7748C19.1925 19.7338 19.1097 19.6747 19.041 19.601L18.648 19.208C18.5076 19.0674 18.4287 18.8768 18.4287 18.678C18.4287 18.4792 18.5076 18.2886 18.648 18.148ZM6.352 18.148C6.49245 18.2886 6.57134 18.4792 6.57134 18.678C6.57134 18.8768 6.49245 19.0674 6.352 19.208L5.959 19.601C5.89034 19.6747 5.80754 19.7338 5.71554 19.7748C5.62354 19.8158 5.52423 19.8378 5.42352 19.8396C5.32282 19.8414 5.22279 19.8228 5.1294 19.7851C5.03601 19.7474 4.95118 19.6913 4.87996 19.62C4.80874 19.5488 4.7526 19.464 4.71488 19.3706C4.67716 19.2772 4.65863 19.1772 4.66041 19.0765C4.66219 18.9758 4.68423 18.8765 4.72522 18.7845C4.76621 18.6925 4.82531 18.6097 4.899 18.541L5.291 18.148C5.36065 18.0783 5.44335 18.023 5.53438 17.9853C5.6254 17.9476 5.72297 17.9282 5.8215 17.9282C5.92003 17.9282 6.0176 17.9476 6.10862 17.9853C6.19965 18.023 6.28235 18.0783 6.352 18.148ZM12.5 20.25C12.6989 20.25 12.8897 20.329 13.0303 20.4697C13.171 20.6103 13.25 20.8011 13.25 21V22C13.25 22.1989 13.171 22.3897 13.0303 22.5303C12.8897 22.671 12.6989 22.75 12.5 22.75C12.3011 22.75 12.1103 22.671 11.9697 22.5303C11.829 22.3897 11.75 22.1989 11.75 22V21C11.75 20.8011 11.829 20.6103 11.9697 20.4697C12.1103 20.329 12.3011 20.25 12.5 20.25Z" fill="currentColor"></path>
  </symbol>
  <symbol fill="none" xmlns="http://www.w3.org/2000/svg" viewBox="0 0 50 49" id="ic_upload">
    <path d="M15.7749 19.5862V17.681C15.7749 12.4201 20.0397 8.15527 25.3006 8.15527C30.5616 8.15527 34.8264 12.4201 34.8264 17.681V19.5862C39.0351 19.5862 42.447 22.998 42.447 27.2068C42.447 30.0275 40.9145 32.5571 38.6367 33.8748M15.7749 19.5862C11.5662 19.5862 8.1543 22.998 8.1543 27.2068C8.1543 30.0275 9.68679 32.5571 11.9646 33.8748M15.7749 19.5862C16.5995 19.5862 17.3936 19.7172 18.1374 19.9595M25.3006 23.3965V40.5428M25.3006 23.3965L31.0161 29.1119M25.3006 23.3965L19.5852 29.1119" stroke="currentColor" stroke-width="2.4065" stroke-linecap="round" stroke-linejoin="round"></path>
  </symbol>
</svg>